Tajawal-Light.ufo
<glyph name="exclam" format="1">
 <advance width="195" />
 <unicode hex="0021" />
 <outline>
  <contour>
   <point x="73" y="140" type="line" smooth="no" name="13" />
   <point x="120" y="140" type="line" smooth="no" name="13" />
   <point x="120" y="633" type="line" smooth="no" name="13" />
   <point x="73" y="633" type="line" smooth="no" name="13" />
  </contour>
  <contour>
   <point x="98" y="-5" type="curve" smooth="yes" name="15" />
   <point x="119" y="-5" type="offcurve" name="14" />
   <point x="129" y="6" type="offcurve" name="14" />
   <point x="129" y="28" type="curve" smooth="yes" name="15" />
   <point x="129" y="49" type="offcurve" name="14" />
   <point x="119" y="60" type="offcurve" name="14" />
   <point x="98" y="60" type="curve" smooth="yes" name="15" />
   <point x="77" y="60" type="offcurve" name="14" />
   <point x="66" y="49" type="offcurve" name="14" />
   <point x="66" y="28" type="curve" smooth="yes" name="15" />
   <point x="66" y="6" type="offcurve" name="14" />
   <point x="77" y="-5" type="offcurve" name="14" />
  </contour>
 </outline>
</glyph>
<glyph name="quotedbl" format="1">
 <advance width="249" />
 <unicode hex="0022" />
 <outline>
  <contour>
   <point x="70" y="502" type="line" smooth="no" name="13" />
   <point x="107" y="522" type="line" smooth="no" name="13" />
   <point x="107" y="645" type="line" smooth="no" name="13" />
   <point x="70" y="625" type="line" smooth="no" name="13" />
  </contour>
  <contour>
   <point x="142" y="502" type="line" smooth="no" name="13" />
   <point x="179" y="522" type="line" smooth="no" name="13" />
   <point x="179" y="645" type="line" smooth="no" name="13" />
   <point x="142" y="625" type="line" smooth="no" name="13" />
  </contour>
 </outline>
</glyph>
<glyph name="numbersign" format="1">
 <advance width="497" />
 <unicode hex="0023" />
 <outline>
  <contour>
   <point x="344" y="152" type="line" smooth="no" name="13" />
   <point x="448" y="152" type="line" smooth="no" name="13" />
   <point x="448" y="192" type="line" smooth="no" name="13" />
   <point x="353" y="192" type="line" smooth="no" name="13" />
   <point x="398" y="414" type="line" smooth="no" name="13" />
   <point x="482" y="414" type="line" smooth="no" name="13" />
   <point x="482" y="454" type="line" smooth="no" name="13" />
   <point x="406" y="454" type="line" smooth="no" name="13" />
   <point x="438" y="609" type="line" smooth="no" name="13" />
   <point x="396" y="609" type="line" smooth="no" name="13" />
   <point x="364" y="454" type="line" smooth="no" name="13" />
   <point x="199" y="454" type="line" smooth="no" name="13" />
   <point x="231" y="609" type="line" smooth="no" name="13" />
   <point x="189" y="609" type="line" smooth="no" name="13" />
   <point x="157" y="454" type="line" smooth="no" name="13" />
   <point x="50" y="454" type="line" smooth="no" name="13" />
   <point x="50" y="414" type="line" smooth="no" name="13" />
   <point x="149" y="414" type="line" smooth="no" name="13" />
   <point x="104" y="192" type="line" smooth="no" name="13" />
   <point x="15" y="192" type="line" smooth="no" name="13" />
   <point x="15" y="152" type="line" smooth="no" name="13" />
   <point x="96" y="152" type="line" smooth="no" name="13" />
   <point x="64" y="0" type="line" smooth="no" name="13" />
   <point x="106" y="0" type="line" smooth="no" name="13" />
   <point x="137" y="152" type="line" smooth="no" name="13" />
   <point x="302" y="152" type="line" smooth="no" name="13" />
   <point x="271" y="0" type="line" smooth="no" name="13" />
   <point x="313" y="0" type="line" smooth="no" name="13" />
  </contour>
  <contour>
   <point x="191" y="414" type="line" smooth="no" name="13" />
   <point x="356" y="414" type="line" smooth="no" name="13" />
   <point x="311" y="192" type="line" smooth="no" name="13" />
   <point x="146" y="192" type="line" smooth="no" name="13" />
  </contour>
 </outline>
</glyph>
<glyph name="dollar" format="1">
 <advance width="513" />
 <unicode hex="0024" />
 <outline>
  <contour>
   <point x="279" y="700" type="line" smooth="no" name="13" />
   <point x="248" y="700" type="line" smooth="no" name="13" />
   <point x="248" y="645" type="line" smooth="no" name="13" />
   <point x="133" y="641" type="offcurve" name="14" />
   <point x="66" y="572" type="offcurve" name="14" />
   <point x="66" y="489" type="curve" smooth="yes" name="15" />
   <point x="66" y="398" type="offcurve" name="14" />
   <point x="144" y="351" type="offcurve" name="14" />
   <point x="248" y="315" type="curve" smooth="no" name="13" />
   <point x="248" y="37" type="line" smooth="no" name="13" />
   <point x="243" y="37" type="line" smooth="yes" name="15" />
   <point x="188" y="37" type="offcurve" name="14" />
   <point x="134" y="56" type="offcurve" name="14" />
   <point x="88" y="81" type="curve" smooth="no" name="13" />
   <point x="65" y="48" type="line" smooth="no" name="13" />
   <point x="108" y="19" type="offcurve" name="14" />
   <point x="165" y="-10" type="offcurve" name="14" />
   <point x="248" y="-12" type="curve" smooth="no" name="13" />
   <point x="248" y="-74" type="line" smooth="no" name="13" />
   <point x="279" y="-74" type="line" smooth="no" name="13" />
   <point x="279" y="-11" type="line" smooth="no" name="13" />
   <point x="374" y="-1" type="offcurve" name="14" />
   <point x="448" y="63" type="offcurve" name="14" />
   <point x="448" y="160" type="curve" smooth="yes" name="15" />
   <point x="448" y="260" type="offcurve" name="14" />
   <point x="402" y="310" type="offcurve" name="14" />
   <point x="279" y="360" type="curve" smooth="no" name="13" />
   <point x="279" y="596" type="line" smooth="no" name="13" />
   <point x="321" y="594" type="offcurve" name="14" />
   <point x="360" y="584" type="offcurve" name="14" />
   <point x="396" y="564" type="curve" smooth="no" name="13" />
   <point x="421" y="597" type="line" smooth="no" name="13" />
   <point x="386" y="620" type="offcurve" name="14" />
   <point x="340" y="641" type="offcurve" name="14" />
   <point x="279" y="644" type="curve" smooth="no" name="13" />
  </contour>
  <contour>
   <point x="279" y="39" type="curve" smooth="no" name="13" />
   <point x="279" y="304" type="line" smooth="no" name="13" />
   <point x="369" y="267" type="offcurve" name="14" />
   <point x="391" y="221" type="offcurve" name="14" />
   <point x="391" y="160" type="curve" smooth="yes" name="15" />
   <point x="391" y="102" type="offcurve" name="14" />
   <point x="353" y="51" type="offcurve" name="14" />
  </contour>
  <contour>
   <point x="248" y="595" type="curve" smooth="no" name="13" />
   <point x="248" y="372" type="line" smooth="no" name="13" />
   <point x="155" y="407" type="offcurve" name="14" />
   <point x="126" y="442" type="offcurve" name="14" />
   <point x="126" y="489" type="curve" smooth="yes" name="15" />
   <point x="126" y="558" type="offcurve" name="14" />
   <point x="178" y="591" type="offcurve" name="14" />
  </contour>
 </outline>
</glyph>
<glyph name="percent" format="1">
 <advance width="711" />
 <unicode hex="0025" />
 <outline>
  <contour>
   <point x="182" y="0" type="line" smooth="no" name="13" />
   <point x="231" y="0" type="line" smooth="no" name="13" />
   <point x="534" y="589" type="line" smooth="no" name="13" />
   <point x="485" y="589" type="line" smooth="no" name="13" />
  </contour>
  <contour>
   <point x="284" y="429" type="curve" smooth="yes" name="15" />
   <point x="284" y="502" type="offcurve" name="14" />
   <point x="248" y="578" type="offcurve" name="14" />
   <point x="170" y="578" type="curve" smooth="yes" name="15" />
   <point x="84" y="578" type="offcurve" name="14" />
   <point x="52" y="503" type="offcurve" name="14" />
   <point x="52" y="428" type="curve" smooth="yes" name="15" />
   <point x="52" y="344" type="offcurve" name="14" />
   <point x="86" y="271" type="offcurve" name="14" />
   <point x="170" y="271" type="curve" smooth="yes" name="15" />
   <point x="250" y="271" type="offcurve" name="14" />
   <point x="284" y="349" type="offcurve" name="14" />
  </contour>
  <contour>
   <point x="242" y="427" type="curve" smooth="yes" name="15" />
   <point x="242" y="369" type="offcurve" name="14" />
   <point x="219" y="306" type="offcurve" name="14" />
   <point x="168" y="306" type="curve" smooth="yes" name="15" />
   <point x="116" y="306" type="offcurve" name="14" />
   <point x="94" y="370" type="offcurve" name="14" />
   <point x="94" y="427" type="curve" smooth="yes" name="15" />
   <point x="94" y="481" type="offcurve" name="14" />
   <point x="117" y="542" type="offcurve" name="14" />
   <point x="168" y="542" type="curve" smooth="yes" name="15" />
   <point x="220" y="542" type="offcurve" name="14" />
   <point x="242" y="477" type="offcurve" name="14" />
  </contour>
  <contour>
   <point x="659" y="162" type="curve" smooth="yes" name="15" />
   <point x="659" y="235" type="offcurve" name="14" />
   <point x="623" y="311" type="offcurve" name="14" />
   <point x="545" y="311" type="curve" smooth="yes" name="15" />
   <point x="459" y="311" type="offcurve" name="14" />
   <point x="427" y="236" type="offcurve" name="14" />
   <point x="427" y="161" type="curve" smooth="yes" name="15" />
   <point x="427" y="77" type="offcurve" name="14" />
   <point x="461" y="4" type="offcurve" name="14" />
   <point x="545" y="4" type="curve" smooth="yes" name="15" />
   <point x="625" y="4" type="offcurve" name="14" />
   <point x="659" y="82" type="offcurve" name="14" />
  </contour>
  <contour>
   <point x="617" y="160" type="curve" smooth="yes" name="15" />
   <point x="617" y="102" type="offcurve" name="14" />
   <point x="594" y="40" type="offcurve" name="14" />
   <point x="543" y="40" type="curve" smooth="yes" name="15" />
   <point x="491" y="40" type="offcurve" name="14" />
   <point x="469" y="103" type="offcurve" name="14" />
   <point x="469" y="160" type="curve" smooth="yes" name="15" />
   <point x="469" y="215" type="offcurve" name="14" />
   <point x="492" y="275" type="offcurve" name="14" />
   <point x="543" y="275" type="curve" smooth="yes" name="15" />
   <point x="595" y="275" type="offcurve" name="14" />
   <point x="617" y="210" type="offcurve" name="14" />
  </contour>
 </outline>
</glyph>
<glyph name="ampersand" format="1">
 <advance width="566" />
 <unicode hex="0026" />
 <outline>
  <contour>
   <point x="431" y="329" type="line" smooth="no" name="13" />
   <point x="431" y="276" type="line" smooth="yes" name="15" />
   <point x="431" y="205" type="offcurve" name="14" />
   <point x="423" y="160" type="offcurve" name="14" />
   <point x="415" y="144" type="curve" smooth="no" name="13" />
   <point x="219" y="366" type="line" smooth="yes" name="15" />
   <point x="156" y="437" type="offcurve" name="14" />
   <point x="140" y="476" type="offcurve" name="14" />
   <point x="140" y="510" type="curve" smooth="yes" name="15" />
   <point x="140" y="558" type="offcurve" name="14" />
   <point x="175" y="596" type="offcurve" name="14" />
   <point x="234" y="596" type="curve" smooth="yes" name="15" />
   <point x="283" y="596" type="offcurve" name="14" />
   <point x="318" y="580" type="offcurve" name="14" />
   <point x="341" y="569" type="curve" smooth="no" name="13" />
   <point x="360" y="605" type="line" smooth="no" name="13" />
   <point x="321" y="632" type="offcurve" name="14" />
   <point x="274" y="645" type="offcurve" name="14" />
   <point x="235" y="645" type="curve" smooth="yes" name="15" />
   <point x="152" y="645" type="offcurve" name="14" />
   <point x="80" y="594" type="offcurve" name="14" />
   <point x="80" y="508" type="curve" smooth="yes" name="15" />
   <point x="80" y="462" type="offcurve" name="14" />
   <point x="108" y="414" type="offcurve" name="14" />
   <point x="155" y="360" type="curve" smooth="yes" name="15" />
   <point x="169" y="344" type="line" smooth="no" name="13" />
   <point x="115" y="311" type="offcurve" name="14" />
   <point x="65" y="250" type="offcurve" name="14" />
   <point x="65" y="167" type="curve" smooth="yes" name="15" />
   <point x="65" y="60" type="offcurve" name="14" />
   <point x="157" y="-12" type="offcurve" name="14" />
   <point x="262" y="-12" type="curve" smooth="yes" name="15" />
   <point x="350" y="-12" type="offcurve" name="14" />
   <point x="408" y="38" type="offcurve" name="14" />
   <point x="425" y="59" type="curve" smooth="no" name="13" />
   <point x="477" y="0" type="line" smooth="no" name="13" />
   <point x="541" y="0" type="line" smooth="no" name="13" />
   <point x="451" y="103" type="line" smooth="no" name="13" />
   <point x="469" y="131" type="offcurve" name="14" />
   <point x="485" y="193" type="offcurve" name="14" />
   <point x="485" y="289" type="curve" smooth="yes" name="15" />
   <point x="485" y="329" type="line" smooth="no" name="13" />
  </contour>
  <contour>
   <point x="199" y="314" type="curve" smooth="no" name="13" />
   <point x="390" y="97" type="line" smooth="no" name="13" />
   <point x="373" y="75" type="offcurve" name="14" />
   <point x="330" y="37" type="offcurve" name="14" />
   <point x="270" y="37" type="curve" smooth="yes" name="15" />
   <point x="190" y="37" type="offcurve" name="14" />
   <point x="125" y="86" type="offcurve" name="14" />
   <point x="125" y="180" type="curve" smooth="yes" name="15" />
   <point x="125" y="235" type="offcurve" name="14" />
   <point x="157" y="292" type="offcurve" name="14" />
  </contour>
 </outline>
</glyph>
<glyph name="quotesingle" format="1">
 <advance width="177" />
 <unicode hex="0027" />
 <outline>
  <contour>
   <point x="70" y="502" type="line" smooth="no" name="13" />
   <point x="107" y="522" type="line" smooth="no" name="13" />
   <point x="107" y="645" type="line" smooth="no" name="13" />
   <point x="70" y="625" type="line" smooth="no" name="13" />
  </contour>
 </outline>
</glyph>
<glyph name="parenleft" format="1">
 <advance width="368" />
 <unicode hex="0028" />
 <outline>
  <contour>
   <point x="272" y="645" type="curve" smooth="no" name="13" />
   <point x="230" y="645" type="line" smooth="no" name="13" />
   <point x="168" y="580" type="offcurve" name="14" />
   <point x="91" y="421" type="offcurve" name="14" />
   <point x="91" y="252" type="curve" smooth="yes" name="15" />
   <point x="91" y="83" type="offcurve" name="14" />
   <point x="168" y="-76" type="offcurve" name="14" />
   <point x="230" y="-141" type="curve" smooth="no" name="13" />
   <point x="272" y="-141" type="line" smooth="no" name="13" />
   <point x="209" y="-48" type="offcurve" name="14" />
   <point x="144" y="82" type="offcurve" name="14" />
   <point x="144" y="252" type="curve" smooth="yes" name="15" />
   <point x="144" y="422" type="offcurve" name="14" />
   <point x="209" y="552" type="offcurve" name="14" />
  </contour>
 </outline>
</glyph>
<glyph name="parenright" format="1">
 <advance width="368" />
 <unicode hex="0029" />
 <outline>
  <contour>
   <point x="91" y="-141" type="curve" smooth="no" name="13" />
   <point x="133" y="-141" type="line" smooth="no" name="13" />
   <point x="195" y="-76" type="offcurve" name="14" />
   <point x="272" y="83" type="offcurve" name="14" />
   <point x="272" y="252" type="curve" smooth="yes" name="15" />
   <point x="272" y="421" type="offcurve" name="14" />
   <point x="195" y="580" type="offcurve" name="14" />
   <point x="133" y="645" type="curve" smooth="no" name="13" />
   <point x="91" y="645" type="line" smooth="no" name="13" />
   <point x="154" y="552" type="offcurve" name="14" />
   <point x="219" y="422" type="offcurve" name="14" />
   <point x="219" y="252" type="curve" smooth="yes" name="15" />
   <point x="219" y="82" type="offcurve" name="14" />
   <point x="154" y="-48" type="offcurve" name="14" />
  </contour>
 </outline>
</glyph>
<glyph name="asterisk" format="1">
 <advance width="335" />
 <unicode hex="002a" />
 <outline>
  <contour>
   <point x="157" y="522" type="line" smooth="no" name="13" />
   <point x="67" y="602" type="line" smooth="no" name="13" />
   <point x="32" y="550" type="line" smooth="no" name="13" />
   <point x="144" y="502" type="line" smooth="no" name="13" />
   <point x="39" y="441" type="line" smooth="no" name="13" />
   <point x="80" y="391" type="line" smooth="no" name="13" />
   <point x="160" y="482" type="line" smooth="no" name="13" />
   <point x="187" y="367" type="line" smooth="no" name="13" />
   <point x="244" y="387" type="line" smooth="no" name="13" />
   <point x="184" y="492" type="line" smooth="no" name="13" />
   <point x="303" y="483" type="line" smooth="no" name="13" />
   <point x="298" y="542" type="line" smooth="no" name="13" />
   <point x="184" y="517" type="line" smooth="no" name="13" />
   <point x="233" y="626" type="line" smooth="no" name="13" />
   <point x="169" y="645" type="line" smooth="no" name="13" />
  </contour>
 </outline>
</glyph>
<glyph name="plus" format="1">
 <advance width="517" />
 <unicode hex="002b" />
 <outline>
  <contour>
   <point x="237" y="207" type="line" smooth="no" name="13" />
   <point x="237" y="0" type="line" smooth="no" name="13" />
   <point x="280" y="0" type="line" smooth="no" name="13" />
   <point x="280" y="207" type="line" smooth="no" name="13" />
   <point x="475" y="207" type="line" smooth="no" name="13" />
   <point x="475" y="247" type="line" smooth="no" name="13" />
   <point x="280" y="247" type="line" smooth="no" name="13" />
   <point x="280" y="454" type="line" smooth="no" name="13" />
   <point x="237" y="454" type="line" smooth="no" name="13" />
   <point x="237" y="247" type="line" smooth="no" name="13" />
   <point x="42" y="247" type="line" smooth="no" name="13" />
   <point x="42" y="207" type="line" smooth="no" name="13" />
  </contour>
 </outline>
</glyph>
<glyph name="comma" format="1">
 <advance width="196" />
 <unicode hex="002c" />
 <outline>
  <contour>
   <point x="72" y="-84" type="curve" smooth="no" name="13" />
   <point x="77" y="-97" type="line" smooth="no" name="13" />
   <point x="115" y="-72" type="offcurve" name="14" />
   <point x="133" y="-39" type="offcurve" name="14" />
   <point x="133" y="3" type="curve" smooth="yes" name="15" />
   <point x="133" y="32" type="offcurve" name="14" />
   <point x="119" y="69" type="offcurve" name="14" />
   <point x="85" y="69" type="curve" smooth="yes" name="15" />
   <point x="62" y="69" type="offcurve" name="14" />
   <point x="45" y="53" type="offcurve" name="14" />
   <point x="45" y="31" type="curve" smooth="yes" name="15" />
   <point x="45" y="9" type="offcurve" name="14" />
   <point x="62" y="-9" type="offcurve" name="14" />
   <point x="84" y="-9" type="curve" smooth="yes" name="15" />
   <point x="93" y="-9" type="offcurve" name="14" />
   <point x="97" y="-7" type="offcurve" name="14" />
   <point x="107" y="1" type="curve" smooth="no" name="13" />
   <point x="109" y="-8" type="offcurve" name="14" />
   <point x="109" y="-9" type="offcurve" name="14" />
   <point x="109" y="-14" type="curve" smooth="yes" name="15" />
   <point x="109" y="-36" type="offcurve" name="14" />
   <point x="94" y="-64" type="offcurve" name="14" />
  </contour>
 </outline>
</glyph>
<glyph name="hyphen" format="1">
 <advance width="261" />
 <unicode hex="002d" />
 <outline>
  <contour>
   <point x="236" y="220" type="line" smooth="no" name="13" />
   <point x="236" y="260" type="line" smooth="no" name="13" />
   <point x="25" y="260" type="line" smooth="no" name="13" />
   <point x="25" y="220" type="line" smooth="no" name="13" />
  </contour>
 </outline>
</glyph>
<glyph name="period" format="1">
 <advance width="243" />
 <unicode hex="002e" />
 <outline>
  <contour>
   <point x="122" y="-8" type="curve" smooth="yes" name="15" />
   <point x="145" y="-8" type="offcurve" name="14" />
   <point x="157" y="4" type="offcurve" name="14" />
   <point x="157" y="28" type="curve" smooth="yes" name="15" />
   <point x="157" y="51" type="offcurve" name="14" />
   <point x="145" y="63" type="offcurve" name="14" />
   <point x="122" y="63" type="curve" smooth="yes" name="15" />
   <point x="100" y="63" type="offcurve" name="14" />
   <point x="87" y="51" type="offcurve" name="14" />
   <point x="87" y="28" type="curve" smooth="yes" name="15" />
   <point x="87" y="4" type="offcurve" name="14" />
   <point x="98" y="-7" type="offcurve" name="14" />
  </contour>
 </outline>
</glyph>
<glyph name="slash" format="1">
 <advance width="327" />
 <unicode hex="002f" />
 <outline>
  <contour>
   <point x="343" y="633" type="line" smooth="no" name="13" />
   <point x="294" y="633" type="line" smooth="no" name="13" />
   <point x="-25" y="-30" type="line" smooth="no" name="13" />
   <point x="25" y="-30" type="line" smooth="no" name="13" />
  </contour>
 </outline>
</glyph>
<glyph name="zero" format="1">
 <advance width="538" />
 <unicode hex="0030" />
 <outline>
  <contour>
   <point x="270" y="645" type="curve" smooth="yes" name="15" />
   <point x="133" y="645" type="offcurve" name="14" />
   <point x="48" y="500" type="offcurve" name="14" />
   <point x="48" y="315" type="curve" smooth="yes" name="15" />
   <point x="48" y="121" type="offcurve" name="14" />
   <point x="130" y="-12" type="offcurve" name="14" />
   <point x="270" y="-12" type="curve" smooth="yes" name="15" />
   <point x="408" y="-12" type="offcurve" name="14" />
   <point x="490" y="121" type="offcurve" name="14" />
   <point x="490" y="315" type="curve" smooth="yes" name="15" />
   <point x="490" y="500" type="offcurve" name="14" />
   <point x="405" y="645" type="offcurve" name="14" />
  </contour>
  <contour>
   <point x="268" y="596" type="curve" smooth="yes" name="15" />
   <point x="370" y="596" type="offcurve" name="14" />
   <point x="430" y="487" type="offcurve" name="14" />
   <point x="430" y="321" type="curve" smooth="yes" name="15" />
   <point x="430" y="155" type="offcurve" name="14" />
   <point x="374" y="37" type="offcurve" name="14" />
   <point x="268" y="37" type="curve" smooth="yes" name="15" />
   <point x="162" y="37" type="offcurve" name="14" />
   <point x="108" y="155" type="offcurve" name="14" />
   <point x="108" y="321" type="curve" smooth="yes" name="15" />
   <point x="108" y="487" type="offcurve" name="14" />
   <point x="168" y="596" type="offcurve" name="14" />
  </contour>
 </outline>
</glyph>
<glyph name="one" format="1">
 <advance width="375" />
 <unicode hex="0031" />
 <outline>
  <contour>
   <point x="251" y="633" type="line" smooth="no" name="13" />
   <point x="196" y="633" type="line" smooth="no" name="13" />
   <point x="30" y="537" type="line" smooth="no" name="13" />
   <point x="59" y="501" type="line" smooth="no" name="13" />
   <point x="196" y="577" type="line" smooth="no" name="13" />
   <point x="196" y="0" type="line" smooth="no" name="13" />
   <point x="251" y="0" type="line" smooth="no" name="13" />
  </contour>
 </outline>
</glyph>
<glyph name="two" format="1">
 <advance width="480" />
 <unicode hex="0032" />
 <outline>
  <contour>
   <point x="50" y="0" type="line" smooth="no" name="13" />
   <point x="405" y="0" type="line" smooth="no" name="13" />
   <point x="405" y="49" type="line" smooth="no" name="13" />
   <point x="112" y="49" type="line" smooth="no" name="13" />
   <point x="248" y="196" type="line" smooth="yes" name="15" />
   <point x="353" y="310" type="offcurve" name="14" />
   <point x="415" y="384" type="offcurve" name="14" />
   <point x="415" y="471" type="curve" smooth="yes" name="15" />
   <point x="415" y="575" type="offcurve" name="14" />
   <point x="339" y="645" type="offcurve" name="14" />
   <point x="239" y="645" type="curve" smooth="yes" name="15" />
   <point x="174" y="645" type="offcurve" name="14" />
   <point x="124" y="631" type="offcurve" name="14" />
   <point x="65" y="588" type="curve" smooth="no" name="13" />
   <point x="89" y="556" type="line" smooth="no" name="13" />
   <point x="132" y="584" type="offcurve" name="14" />
   <point x="182" y="596" type="offcurve" name="14" />
   <point x="221" y="596" type="curve" smooth="yes" name="15" />
   <point x="312" y="596" type="offcurve" name="14" />
   <point x="355" y="539" type="offcurve" name="14" />
   <point x="355" y="471" type="curve" smooth="yes" name="15" />
   <point x="355" y="426" type="offcurve" name="14" />
   <point x="345" y="371" type="offcurve" name="14" />
   <point x="244" y="262" type="curve" smooth="yes" name="15" />
   <point x="50" y="51" type="line" smooth="no" name="13" />
  </contour>
 </outline>
</glyph>
<glyph name="three" format="1">
 <advance width="496" />
 <unicode hex="0033" />
 <outline>
  <contour>
   <point x="201" y="311" type="line" smooth="yes" name="15" />
   <point x="298" y="311" type="offcurve" name="14" />
   <point x="363" y="276" type="offcurve" name="14" />
   <point x="363" y="178" type="curve" smooth="yes" name="15" />
   <point x="363" y="85" type="offcurve" name="14" />
   <point x="290" y="37" type="offcurve" name="14" />
   <point x="210" y="37" type="curve" smooth="yes" name="15" />
   <point x="148" y="37" type="offcurve" name="14" />
   <point x="102" y="60" type="offcurve" name="14" />
   <point x="71" y="80" type="curve" smooth="no" name="13" />
   <point x="47" y="48" type="line" smooth="no" name="13" />
   <point x="84" y="20" type="offcurve" name="14" />
   <point x="132" y="-12" type="offcurve" name="14" />
   <point x="219" y="-12" type="curve" smooth="yes" name="15" />
   <point x="313" y="-12" type="offcurve" name="14" />
   <point x="423" y="44" type="offcurve" name="14" />
   <point x="423" y="177" type="curve" smooth="yes" name="15" />
   <point x="423" y="279" type="offcurve" name="14" />
   <point x="344" y="330" type="offcurve" name="14" />
   <point x="277" y="341" type="curve" smooth="no" name="13" />
   <point x="338" y="355" type="offcurve" name="14" />
   <point x="396" y="412" type="offcurve" name="14" />
   <point x="396" y="484" type="curve" smooth="yes" name="15" />
   <point x="396" y="587" type="offcurve" name="14" />
   <point x="310" y="645" type="offcurve" name="14" />
   <point x="218" y="645" type="curve" smooth="yes" name="15" />
   <point x="153" y="645" type="offcurve" name="14" />
   <point x="95" y="623" type="offcurve" name="14" />
   <point x="53" y="588" type="curve" smooth="no" name="13" />
   <point x="78" y="557" type="line" smooth="no" name="13" />
   <point x="123" y="584" type="offcurve" name="14" />
   <point x="163" y="596" type="offcurve" name="14" />
   <point x="205" y="596" type="curve" smooth="yes" name="15" />
   <point x="288" y="596" type="offcurve" name="14" />
   <point x="336" y="556" type="offcurve" name="14" />
   <point x="336" y="482" type="curve" smooth="yes" name="15" />
   <point x="336" y="393" type="offcurve" name="14" />
   <point x="260" y="361" type="offcurve" name="14" />
   <point x="201" y="361" type="curve" smooth="yes" name="15" />
   <point x="127" y="361" type="line" smooth="no" name="13" />
   <point x="127" y="311" type="line" smooth="no" name="13" />
  </contour>
 </outline>
</glyph>
<glyph name="four" format="1">
 <advance width="550" />
 <unicode hex="0034" />
 <outline>
  <contour>
   <point x="35" y="187" type="line" smooth="no" name="13" />
   <point x="35" y="139" type="line" smooth="no" name="13" />
   <point x="331" y="139" type="line" smooth="no" name="13" />
   <point x="331" y="0" type="line" smooth="no" name="13" />
   <point x="386" y="0" type="line" smooth="no" name="13" />
   <point x="386" y="139" type="line" smooth="no" name="13" />
   <point x="505" y="139" type="line" smooth="no" name="13" />
   <point x="505" y="188" type="line" smooth="no" name="13" />
   <point x="385" y="188" type="line" smooth="no" name="13" />
   <point x="385" y="633" type="line" smooth="no" name="13" />
   <point x="325" y="633" type="line" smooth="no" name="13" />
  </contour>
  <contour>
   <point x="95" y="188" type="line" smooth="no" name="13" />
   <point x="331" y="552" type="line" smooth="no" name="13" />
   <point x="331" y="188" type="line" smooth="no" name="13" />
  </contour>
 </outline>
</glyph>
<glyph name="five" format="1">
 <advance width="526" />
 <unicode hex="0035" />
 <outline>
  <contour>
   <point x="409" y="584" type="line" smooth="no" name="13" />
   <point x="409" y="633" type="line" smooth="no" name="13" />
   <point x="105" y="633" type="line" smooth="no" name="13" />
   <point x="105" y="337" type="line" smooth="no" name="13" />
   <point x="111" y="338" type="offcurve" name="14" />
   <point x="117" y="339" type="offcurve" name="14" />
   <point x="122" y="340" type="curve" smooth="yes" name="15" />
   <point x="156" y="346" type="offcurve" name="14" />
   <point x="185" y="351" type="offcurve" name="14" />
   <point x="220" y="351" type="curve" smooth="yes" name="15" />
   <point x="325" y="351" type="offcurve" name="14" />
   <point x="393" y="295" type="offcurve" name="14" />
   <point x="393" y="192" type="curve" smooth="yes" name="15" />
   <point x="393" y="89" type="offcurve" name="14" />
   <point x="328" y="37" type="offcurve" name="14" />
   <point x="232" y="37" type="curve" smooth="yes" name="15" />
   <point x="184" y="37" type="offcurve" name="14" />
   <point x="136" y="48" type="offcurve" name="14" />
   <point x="93" y="76" type="curve" smooth="no" name="13" />
   <point x="73" y="46" type="line" smooth="no" name="13" />
   <point x="128" y="2" type="offcurve" name="14" />
   <point x="191" y="-12" type="offcurve" name="14" />
   <point x="249" y="-12" type="curve" smooth="yes" name="15" />
   <point x="354" y="-12" type="offcurve" name="14" />
   <point x="453" y="65" type="offcurve" name="14" />
   <point x="453" y="191" type="curve" smooth="yes" name="15" />
   <point x="453" y="329" type="offcurve" name="14" />
   <point x="359" y="395" type="offcurve" name="14" />
   <point x="242" y="395" type="curve" smooth="yes" name="15" />
   <point x="216" y="395" type="offcurve" name="14" />
   <point x="178" y="392" type="offcurve" name="14" />
   <point x="160" y="389" type="curve" smooth="no" name="13" />
   <point x="160" y="584" type="line" smooth="no" name="13" />
  </contour>
 </outline>
</glyph>
<glyph name="six" format="1">
 <advance width="534" />
 <unicode hex="0036" />
 <outline>
  <contour>
   <point x="132" y="347" type="curve" smooth="no" name="13" />
   <point x="142" y="524" type="offcurve" name="14" />
   <point x="225" y="596" type="offcurve" name="14" />
   <point x="304" y="596" type="curve" smooth="yes" name="15" />
   <point x="352" y="596" type="offcurve" name="14" />
   <point x="389" y="583" type="offcurve" name="14" />
   <point x="417" y="569" type="curve" smooth="no" name="13" />
   <point x="437" y="598" type="line" smooth="no" name="13" />
   <point x="405" y="622" type="offcurve" name="14" />
   <point x="356" y="645" type="offcurve" name="14" />
   <point x="300" y="645" type="curve" smooth="yes" name="15" />
   <point x="171" y="645" type="offcurve" name="14" />
   <point x="73" y="503" type="offcurve" name="14" />
   <point x="73" y="296" type="curve" smooth="yes" name="15" />
   <point x="73" y="127" type="offcurve" name="14" />
   <point x="141" y="-12" type="offcurve" name="14" />
   <point x="274" y="-12" type="curve" smooth="yes" name="15" />
   <point x="388" y="-12" type="offcurve" name="14" />
   <point x="461" y="92" type="offcurve" name="14" />
   <point x="461" y="202" type="curve" smooth="yes" name="15" />
   <point x="461" y="361" type="offcurve" name="14" />
   <point x="358" y="411" type="offcurve" name="14" />
   <point x="274" y="411" type="curve" smooth="yes" name="15" />
   <point x="211" y="411" type="offcurve" name="14" />
   <point x="165" y="380" type="offcurve" name="14" />
  </contour>
  <contour>
   <point x="130" y="285" type="curve" smooth="no" name="13" />
   <point x="149" y="318" type="offcurve" name="14" />
   <point x="198" y="367" type="offcurve" name="14" />
   <point x="263" y="367" type="curve" smooth="yes" name="15" />
   <point x="338" y="367" type="offcurve" name="14" />
   <point x="401" y="318" type="offcurve" name="14" />
   <point x="401" y="202" type="curve" smooth="yes" name="15" />
   <point x="401" y="99" type="offcurve" name="14" />
   <point x="352" y="37" type="offcurve" name="14" />
   <point x="274" y="37" type="curve" smooth="yes" name="15" />
   <point x="189" y="37" type="offcurve" name="14" />
   <point x="131" y="131" type="offcurve" name="14" />
  </contour>
 </outline>
</glyph>
<glyph name="seven" format="1">
 <advance width="414" />
 <unicode hex="0037" />
 <outline>
  <contour>
   <point x="326" y="584" type="line" smooth="no" name="13" />
   <point x="72" y="0" type="line" smooth="no" name="13" />
   <point x="130" y="0" type="line" smooth="no" name="13" />
   <point x="379" y="578" type="line" smooth="no" name="13" />
   <point x="379" y="633" type="line" smooth="no" name="13" />
   <point x="42" y="633" type="line" smooth="no" name="13" />
   <point x="42" y="584" type="line" smooth="no" name="13" />
  </contour>
 </outline>
</glyph>
<glyph name="eight" format="1">
 <advance width="547" />
 <unicode hex="0038" />
 <outline>
  <contour>
   <point x="338" y="342" type="curve" smooth="no" name="13" />
   <point x="392" y="363" type="offcurve" name="14" />
   <point x="450" y="410" type="offcurve" name="14" />
   <point x="450" y="487" type="curve" smooth="yes" name="15" />
   <point x="450" y="575" type="offcurve" name="14" />
   <point x="381" y="648" type="offcurve" name="14" />
   <point x="272" y="648" type="curve" smooth="yes" name="15" />
   <point x="157" y="648" type="offcurve" name="14" />
   <point x="92" y="573" type="offcurve" name="14" />
   <point x="92" y="490" type="curve" smooth="yes" name="15" />
   <point x="92" y="395" type="offcurve" name="14" />
   <point x="181" y="356" type="offcurve" name="14" />
   <point x="206" y="344" type="curve" smooth="no" name="13" />
   <point x="148" y="327" type="offcurve" name="14" />
   <point x="73" y="274" type="offcurve" name="14" />
   <point x="73" y="174" type="curve" smooth="yes" name="15" />
   <point x="73" y="70" type="offcurve" name="14" />
   <point x="158" y="-12" type="offcurve" name="14" />
   <point x="269" y="-12" type="curve" smooth="yes" name="15" />
   <point x="382" y="-12" type="offcurve" name="14" />
   <point x="469" y="70" type="offcurve" name="14" />
   <point x="469" y="175" type="curve" smooth="yes" name="15" />
   <point x="469" y="274" type="offcurve" name="14" />
   <point x="393" y="326" type="offcurve" name="14" />
  </contour>
  <contour>
   <point x="271" y="358" type="curve" smooth="no" name="13" />
   <point x="213" y="374" type="offcurve" name="14" />
   <point x="152" y="414" type="offcurve" name="14" />
   <point x="152" y="495" type="curve" smooth="yes" name="15" />
   <point x="152" y="553" type="offcurve" name="14" />
   <point x="199" y="596" type="offcurve" name="14" />
   <point x="270" y="596" type="curve" smooth="yes" name="15" />
   <point x="341" y="596" type="offcurve" name="14" />
   <point x="391" y="557" type="offcurve" name="14" />
   <point x="391" y="489" type="curve" smooth="yes" name="15" />
   <point x="391" y="430" type="offcurve" name="14" />
   <point x="345" y="374" type="offcurve" name="14" />
  </contour>
  <contour>
   <point x="266" y="326" type="curve" smooth="no" name="13" />
   <point x="331" y="318" type="offcurve" name="14" />
   <point x="409" y="268" type="offcurve" name="14" />
   <point x="409" y="175" type="curve" smooth="yes" name="15" />
   <point x="409" y="103" type="offcurve" name="14" />
   <point x="358" y="37" type="offcurve" name="14" />
   <point x="269" y="37" type="curve" smooth="yes" name="15" />
   <point x="187" y="37" type="offcurve" name="14" />
   <point x="133" y="103" type="offcurve" name="14" />
   <point x="133" y="177" type="curve" smooth="yes" name="15" />
   <point x="133" y="270" type="offcurve" name="14" />
   <point x="213" y="318" type="offcurve" name="14" />
  </contour>
 </outline>
</glyph>
<glyph name="nine" format="1">
 <advance width="534" />
 <unicode hex="0039" />
 <outline>
  <contour>
   <point x="402" y="286" type="curve" smooth="no" name="13" />
   <point x="392" y="109" type="offcurve" name="14" />
   <point x="309" y="37" type="offcurve" name="14" />
   <point x="230" y="37" type="curve" smooth="yes" name="15" />
   <point x="182" y="37" type="offcurve" name="14" />
   <point x="145" y="50" type="offcurve" name="14" />
   <point x="117" y="64" type="curve" smooth="no" name="13" />
   <point x="97" y="35" type="line" smooth="no" name="13" />
   <point x="129" y="11" type="offcurve" name="14" />
   <point x="178" y="-12" type="offcurve" name="14" />
   <point x="234" y="-12" type="curve" smooth="yes" name="15" />
   <point x="363" y="-12" type="offcurve" name="14" />
   <point x="461" y="130" type="offcurve" name="14" />
   <point x="461" y="337" type="curve" smooth="yes" name="15" />
   <point x="461" y="506" type="offcurve" name="14" />
   <point x="393" y="645" type="offcurve" name="14" />
   <point x="260" y="645" type="curve" smooth="yes" name="15" />
   <point x="146" y="645" type="offcurve" name="14" />
   <point x="73" y="541" type="offcurve" name="14" />
   <point x="73" y="431" type="curve" smooth="yes" name="15" />
   <point x="73" y="272" type="offcurve" name="14" />
   <point x="176" y="222" type="offcurve" name="14" />
   <point x="260" y="222" type="curve" smooth="yes" name="15" />
   <point x="323" y="222" type="offcurve" name="14" />
   <point x="369" y="253" type="offcurve" name="14" />
  </contour>
  <contour>
   <point x="404" y="348" type="curve" smooth="no" name="13" />
   <point x="385" y="315" type="offcurve" name="14" />
   <point x="336" y="266" type="offcurve" name="14" />
   <point x="271" y="266" type="curve" smooth="yes" name="15" />
   <point x="196" y="266" type="offcurve" name="14" />
   <point x="133" y="315" type="offcurve" name="14" />
   <point x="133" y="431" type="curve" smooth="yes" name="15" />
   <point x="133" y="534" type="offcurve" name="14" />
   <point x="182" y="596" type="offcurve" name="14" />
   <point x="260" y="596" type="curve" smooth="yes" name="15" />
   <point x="345" y="596" type="offcurve" name="14" />
   <point x="403" y="502" type="offcurve" name="14" />
  </contour>
 </outline>
</glyph>
<glyph name="colon" format="1">
 <advance width="203" />
 <unicode hex="003a" />
 <outline>
  <contour>
   <point x="122" y="232" type="curve" smooth="yes" name="15" />
   <point x="145" y="232" type="offcurve" name="14" />
   <point x="157" y="244" type="offcurve" name="14" />
   <point x="157" y="268" type="curve" smooth="yes" name="15" />
   <point x="157" y="291" type="offcurve" name="14" />
   <point x="145" y="303" type="offcurve" name="14" />
   <point x="122" y="303" type="curve" smooth="yes" name="15" />
   <point x="100" y="303" type="offcurve" name="14" />
   <point x="87" y="291" type="offcurve" name="14" />
   <point x="87" y="268" type="curve" smooth="yes" name="15" />
   <point x="87" y="244" type="offcurve" name="14" />
   <point x="98" y="233" type="offcurve" name="14" />
  </contour>
  <contour>
   <point x="122" y="-8" type="curve" smooth="yes" name="15" />
   <point x="145" y="-8" type="offcurve" name="14" />
   <point x="157" y="4" type="offcurve" name="14" />
   <point x="157" y="28" type="curve" smooth="yes" name="15" />
   <point x="157" y="51" type="offcurve" name="14" />
   <point x="145" y="63" type="offcurve" name="14" />
   <point x="122" y="63" type="curve" smooth="yes" name="15" />
   <point x="100" y="63" type="offcurve" name="14" />
   <point x="87" y="51" type="offcurve" name="14" />
   <point x="87" y="28" type="curve" smooth="yes" name="15" />
   <point x="87" y="4" type="offcurve" name="14" />
   <point x="98" y="-7" type="offcurve" name="14" />
  </contour>
 </outline>
</glyph>
<glyph name="semicolon" format="1">
 <advance width="175" />
 <unicode hex="003b" />
 <outline>
  <contour>
   <point x="71" y="-84" type="curve" smooth="no" name="13" />
   <point x="76" y="-97" type="line" smooth="no" name="13" />
   <point x="114" y="-72" type="offcurve" name="14" />
   <point x="132" y="-39" type="offcurve" name="14" />
   <point x="132" y="3" type="curve" smooth="yes" name="15" />
   <point x="132" y="32" type="offcurve" name="14" />
   <point x="118" y="69" type="offcurve" name="14" />
   <point x="84" y="69" type="curve" smooth="yes" name="15" />
   <point x="61" y="69" type="offcurve" name="14" />
   <point x="44" y="53" type="offcurve" name="14" />
   <point x="44" y="31" type="curve" smooth="yes" name="15" />
   <point x="44" y="9" type="offcurve" name="14" />
   <point x="61" y="-9" type="offcurve" name="14" />
   <point x="83" y="-9" type="curve" smooth="yes" name="15" />
   <point x="92" y="-9" type="offcurve" name="14" />
   <point x="96" y="-7" type="offcurve" name="14" />
   <point x="106" y="1" type="curve" smooth="no" name="13" />
   <point x="108" y="-8" type="offcurve" name="14" />
   <point x="108" y="-9" type="offcurve" name="14" />
   <point x="108" y="-14" type="curve" smooth="yes" name="15" />
   <point x="108" y="-36" type="offcurve" name="14" />
   <point x="93" y="-64" type="offcurve" name="14" />
  </contour>
  <contour>
   <point x="42" y="269" type="curve" smooth="no" name="13" />
   <point x="43" y="246" type="offcurve" name="14" />
   <point x="59" y="230" type="offcurve" name="14" />
   <point x="81" y="230" type="curve" smooth="yes" name="15" />
   <point x="102" y="230" type="offcurve" name="14" />
   <point x="119" y="248" type="offcurve" name="14" />
   <point x="119" y="269" type="curve" smooth="yes" name="15" />
   <point x="119" y="290" type="offcurve" name="14" />
   <point x="102" y="307" type="offcurve" name="14" />
   <point x="81" y="307" type="curve" smooth="yes" name="15" />
   <point x="59" y="307" type="offcurve" name="14" />
   <point x="44" y="292" type="offcurve" name="14" />
  </contour>
 </outline>
</glyph>
<glyph name="less" format="1">
 <advance width="517" />
 <unicode hex="003c" />
 <outline>
  <contour>
   <point x="456" y="-12" type="line" smooth="no" name="13" />
   <point x="456" y="34" type="line" smooth="no" name="13" />
   <point x="81" y="241" type="line" smooth="no" name="13" />
   <point x="456" y="429" type="line" smooth="no" name="13" />
   <point x="456" y="476" type="line" smooth="no" name="13" />
   <point x="42" y="268" type="line" smooth="no" name="13" />
   <point x="42" y="214" type="line" smooth="no" name="13" />
  </contour>
 </outline>
</glyph>
<glyph name="equal" format="1">
 <advance width="499" />
 <unicode hex="003d" />
 <outline>
  <contour>
   <point x="457" y="282" type="line" smooth="no" name="13" />
   <point x="457" y="322" type="line" smooth="no" name="13" />
   <point x="42" y="322" type="line" smooth="no" name="13" />
   <point x="42" y="282" type="line" smooth="no" name="13" />
  </contour>
  <contour>
   <point x="457" y="132" type="line" smooth="no" name="13" />
   <point x="457" y="172" type="line" smooth="no" name="13" />
   <point x="42" y="172" type="line" smooth="no" name="13" />
   <point x="42" y="132" type="line" smooth="no" name="13" />
  </contour>
 </outline>
</glyph>
<glyph name="greater" format="1">
 <advance width="517" />
 <unicode hex="003e" />
 <outline>
  <contour>
   <point x="475" y="213" type="line" smooth="no" name="13" />
   <point x="475" y="267" type="line" smooth="no" name="13" />
   <point x="61" y="475" type="line" smooth="no" name="13" />
   <point x="61" y="428" type="line" smooth="no" name="13" />
   <point x="436" y="240" type="line" smooth="no" name="13" />
   <point x="61" y="33" type="line" smooth="no" name="13" />
   <point x="61" y="-13" type="line" smooth="no" name="13" />
  </contour>
 </outline>
</glyph>
<glyph name="question" format="1">
 <advance width="368" />
 <unicode hex="003f" />
 <outline>
  <contour>
   <point x="167" y="149" type="line" smooth="no" name="13" />
   <point x="167" y="219" type="line" smooth="yes" name="15" />
   <point x="167" y="272" type="offcurve" name="14" />
   <point x="184" y="286" type="offcurve" name="14" />
   <point x="221" y="316" type="curve" smooth="yes" name="15" />
   <point x="227" y="321" type="offcurve" name="14" />
   <point x="233" y="326" type="offcurve" name="14" />
   <point x="239" y="331" type="curve" smooth="yes" name="15" />
   <point x="281" y="367" type="offcurve" name="14" />
   <point x="326" y="424" type="offcurve" name="14" />
   <point x="326" y="496" type="curve" smooth="yes" name="15" />
   <point x="326" y="582" type="offcurve" name="14" />
   <point x="271" y="645" type="offcurve" name="14" />
   <point x="178" y="645" type="curve" smooth="yes" name="15" />
   <point x="132" y="645" type="offcurve" name="14" />
   <point x="85" y="631" type="offcurve" name="14" />
   <point x="42" y="600" type="curve" smooth="no" name="13" />
   <point x="57" y="570" type="line" smooth="no" name="13" />
   <point x="89" y="587" type="offcurve" name="14" />
   <point x="135" y="596" type="offcurve" name="14" />
   <point x="166" y="596" type="curve" smooth="yes" name="15" />
   <point x="225" y="596" type="offcurve" name="14" />
   <point x="273" y="562" type="offcurve" name="14" />
   <point x="273" y="487" type="curve" smooth="yes" name="15" />
   <point x="273" y="439" type="offcurve" name="14" />
   <point x="253" y="397" type="offcurve" name="14" />
   <point x="178" y="336" type="curve" smooth="yes" name="15" />
   <point x="130" y="297" type="offcurve" name="14" />
   <point x="118" y="285" type="offcurve" name="14" />
   <point x="118" y="227" type="curve" smooth="yes" name="15" />
   <point x="118" y="149" type="line" smooth="no" name="13" />
  </contour>
  <contour>
   <point x="100" y="30" type="curve" smooth="yes" name="15" />
   <point x="100" y="7" type="offcurve" name="14" />
   <point x="119" y="-12" type="offcurve" name="14" />
   <point x="142" y="-12" type="curve" smooth="yes" name="15" />
   <point x="165" y="-12" type="offcurve" name="14" />
   <point x="184" y="7" type="offcurve" name="14" />
   <point x="184" y="30" type="curve" smooth="yes" name="15" />
   <point x="184" y="53" type="offcurve" name="14" />
   <point x="165" y="72" type="offcurve" name="14" />
   <point x="142" y="72" type="curve" smooth="yes" name="15" />
   <point x="119" y="72" type="offcurve" name="14" />
   <point x="100" y="53" type="offcurve" name="14" />
  </contour>
 </outline>
</glyph>
<glyph name="at" format="1">
 <advance width="692" />
 <unicode hex="0040" />
 <outline>
  <contour>
   <point x="464" y="103" type="curve" smooth="yes" name="15" />
   <point x="464" y="287" type="line" smooth="no" name="13" />
   <point x="437" y="287" type="line" smooth="no" name="13" />
   <point x="435" y="281" type="offcurve" name="14" />
   <point x="432" y="274" type="offcurve" name="14" />
   <point x="430" y="268" type="curve" smooth="no" name="13" />
   <point x="429" y="263" type="offcurve" name="14" />
   <point x="427" y="258" type="offcurve" name="14" />
   <point x="426" y="256" type="curve" smooth="no" name="13" />
   <point x="401" y="274" type="offcurve" name="14" />
   <point x="370" y="286" type="offcurve" name="14" />
   <point x="337" y="286" type="curve" smooth="yes" name="15" />
   <point x="265" y="286" type="offcurve" name="14" />
   <point x="208" y="228" type="offcurve" name="14" />
   <point x="208" y="130" type="curve" smooth="yes" name="15" />
   <point x="208" y="52" type="offcurve" name="14" />
   <point x="251" y="-12" type="offcurve" name="14" />
   <point x="330" y="-12" type="curve" smooth="yes" name="15" />
   <point x="369" y="-12" type="offcurve" name="14" />
   <point x="416" y="11" type="offcurve" name="14" />
   <point x="434" y="50" type="curve" smooth="no" name="13" />
   <point x="445" y="14" type="offcurve" name="14" />
   <point x="478" y="-12" type="offcurve" name="14" />
   <point x="516" y="-12" type="curve" smooth="yes" name="15" />
   <point x="617" y="-12" type="offcurve" name="14" />
   <point x="644" y="106" type="offcurve" name="14" />
   <point x="644" y="173" type="curve" smooth="yes" name="15" />
   <point x="644" y="361" type="offcurve" name="14" />
   <point x="505" y="466" type="offcurve" name="14" />
   <point x="357" y="466" type="curve" smooth="yes" name="15" />
   <point x="188" y="466" type="offcurve" name="14" />
   <point x="48" y="345" type="offcurve" name="14" />
   <point x="48" y="139" type="curve" smooth="yes" name="15" />
   <point x="48" y="-73" type="offcurve" name="14" />
   <point x="206" y="-174" type="offcurve" name="14" />
   <point x="360" y="-174" type="curve" smooth="yes" name="15" />
   <point x="374" y="-174" type="offcurve" name="14" />
   <point x="387" y="-174" type="offcurve" name="14" />
   <point x="400" y="-172" type="curve" smooth="no" name="13" />
   <point x="400" y="-137" type="line" smooth="no" name="13" />
   <point x="388" y="-139" type="offcurve" name="14" />
   <point x="375" y="-139" type="offcurve" name="14" />
   <point x="362" y="-139" type="curve" smooth="yes" name="15" />
   <point x="238" y="-139" type="offcurve" name="14" />
   <point x="90" y="-62" type="offcurve" name="14" />
   <point x="90" y="142" type="curve" smooth="yes" name="15" />
   <point x="90" y="330" type="offcurve" name="14" />
   <point x="215" y="428" type="offcurve" name="14" />
   <point x="357" y="428" type="curve" smooth="yes" name="15" />
   <point x="471" y="428" type="offcurve" name="14" />
   <point x="602" y="353" type="offcurve" name="14" />
   <point x="602" y="173" type="curve" smooth="yes" name="15" />
   <point x="602" y="78" type="offcurve" name="14" />
   <point x="570" y="22" type="offcurve" name="14" />
   <point x="524" y="22" type="curve" smooth="yes" name="15" />
   <point x="489" y="22" type="offcurve" name="14" />
   <point x="464" y="37" type="offcurve" name="14" />
  </contour>
  <contour>
   <point x="426" y="218" type="curve" smooth="no" name="13" />
   <point x="426" y="143" type="line" smooth="yes" name="15" />
   <point x="426" y="66" type="offcurve" name="14" />
   <point x="394" y="25" type="offcurve" name="14" />
   <point x="338" y="25" type="curve" smooth="yes" name="15" />
   <point x="280" y="25" type="offcurve" name="14" />
   <point x="251" y="66" type="offcurve" name="14" />
   <point x="251" y="136" type="curve" smooth="yes" name="15" />
   <point x="251" y="218" type="offcurve" name="14" />
   <point x="293" y="249" type="offcurve" name="14" />
   <point x="342" y="249" type="curve" smooth="yes" name="15" />
   <point x="359" y="249" type="offcurve" name="14" />
   <point x="398" y="242" type="offcurve" name="14" />
  </contour>
 </outline>
</glyph>
<glyph name="A" format="1">
 <advance width="545" />
 <unicode hex="0041" />
 <outline>
  <contour>
   <point x="240" y="633" type="line" smooth="no" name="13" />
   <point x="15" y="0" type="line" smooth="no" name="13" />
   <point x="74" y="0" type="line" smooth="no" name="13" />
   <point x="128" y="152" type="line" smooth="no" name="13" />
   <point x="419" y="152" type="line" smooth="no" name="13" />
   <point x="474" y="0" type="line" smooth="no" name="13" />
   <point x="530" y="0" type="line" smooth="no" name="13" />
   <point x="306" y="633" type="line" smooth="no" name="13" />
  </contour>
  <contour>
   <point x="272" y="578" type="line" smooth="no" name="13" />
   <point x="403" y="199" type="line" smooth="no" name="13" />
   <point x="142" y="199" type="line" smooth="no" name="13" />
  </contour>
 </outline>
</glyph>
<glyph name="B" format="1">
 <advance width="523" />
 <unicode hex="0042" />
 <outline>
  <contour>
   <point x="90" y="0" type="line" smooth="no" name="13" />
   <point x="131" y="-5" type="offcurve" name="14" />
   <point x="188" y="-12" type="offcurve" name="14" />
   <point x="246" y="-12" type="curve" smooth="yes" name="15" />
   <point x="386" y="-12" type="offcurve" name="14" />
   <point x="473" y="48" type="offcurve" name="14" />
   <point x="473" y="164" type="curve" smooth="yes" name="15" />
   <point x="473" y="269" type="offcurve" name="14" />
   <point x="414" y="324" type="offcurve" name="14" />
   <point x="345" y="337" type="curve" smooth="no" name="13" />
   <point x="345" y="338" type="line" smooth="no" name="13" />
   <point x="391" y="353" type="offcurve" name="14" />
   <point x="452" y="389" type="offcurve" name="14" />
   <point x="452" y="477" type="curve" smooth="yes" name="15" />
   <point x="452" y="574" type="offcurve" name="14" />
   <point x="393" y="645" type="offcurve" name="14" />
   <point x="246" y="645" type="curve" smooth="yes" name="15" />
   <point x="186" y="645" type="offcurve" name="14" />
   <point x="115" y="637" type="offcurve" name="14" />
   <point x="90" y="633" type="curve" smooth="no" name="13" />
  </contour>
  <contour>
   <point x="145" y="594" type="line" smooth="no" name="13" />
   <point x="159" y="596" type="offcurve" name="14" />
   <point x="190" y="600" type="offcurve" name="14" />
   <point x="243" y="600" type="curve" smooth="yes" name="15" />
   <point x="357" y="600" type="offcurve" name="14" />
   <point x="391" y="540" type="offcurve" name="14" />
   <point x="391" y="473" type="curve" smooth="yes" name="15" />
   <point x="391" y="408" type="offcurve" name="14" />
   <point x="341" y="359" type="offcurve" name="14" />
   <point x="258" y="359" type="curve" smooth="yes" name="15" />
   <point x="145" y="359" type="line" smooth="no" name="13" />
  </contour>
  <contour>
   <point x="145" y="311" type="line" smooth="no" name="13" />
   <point x="261" y="311" type="line" smooth="yes" name="15" />
   <point x="358" y="311" type="offcurve" name="14" />
   <point x="412" y="255" type="offcurve" name="14" />
   <point x="412" y="165" type="curve" smooth="yes" name="15" />
   <point x="412" y="79" type="offcurve" name="14" />
   <point x="357" y="33" type="offcurve" name="14" />
   <point x="251" y="33" type="curve" smooth="yes" name="15" />
   <point x="204" y="33" type="offcurve" name="14" />
   <point x="180" y="35" type="offcurve" name="14" />
   <point x="145" y="39" type="curve" smooth="no" name="13" />
  </contour>
 </outline>
</glyph>
<glyph name="C" format="1">
 <advance width="544" />
 <unicode hex="0043" />
 <outline>
  <contour>
   <point x="494" y="51" type="curve" smooth="no" name="13" />
   <point x="471" y="84" type="line" smooth="no" name="13" />
   <point x="446" y="64" type="offcurve" name="14" />
   <point x="389" y="37" type="offcurve" name="14" />
   <point x="331" y="37" type="curve" smooth="yes" name="15" />
   <point x="207" y="37" type="offcurve" name="14" />
   <point x="110" y="131" type="offcurve" name="14" />
   <point x="110" y="310" type="curve" smooth="yes" name="15" />
   <point x="110" y="500" type="offcurve" name="14" />
   <point x="205" y="596" type="offcurve" name="14" />
   <point x="323" y="596" type="curve" smooth="yes" name="15" />
   <point x="385" y="596" type="offcurve" name="14" />
   <point x="427" y="578" type="offcurve" name="14" />
   <point x="462" y="557" type="curve" smooth="no" name="13" />
   <point x="486" y="588" type="line" smooth="no" name="13" />
   <point x="441" y="624" type="offcurve" name="14" />
   <point x="383" y="645" type="offcurve" name="14" />
   <point x="314" y="645" type="curve" smooth="yes" name="15" />
   <point x="146" y="645" type="offcurve" name="14" />
   <point x="50" y="484" type="offcurve" name="14" />
   <point x="50" y="310" type="curve" smooth="yes" name="15" />
   <point x="50" y="116" type="offcurve" name="14" />
   <point x="162" y="-12" type="offcurve" name="14" />
   <point x="323" y="-12" type="curve" smooth="yes" name="15" />
   <point x="395" y="-12" type="offcurve" name="14" />
   <point x="458" y="19" type="offcurve" name="14" />
  </contour>
 </outline>
</glyph>
<glyph name="D" format="1">
 <advance width="602" />
 <unicode hex="0044" />
 <outline>
  <contour>
   <point x="90" y="633" type="curve" smooth="no" name="13" />
   <point x="90" y="0" type="line" smooth="no" name="13" />
   <point x="129" y="-5" type="offcurve" name="14" />
   <point x="190" y="-12" type="offcurve" name="14" />
   <point x="239" y="-12" type="curve" smooth="yes" name="15" />
   <point x="442" y="-12" type="offcurve" name="14" />
   <point x="552" y="114" type="offcurve" name="14" />
   <point x="552" y="323" type="curve" smooth="yes" name="15" />
   <point x="552" y="522" type="offcurve" name="14" />
   <point x="435" y="645" type="offcurve" name="14" />
   <point x="234" y="645" type="curve" smooth="yes" name="15" />
   <point x="184" y="645" type="offcurve" name="14" />
   <point x="121" y="637" type="offcurve" name="14" />
  </contour>
  <contour>
   <point x="145" y="39" type="curve" smooth="no" name="13" />
   <point x="145" y="594" type="line" smooth="no" name="13" />
   <point x="160" y="597" type="offcurve" name="14" />
   <point x="200" y="600" type="offcurve" name="14" />
   <point x="236" y="600" type="curve" smooth="yes" name="15" />
   <point x="381" y="600" type="offcurve" name="14" />
   <point x="492" y="503" type="offcurve" name="14" />
   <point x="492" y="319" type="curve" smooth="yes" name="15" />
   <point x="492" y="128" type="offcurve" name="14" />
   <point x="392" y="33" type="offcurve" name="14" />
   <point x="238" y="33" type="curve" smooth="yes" name="15" />
   <point x="200" y="33" type="offcurve" name="14" />
   <point x="161" y="37" type="offcurve" name="14" />
  </contour>
 </outline>
</glyph>
<glyph name="E" format="1">
 <advance width="526" />
 <unicode hex="0045" />
 <outline>
  <contour>
   <point x="90" y="633" type="line" smooth="no" name="13" />
   <point x="90" y="0" type="line" smooth="no" name="13" />
   <point x="461" y="0" type="line" smooth="no" name="13" />
   <point x="461" y="49" type="line" smooth="no" name="13" />
   <point x="145" y="49" type="line" smooth="no" name="13" />
   <point x="145" y="305" type="line" smooth="no" name="13" />
   <point x="400" y="305" type="line" smooth="no" name="13" />
   <point x="400" y="354" type="line" smooth="no" name="13" />
   <point x="145" y="354" type="line" smooth="no" name="13" />
   <point x="145" y="584" type="line" smooth="no" name="13" />
   <point x="448" y="584" type="line" smooth="no" name="13" />
   <point x="448" y="633" type="line" smooth="no" name="13" />
  </contour>
 </outline>
</glyph>
<glyph name="F" format="1">
 <advance width="513" />
 <unicode hex="0046" />
 <outline>
  <contour>
   <point x="90" y="0" type="line" smooth="no" name="13" />
   <point x="145" y="0" type="line" smooth="no" name="13" />
   <point x="145" y="305" type="line" smooth="no" name="13" />
   <point x="400" y="305" type="line" smooth="no" name="13" />
   <point x="400" y="354" type="line" smooth="no" name="13" />
   <point x="145" y="354" type="line" smooth="no" name="13" />
   <point x="145" y="584" type="line" smooth="no" name="13" />
   <point x="448" y="584" type="line" smooth="no" name="13" />
   <point x="448" y="633" type="line" smooth="no" name="13" />
   <point x="90" y="633" type="line" smooth="no" name="13" />
  </contour>
 </outline>
</glyph>
<glyph name="G" format="1">
 <advance width="593" />
 <unicode hex="0047" />
 <outline>
  <contour>
   <point x="513" y="42" type="curve" smooth="no" name="13" />
   <point x="513" y="329" type="line" smooth="no" name="13" />
   <point x="344" y="329" type="line" smooth="no" name="13" />
   <point x="344" y="279" type="line" smooth="no" name="13" />
   <point x="458" y="279" type="line" smooth="no" name="13" />
   <point x="458" y="65" type="line" smooth="no" name="13" />
   <point x="425" y="49" type="offcurve" name="14" />
   <point x="378" y="37" type="offcurve" name="14" />
   <point x="327" y="37" type="curve" smooth="yes" name="15" />
   <point x="201" y="37" type="offcurve" name="14" />
   <point x="110" y="141" type="offcurve" name="14" />
   <point x="110" y="311" type="curve" smooth="yes" name="15" />
   <point x="110" y="498" type="offcurve" name="14" />
   <point x="204" y="596" type="offcurve" name="14" />
   <point x="323" y="596" type="curve" smooth="yes" name="15" />
   <point x="387" y="596" type="offcurve" name="14" />
   <point x="426" y="578" type="offcurve" name="14" />
   <point x="462" y="557" type="curve" smooth="no" name="13" />
   <point x="486" y="588" type="line" smooth="no" name="13" />
   <point x="430" y="633" type="offcurve" name="14" />
   <point x="366" y="645" type="offcurve" name="14" />
   <point x="315" y="645" type="curve" smooth="yes" name="15" />
   <point x="141" y="645" type="offcurve" name="14" />
   <point x="50" y="481" type="offcurve" name="14" />
   <point x="50" y="315" type="curve" smooth="yes" name="15" />
   <point x="50" y="150" type="offcurve" name="14" />
   <point x="133" y="-12" type="offcurve" name="14" />
   <point x="325" y="-12" type="curve" smooth="yes" name="15" />
   <point x="389" y="-12" type="offcurve" name="14" />
   <point x="460" y="9" type="offcurve" name="14" />
  </contour>
 </outline>
</glyph>
<glyph name="H" format="1">
 <advance width="628" />
 <unicode hex="0048" />
 <outline>
  <contour>
   <point x="145" y="0" type="line" smooth="no" name="13" />
   <point x="145" y="305" type="line" smooth="no" name="13" />
   <point x="483" y="305" type="line" smooth="no" name="13" />
   <point x="483" y="0" type="line" smooth="no" name="13" />
   <point x="538" y="0" type="line" smooth="no" name="13" />
   <point x="538" y="633" type="line" smooth="no" name="13" />
   <point x="483" y="633" type="line" smooth="no" name="13" />
   <point x="483" y="354" type="line" smooth="no" name="13" />
   <point x="145" y="354" type="line" smooth="no" name="13" />
   <point x="145" y="633" type="line" smooth="no" name="13" />
   <point x="90" y="633" type="line" smooth="no" name="13" />
   <point x="90" y="0" type="line" smooth="no" name="13" />
  </contour>
 </outline>
</glyph>
<glyph name="I" format="1">
 <advance width="235" />
 <unicode hex="0049" />
 <outline>
  <contour>
   <point x="145" y="633" type="line" smooth="no" name="13" />
   <point x="90" y="633" type="line" smooth="no" name="13" />
   <point x="90" y="0" type="line" smooth="no" name="13" />
   <point x="145" y="0" type="line" smooth="no" name="13" />
  </contour>
 </outline>
</glyph>
<glyph name="J" format="1">
 <advance width="220" />
 <unicode hex="004a" />
 <outline>
  <contour>
   <point x="130" y="633" type="line" smooth="no" name="13" />
   <point x="75" y="633" type="line" smooth="no" name="13" />
   <point x="75" y="-34" type="line" smooth="yes" name="15" />
   <point x="75" y="-107" type="offcurve" name="14" />
   <point x="39" y="-123" type="offcurve" name="14" />
   <point x="4" y="-123" type="curve" smooth="yes" name="15" />
   <point x="-18" y="-123" type="offcurve" name="14" />
   <point x="-45" y="-116" type="offcurve" name="14" />
   <point x="-66" y="-105" type="curve" smooth="no" name="13" />
   <point x="-85" y="-134" type="line" smooth="no" name="13" />
   <point x="-56" y="-152" type="offcurve" name="14" />
   <point x="-16" y="-168" type="offcurve" name="14" />
   <point x="22" y="-168" type="curve" smooth="yes" name="15" />
   <point x="91" y="-168" type="offcurve" name="14" />
   <point x="130" y="-120" type="offcurve" name="14" />
   <point x="130" y="-41" type="curve" smooth="yes" name="15" />
  </contour>
 </outline>
</glyph>
<glyph name="K" format="1">
 <advance width="484" />
 <unicode hex="004b" />
 <outline>
  <contour>
   <point x="145" y="633" type="line" smooth="no" name="13" />
   <point x="90" y="633" type="line" smooth="no" name="13" />
   <point x="90" y="0" type="line" smooth="no" name="13" />
   <point x="145" y="0" type="line" smooth="no" name="13" />
   <point x="145" y="320" type="line" smooth="no" name="13" />
   <point x="387" y="0" type="line" smooth="no" name="13" />
   <point x="456" y="0" type="line" smooth="no" name="13" />
   <point x="198" y="334" type="line" smooth="no" name="13" />
   <point x="459" y="633" type="line" smooth="no" name="13" />
   <point x="393" y="633" type="line" smooth="no" name="13" />
   <point x="145" y="347" type="line" smooth="no" name="13" />
  </contour>
 </outline>
</glyph>
<glyph name="M" format="1">
 <advance width="744" />
 <unicode hex="004d" />
 <outline>
  <contour>
   <point x="372" y="50" type="curve" smooth="no" name="13" />
   <point x="355" y="95" type="offcurve" name="14" />
   <point x="335" y="151" type="offcurve" name="14" />
   <point x="312" y="212" type="curve" smooth="yes" name="15" />
   <point x="264" y="344" type="offcurve" name="14" />
   <point x="206" y="501" type="offcurve" name="14" />
   <point x="155" y="633" type="curve" smooth="no" name="13" />
   <point x="90" y="633" type="line" smooth="no" name="13" />
   <point x="90" y="0" type="line" smooth="no" name="13" />
   <point x="145" y="0" type="line" smooth="no" name="13" />
   <point x="145" y="531" type="line" smooth="no" name="13" />
   <point x="186" y="413" type="offcurve" name="14" />
   <point x="287" y="141" type="offcurve" name="14" />
   <point x="342" y="0" type="curve" smooth="no" name="13" />
   <point x="402" y="0" type="line" smooth="no" name="13" />
   <point x="457" y="141" type="offcurve" name="14" />
   <point x="558" y="413" type="offcurve" name="14" />
   <point x="599" y="531" type="curve" smooth="no" name="13" />
   <point x="599" y="0" type="line" smooth="no" name="13" />
   <point x="654" y="0" type="line" smooth="no" name="13" />
   <point x="654" y="633" type="line" smooth="no" name="13" />
   <point x="592" y="633" type="line" smooth="no" name="13" />
   <point x="533" y="487" type="offcurve" name="14" />
   <point x="468" y="311" type="offcurve" name="14" />
   <point x="417" y="172" type="curve" smooth="yes" name="15" />
   <point x="400" y="126" type="offcurve" name="14" />
   <point x="385" y="85" type="offcurve" name="14" />
  </contour>
 </outline>
</glyph>
<glyph name="N" format="1">
 <advance width="600" />
 <unicode hex="004e" />
 <outline>
  <contour>
   <point x="145" y="532" type="line" smooth="no" name="13" />
   <point x="204" y="429" type="offcurve" name="14" />
   <point x="396" y="99" type="offcurve" name="14" />
   <point x="456" y="0" type="curve" smooth="no" name="13" />
   <point x="510" y="0" type="line" smooth="no" name="13" />
   <point x="510" y="633" type="line" smooth="no" name="13" />
   <point x="455" y="633" type="line" smooth="no" name="13" />
   <point x="455" y="91" type="line" smooth="no" name="13" />
   <point x="422" y="151" type="offcurve" name="14" />
   <point x="178" y="575" type="offcurve" name="14" />
   <point x="143" y="633" type="curve" smooth="no" name="13" />
   <point x="90" y="633" type="line" smooth="no" name="13" />
   <point x="90" y="0" type="line" smooth="no" name="13" />
   <point x="145" y="0" type="line" smooth="no" name="13" />
  </contour>
 </outline>
</glyph>
<glyph name="P" format="1">
 <advance width="504" />
 <unicode hex="0050" />
 <outline>
  <contour>
   <point x="90" y="0" type="line" smooth="no" name="13" />
   <point x="145" y="0" type="line" smooth="no" name="13" />
   <point x="145" y="272" type="line" smooth="no" name="13" />
   <point x="173" y="269" type="offcurve" name="14" />
   <point x="209" y="267" type="offcurve" name="14" />
   <point x="237" y="267" type="curve" smooth="yes" name="15" />
   <point x="394" y="267" type="offcurve" name="14" />
   <point x="454" y="354" type="offcurve" name="14" />
   <point x="454" y="454" type="curve" smooth="yes" name="15" />
   <point x="454" y="554" type="offcurve" name="14" />
   <point x="402" y="645" type="offcurve" name="14" />
   <point x="236" y="645" type="curve" smooth="yes" name="15" />
   <point x="192" y="645" type="offcurve" name="14" />
   <point x="127" y="638" type="offcurve" name="14" />
   <point x="90" y="633" type="curve" smooth="no" name="13" />
  </contour>
  <contour>
   <point x="145" y="594" type="line" smooth="no" name="13" />
   <point x="170" y="598" type="offcurve" name="14" />
   <point x="204" y="600" type="offcurve" name="14" />
   <point x="230" y="600" type="curve" smooth="yes" name="15" />
   <point x="345" y="600" type="offcurve" name="14" />
   <point x="395" y="545" type="offcurve" name="14" />
   <point x="395" y="454" type="curve" smooth="yes" name="15" />
   <point x="395" y="355" type="offcurve" name="14" />
   <point x="334" y="312" type="offcurve" name="14" />
   <point x="229" y="312" type="curve" smooth="yes" name="15" />
   <point x="202" y="312" type="offcurve" name="14" />
   <point x="167" y="314" type="offcurve" name="14" />
   <point x="145" y="318" type="curve" smooth="no" name="13" />
  </contour>
 </outline>
</glyph>
<glyph name="Q" format="1">
 <advance width="634" />
 <unicode hex="0051" />
 <outline>
  <contour>
   <point x="387" y="-2" type="curve" smooth="no" name="13" />
   <point x="490" y="-111" type="line" smooth="no" name="13" />
   <point x="554" y="-111" type="line" smooth="no" name="13" />
   <point x="433" y="16" type="line" smooth="no" name="13" />
   <point x="533" y="69" type="offcurve" name="14" />
   <point x="584" y="191" type="offcurve" name="14" />
   <point x="584" y="317" type="curve" smooth="yes" name="15" />
   <point x="584" y="484" type="offcurve" name="14" />
   <point x="494" y="645" type="offcurve" name="14" />
   <point x="317" y="645" type="curve" smooth="yes" name="15" />
   <point x="140" y="645" type="offcurve" name="14" />
   <point x="50" y="484" type="offcurve" name="14" />
   <point x="50" y="317" type="curve" smooth="yes" name="15" />
   <point x="50" y="149" type="offcurve" name="14" />
   <point x="140" y="-12" type="offcurve" name="14" />
   <point x="317" y="-12" type="curve" smooth="yes" name="15" />
   <point x="342" y="-12" type="offcurve" name="14" />
   <point x="366" y="-8" type="offcurve" name="14" />
  </contour>
  <contour>
   <point x="317" y="37" type="curve" smooth="yes" name="15" />
   <point x="179" y="37" type="offcurve" name="14" />
   <point x="110" y="160" type="offcurve" name="14" />
   <point x="110" y="317" type="curve" smooth="yes" name="15" />
   <point x="110" y="473" type="offcurve" name="14" />
   <point x="179" y="596" type="offcurve" name="14" />
   <point x="317" y="596" type="curve" smooth="yes" name="15" />
   <point x="455" y="596" type="offcurve" name="14" />
   <point x="524" y="473" type="offcurve" name="14" />
   <point x="524" y="317" type="curve" smooth="yes" name="15" />
   <point x="524" y="160" type="offcurve" name="14" />
   <point x="455" y="37" type="offcurve" name="14" />
  </contour>
 </outline>
</glyph>
<glyph name="R" format="1">
 <advance width="512" />
 <unicode hex="0052" />
 <outline>
  <contour>
   <point x="90" y="0" type="line" smooth="no" name="13" />
   <point x="145" y="0" type="line" smooth="no" name="13" />
   <point x="145" y="272" type="line" smooth="no" name="13" />
   <point x="173" y="269" type="offcurve" name="14" />
   <point x="209" y="267" type="offcurve" name="14" />
   <point x="237" y="267" type="curve" smooth="yes" name="15" />
   <point x="254" y="267" type="offcurve" name="14" />
   <point x="269" y="268" type="offcurve" name="14" />
   <point x="284" y="270" type="curve" smooth="no" name="13" />
   <point x="285" y="269" type="line" smooth="no" name="13" />
   <point x="406" y="0" type="line" smooth="no" name="13" />
   <point x="462" y="0" type="line" smooth="no" name="13" />
   <point x="334" y="281" type="line" smooth="no" name="13" />
   <point x="419" y="309" type="offcurve" name="14" />
   <point x="454" y="378" type="offcurve" name="14" />
   <point x="454" y="454" type="curve" smooth="yes" name="15" />
   <point x="454" y="554" type="offcurve" name="14" />
   <point x="402" y="645" type="offcurve" name="14" />
   <point x="236" y="645" type="curve" smooth="yes" name="15" />
   <point x="192" y="645" type="offcurve" name="14" />
   <point x="127" y="638" type="offcurve" name="14" />
   <point x="90" y="633" type="curve" smooth="no" name="13" />
  </contour>
  <contour>
   <point x="145" y="594" type="line" smooth="no" name="13" />
   <point x="170" y="598" type="offcurve" name="14" />
   <point x="204" y="600" type="offcurve" name="14" />
   <point x="230" y="600" type="curve" smooth="yes" name="15" />
   <point x="345" y="600" type="offcurve" name="14" />
   <point x="395" y="545" type="offcurve" name="14" />
   <point x="395" y="454" type="curve" smooth="yes" name="15" />
   <point x="395" y="355" type="offcurve" name="14" />
   <point x="334" y="312" type="offcurve" name="14" />
   <point x="229" y="312" type="curve" smooth="yes" name="15" />
   <point x="202" y="312" type="offcurve" name="14" />
   <point x="167" y="314" type="offcurve" name="14" />
   <point x="145" y="318" type="curve" smooth="no" name="13" />
  </contour>
 </outline>
</glyph>
<glyph name="S" format="1">
 <advance width="483" />
 <unicode hex="0053" />
 <outline>
  <contour>
   <point x="381" y="564" type="curve" smooth="no" name="13" />
   <point x="406" y="597" type="line" smooth="no" name="13" />
   <point x="367" y="623" type="offcurve" name="14" />
   <point x="315" y="645" type="offcurve" name="14" />
   <point x="244" y="645" type="curve" smooth="yes" name="15" />
   <point x="122" y="645" type="offcurve" name="14" />
   <point x="51" y="575" type="offcurve" name="14" />
   <point x="51" y="489" type="curve" smooth="yes" name="15" />
   <point x="51" y="397" type="offcurve" name="14" />
   <point x="131" y="350" type="offcurve" name="14" />
   <point x="237" y="314" type="curve" smooth="yes" name="15" />
   <point x="350" y="275" type="offcurve" name="14" />
   <point x="376" y="227" type="offcurve" name="14" />
   <point x="376" y="160" type="curve" smooth="yes" name="15" />
   <point x="376" y="93" type="offcurve" name="14" />
   <point x="326" y="37" type="offcurve" name="14" />
   <point x="228" y="37" type="curve" smooth="yes" name="15" />
   <point x="173" y="37" type="offcurve" name="14" />
   <point x="119" y="56" type="offcurve" name="14" />
   <point x="73" y="81" type="curve" smooth="no" name="13" />
   <point x="50" y="48" type="line" smooth="no" name="13" />
   <point x="94" y="19" type="offcurve" name="14" />
   <point x="153" y="-12" type="offcurve" name="14" />
   <point x="239" y="-12" type="curve" smooth="yes" name="15" />
   <point x="346" y="-12" type="offcurve" name="14" />
   <point x="433" y="55" type="offcurve" name="14" />
   <point x="433" y="160" type="curve" smooth="yes" name="15" />
   <point x="433" y="268" type="offcurve" name="14" />
   <point x="380" y="317" type="offcurve" name="14" />
   <point x="236" y="371" type="curve" smooth="yes" name="15" />
   <point x="141" y="407" type="offcurve" name="14" />
   <point x="111" y="442" type="offcurve" name="14" />
   <point x="111" y="489" type="curve" smooth="yes" name="15" />
   <point x="111" y="564" type="offcurve" name="14" />
   <point x="172" y="596" type="offcurve" name="14" />
   <point x="251" y="596" type="curve" smooth="yes" name="15" />
   <point x="298" y="596" type="offcurve" name="14" />
   <point x="342" y="586" type="offcurve" name="14" />
  </contour>
 </outline>
</glyph>
<glyph name="T" format="1">
 <advance width="513" />
 <unicode hex="0054" />
 <outline>
  <contour>
   <point x="221" y="584" type="line" smooth="no" name="13" />
   <point x="221" y="0" type="line" smooth="no" name="13" />
   <point x="276" y="0" type="line" smooth="no" name="13" />
   <point x="276" y="584" type="line" smooth="no" name="13" />
   <point x="488" y="584" type="line" smooth="no" name="13" />
   <point x="488" y="633" type="line" smooth="no" name="13" />
   <point x="25" y="633" type="line" smooth="no" name="13" />
   <point x="25" y="584" type="line" smooth="no" name="13" />
  </contour>
 </outline>
</glyph>
<glyph name="U" format="1">
 <advance width="619" />
 <unicode hex="0055" />
 <outline>
  <contour>
   <point x="529" y="263" type="curve" smooth="yes" name="15" />
   <point x="529" y="633" type="line" smooth="no" name="13" />
   <point x="472" y="633" type="line" smooth="no" name="13" />
   <point x="472" y="240" type="line" smooth="yes" name="15" />
   <point x="472" y="100" type="offcurve" name="14" />
   <point x="410" y="37" type="offcurve" name="14" />
   <point x="310" y="37" type="curve" smooth="yes" name="15" />
   <point x="209" y="37" type="offcurve" name="14" />
   <point x="145" y="100" type="offcurve" name="14" />
   <point x="145" y="240" type="curve" smooth="yes" name="15" />
   <point x="145" y="633" type="line" smooth="no" name="13" />
   <point x="90" y="633" type="line" smooth="no" name="13" />
   <point x="90" y="263" type="line" smooth="yes" name="15" />
   <point x="90" y="73" type="offcurve" name="14" />
   <point x="175" y="-12" type="offcurve" name="14" />
   <point x="310" y="-12" type="curve" smooth="yes" name="15" />
   <point x="444" y="-12" type="offcurve" name="14" />
   <point x="529" y="73" type="offcurve" name="14" />
  </contour>
 </outline>
</glyph>
<glyph name="V" format="1">
 <advance width="532" />
 <unicode hex="0056" />
 <outline>
  <contour>
   <point x="77" y="633" type="line" smooth="no" name="13" />
   <point x="15" y="633" type="line" smooth="no" name="13" />
   <point x="242" y="0" type="line" smooth="no" name="13" />
   <point x="289" y="0" type="line" smooth="no" name="13" />
   <point x="516" y="633" type="line" smooth="no" name="13" />
   <point x="453" y="633" type="line" smooth="no" name="13" />
   <point x="266" y="74" type="line" smooth="no" name="13" />
  </contour>
 </outline>
</glyph>
<glyph name="W" format="1">
 <advance width="890" />
 <unicode hex="0057" />
 <outline>
  <contour>
   <point x="476" y="633" type="line" smooth="no" name="13" />
   <point x="413" y="633" type="line" smooth="no" name="13" />
   <point x="256" y="74" type="line" smooth="no" name="13" />
   <point x="77" y="633" type="line" smooth="no" name="13" />
   <point x="15" y="633" type="line" smooth="no" name="13" />
   <point x="231" y="0" type="line" smooth="no" name="13" />
   <point x="284" y="0" type="line" smooth="no" name="13" />
   <point x="445" y="555" type="line" smooth="no" name="13" />
   <point x="606" y="0" type="line" smooth="no" name="13" />
   <point x="661" y="0" type="line" smooth="no" name="13" />
   <point x="875" y="633" type="line" smooth="no" name="13" />
   <point x="812" y="633" type="line" smooth="no" name="13" />
   <point x="635" y="74" type="line" smooth="no" name="13" />
  </contour>
 </outline>
</glyph>
<glyph name="X" format="1">
 <advance width="542" />
 <unicode hex="0058" />
 <outline>
  <contour>
   <point x="516" y="633" type="line" smooth="no" name="13" />
   <point x="453" y="633" type="line" smooth="no" name="13" />
   <point x="280" y="376" type="line" smooth="no" name="13" />
   <point x="113" y="633" type="line" smooth="no" name="13" />
   <point x="51" y="633" type="line" smooth="no" name="13" />
   <point x="251" y="328" type="line" smooth="no" name="13" />
   <point x="15" y="0" type="line" smooth="no" name="13" />
   <point x="77" y="0" type="line" smooth="no" name="13" />
   <point x="278" y="286" type="line" smooth="no" name="13" />
   <point x="462" y="0" type="line" smooth="no" name="13" />
   <point x="527" y="0" type="line" smooth="no" name="13" />
   <point x="307" y="331" type="line" smooth="no" name="13" />
  </contour>
 </outline>
</glyph>
<glyph name="Y" format="1">
 <advance width="509" />
 <unicode hex="0059" />
 <outline>
  <contour>
   <point x="15" y="633" type="line" smooth="no" name="13" />
   <point x="227" y="247" type="line" smooth="no" name="13" />
   <point x="227" y="0" type="line" smooth="no" name="13" />
   <point x="281" y="0" type="line" smooth="no" name="13" />
   <point x="281" y="247" type="line" smooth="no" name="13" />
   <point x="494" y="633" type="line" smooth="no" name="13" />
   <point x="436" y="633" type="line" smooth="no" name="13" />
   <point x="254" y="301" type="line" smooth="no" name="13" />
   <point x="72" y="633" type="line" smooth="no" name="13" />
  </contour>
 </outline>
</glyph>
<glyph name="Z" format="1">
 <advance width="451" />
 <unicode hex="005a" />
 <outline>
  <contour>
   <point x="420" y="633" type="line" smooth="no" name="13" />
   <point x="34" y="633" type="line" smooth="no" name="13" />
   <point x="34" y="584" type="line" smooth="no" name="13" />
   <point x="364" y="584" type="line" smooth="no" name="13" />
   <point x="25" y="49" type="line" smooth="no" name="13" />
   <point x="25" y="0" type="line" smooth="no" name="13" />
   <point x="426" y="0" type="line" smooth="no" name="13" />
   <point x="426" y="49" type="line" smooth="no" name="13" />
   <point x="84" y="49" type="line" smooth="no" name="13" />
   <point x="420" y="579" type="line" smooth="no" name="13" />
  </contour>
 </outline>
</glyph>
<glyph name="bracketleft" format="1">
 <advance width="349" />
 <unicode hex="005b" />
 <outline>
  <contour>
   <point x="262" y="-140" type="line" smooth="no" name="13" />
   <point x="262" y="-95" type="line" smooth="no" name="13" />
   <point x="138" y="-95" type="line" smooth="no" name="13" />
   <point x="138" y="600" type="line" smooth="no" name="13" />
   <point x="262" y="600" type="line" smooth="no" name="13" />
   <point x="262" y="645" type="line" smooth="no" name="13" />
   <point x="91" y="645" type="line" smooth="no" name="13" />
   <point x="91" y="-140" type="line" smooth="no" name="13" />
  </contour>
 </outline>
</glyph>
<glyph name="backslash" format="1">
 <advance width="327" />
 <unicode hex="005c" />
 <outline>
  <contour>
   <point x="280" y="-30" type="line" smooth="no" name="13" />
   <point x="330" y="-30" type="line" smooth="no" name="13" />
   <point x="11" y="633" type="line" smooth="no" name="13" />
   <point x="-38" y="633" type="line" smooth="no" name="13" />
  </contour>
 </outline>
</glyph>
<glyph name="bracketright" format="1">
 <advance width="349" />
 <unicode hex="005d" />
 <outline>
  <contour>
   <point x="87" y="645" type="line" smooth="no" name="13" />
   <point x="87" y="600" type="line" smooth="no" name="13" />
   <point x="211" y="600" type="line" smooth="no" name="13" />
   <point x="211" y="-95" type="line" smooth="no" name="13" />
   <point x="87" y="-95" type="line" smooth="no" name="13" />
   <point x="87" y="-140" type="line" smooth="no" name="13" />
   <point x="258" y="-140" type="line" smooth="no" name="13" />
   <point x="258" y="645" type="line" smooth="no" name="13" />
  </contour>
 </outline>
</glyph>
<glyph name="asciicircum" format="1">
 <advance width="386" />
 <unicode hex="005e" />
 <outline>
  <contour>
   <point x="170" y="609" type="line" smooth="no" name="13" />
   <point x="35" y="323" type="line" smooth="no" name="13" />
   <point x="79" y="323" type="line" smooth="no" name="13" />
   <point x="192" y="572" type="line" smooth="no" name="13" />
   <point x="193" y="573" type="line" smooth="no" name="13" />
   <point x="307" y="323" type="line" smooth="no" name="13" />
   <point x="351" y="323" type="line" smooth="no" name="13" />
   <point x="215" y="609" type="line" smooth="no" name="13" />
  </contour>
 </outline>
</glyph>
<glyph name="underscore" format="1">
 <advance width="384" />
 <unicode hex="005f" />
 <outline>
  <contour>
   <point x="379" y="-70" type="line" smooth="no" name="13" />
   <point x="379" y="-30" type="line" smooth="no" name="13" />
   <point x="5" y="-30" type="line" smooth="no" name="13" />
   <point x="5" y="-70" type="line" smooth="no" name="13" />
  </contour>
 </outline>
</glyph>
<glyph name="grave" format="1">
 <advance width="153" />
 <unicode hex="0060" />
 <outline>
  <contour>
   <point x="101" y="553" type="line" smooth="no" name="13" />
   <point x="128" y="553" type="line" smooth="no" name="13" />
   <point x="80" y="655" type="line" smooth="no" name="13" />
   <point x="25" y="655" type="line" smooth="no" name="13" />
  </contour>
 </outline>
</glyph>
<glyph name="a" format="1">
 <advance width="478" />
 <unicode hex="0061" />
 <outline>
  <contour>
   <point x="400" y="0" type="line" smooth="no" name="13" />
   <point x="400" y="279" type="line" smooth="yes" name="15" />
   <point x="400" y="394" type="offcurve" name="14" />
   <point x="345" y="466" type="offcurve" name="14" />
   <point x="236" y="466" type="curve" smooth="yes" name="15" />
   <point x="175" y="466" type="offcurve" name="14" />
   <point x="113" y="441" type="offcurve" name="14" />
   <point x="78" y="406" type="curve" smooth="no" name="13" />
   <point x="97" y="378" type="line" smooth="no" name="13" />
   <point x="135" y="405" type="offcurve" name="14" />
   <point x="177" y="423" type="offcurve" name="14" />
   <point x="225" y="423" type="curve" smooth="yes" name="15" />
   <point x="304" y="423" type="offcurve" name="14" />
   <point x="353" y="384" type="offcurve" name="14" />
   <point x="353" y="290" type="curve" smooth="yes" name="15" />
   <point x="353" y="282" type="line" smooth="no" name="13" />
   <point x="268" y="282" type="line" smooth="yes" name="15" />
   <point x="121" y="282" type="offcurve" name="14" />
   <point x="48" y="228" type="offcurve" name="14" />
   <point x="48" y="126" type="curve" smooth="yes" name="15" />
   <point x="48" y="39" type="offcurve" name="14" />
   <point x="114" y="-12" type="offcurve" name="14" />
   <point x="198" y="-12" type="curve" smooth="yes" name="15" />
   <point x="269" y="-12" type="offcurve" name="14" />
   <point x="322" y="18" type="offcurve" name="14" />
   <point x="357" y="51" type="curve" smooth="no" name="13" />
   <point x="366" y="0" type="line" smooth="no" name="13" />
  </contour>
  <contour>
   <point x="353" y="242" type="line" smooth="no" name="13" />
   <point x="353" y="101" type="line" smooth="no" name="13" />
   <point x="334" y="68" type="offcurve" name="14" />
   <point x="277" y="31" type="offcurve" name="14" />
   <point x="212" y="31" type="curve" smooth="yes" name="15" />
   <point x="138" y="31" type="offcurve" name="14" />
   <point x="101" y="74" type="offcurve" name="14" />
   <point x="101" y="133" type="curve" smooth="yes" name="15" />
   <point x="101" y="210" type="offcurve" name="14" />
   <point x="149" y="242" type="offcurve" name="14" />
   <point x="276" y="242" type="curve" smooth="yes" name="15" />
  </contour>
 </outline>
</glyph>
<glyph name="b" format="1">
 <advance width="517" />
 <unicode hex="0062" />
 <outline>
  <contour>
   <point x="112" y="0" type="line" smooth="no" name="13" />
   <point x="121" y="48" type="line" smooth="no" name="13" />
   <point x="151" y="14" type="offcurve" name="14" />
   <point x="199" y="-12" type="offcurve" name="14" />
   <point x="258" y="-12" type="curve" smooth="yes" name="15" />
   <point x="375" y="-12" type="offcurve" name="14" />
   <point x="469" y="75" type="offcurve" name="14" />
   <point x="469" y="236" type="curve" smooth="yes" name="15" />
   <point x="469" y="366" type="offcurve" name="14" />
   <point x="392" y="466" type="offcurve" name="14" />
   <point x="259" y="466" type="curve" smooth="yes" name="15" />
   <point x="191" y="466" type="offcurve" name="14" />
   <point x="144" y="430" type="offcurve" name="14" />
   <point x="125" y="408" type="curve" smooth="no" name="13" />
   <point x="125" y="645" type="line" smooth="no" name="13" />
   <point x="78" y="619" type="line" smooth="no" name="13" />
   <point x="78" y="0" type="line" smooth="no" name="13" />
  </contour>
  <contour>
   <point x="125" y="352" type="line" smooth="no" name="13" />
   <point x="145" y="391" type="offcurve" name="14" />
   <point x="196" y="423" type="offcurve" name="14" />
   <point x="254" y="423" type="curve" smooth="yes" name="15" />
   <point x="351" y="423" type="offcurve" name="14" />
   <point x="416" y="349" type="offcurve" name="14" />
   <point x="416" y="226" type="curve" smooth="yes" name="15" />
   <point x="416" y="99" type="offcurve" name="14" />
   <point x="342" y="31" type="offcurve" name="14" />
   <point x="257" y="31" type="curve" smooth="yes" name="15" />
   <point x="193" y="31" type="offcurve" name="14" />
   <point x="148" y="59" type="offcurve" name="14" />
   <point x="125" y="99" type="curve" smooth="no" name="13" />
  </contour>
 </outline>
</glyph>
<glyph name="c" format="1">
 <advance width="461" />
 <unicode hex="0063" />
 <outline>
  <contour>
   <point x="419" y="33" type="curve" smooth="no" name="13" />
   <point x="401" y="63" type="line" smooth="no" name="13" />
   <point x="378" y="49" type="offcurve" name="14" />
   <point x="340" y="31" type="offcurve" name="14" />
   <point x="290" y="31" type="curve" smooth="yes" name="15" />
   <point x="164" y="31" type="offcurve" name="14" />
   <point x="101" y="116" type="offcurve" name="14" />
   <point x="101" y="222" type="curve" smooth="yes" name="15" />
   <point x="101" y="340" type="offcurve" name="14" />
   <point x="169" y="423" type="offcurve" name="14" />
   <point x="283" y="423" type="curve" smooth="yes" name="15" />
   <point x="333" y="423" type="offcurve" name="14" />
   <point x="367" y="408" type="offcurve" name="14" />
   <point x="390" y="395" type="curve" smooth="no" name="13" />
   <point x="409" y="423" type="line" smooth="no" name="13" />
   <point x="385" y="442" type="offcurve" name="14" />
   <point x="340" y="466" type="offcurve" name="14" />
   <point x="268" y="466" type="curve" smooth="yes" name="15" />
   <point x="143" y="466" type="offcurve" name="14" />
   <point x="48" y="361" type="offcurve" name="14" />
   <point x="48" y="225" type="curve" smooth="yes" name="15" />
   <point x="48" y="84" type="offcurve" name="14" />
   <point x="141" y="-12" type="offcurve" name="14" />
   <point x="274" y="-12" type="curve" smooth="yes" name="15" />
   <point x="348" y="-12" type="offcurve" name="14" />
   <point x="394" y="13" type="offcurve" name="14" />
  </contour>
 </outline>
</glyph>
<glyph name="d" format="1">
 <advance width="517" />
 <unicode hex="0064" />
 <outline>
  <contour>
   <point x="405" y="0" type="line" smooth="no" name="13" />
   <point x="439" y="0" type="line" smooth="no" name="13" />
   <point x="439" y="645" type="line" smooth="no" name="13" />
   <point x="392" y="619" type="line" smooth="no" name="13" />
   <point x="392" y="408" type="line" smooth="no" name="13" />
   <point x="373" y="431" type="offcurve" name="14" />
   <point x="325" y="466" type="offcurve" name="14" />
   <point x="260" y="466" type="curve" smooth="yes" name="15" />
   <point x="137" y="466" type="offcurve" name="14" />
   <point x="48" y="370" type="offcurve" name="14" />
   <point x="48" y="224" type="curve" smooth="yes" name="15" />
   <point x="48" y="87" type="offcurve" name="14" />
   <point x="133" y="-12" type="offcurve" name="14" />
   <point x="253" y="-12" type="curve" smooth="yes" name="15" />
   <point x="331" y="-12" type="offcurve" name="14" />
   <point x="376" y="24" type="offcurve" name="14" />
   <point x="396" y="48" type="curve" smooth="no" name="13" />
  </contour>
  <contour>
   <point x="392" y="99" type="line" smooth="no" name="13" />
   <point x="374" y="66" type="offcurve" name="14" />
   <point x="330" y="31" type="offcurve" name="14" />
   <point x="263" y="31" type="curve" smooth="yes" name="15" />
   <point x="171" y="31" type="offcurve" name="14" />
   <point x="101" y="104" type="offcurve" name="14" />
   <point x="101" y="228" type="curve" smooth="yes" name="15" />
   <point x="101" y="353" type="offcurve" name="14" />
   <point x="180" y="423" type="offcurve" name="14" />
   <point x="264" y="423" type="curve" smooth="yes" name="15" />
   <point x="323" y="423" type="offcurve" name="14" />
   <point x="372" y="391" type="offcurve" name="14" />
   <point x="392" y="352" type="curve" smooth="no" name="13" />
  </contour>
 </outline>
</glyph>
<glyph name="f" format="1">
 <advance width="312" />
 <unicode hex="0066" />
 <outline>
  <contour>
   <point x="42" y="415" type="line" smooth="no" name="13" />
   <point x="104" y="415" type="line" smooth="no" name="13" />
   <point x="104" y="0" type="line" smooth="no" name="13" />
   <point x="151" y="0" type="line" smooth="no" name="13" />
   <point x="151" y="415" type="line" smooth="no" name="13" />
   <point x="257" y="415" type="line" smooth="no" name="13" />
   <point x="257" y="454" type="line" smooth="no" name="13" />
   <point x="151" y="454" type="line" smooth="no" name="13" />
   <point x="151" y="522" type="line" smooth="yes" name="15" />
   <point x="151" y="579" type="offcurve" name="14" />
   <point x="174" y="604" type="offcurve" name="14" />
   <point x="219" y="604" type="curve" smooth="yes" name="15" />
   <point x="245" y="604" type="offcurve" name="14" />
   <point x="270" y="593" type="offcurve" name="14" />
   <point x="280" y="589" type="curve" smooth="no" name="13" />
   <point x="297" y="617" type="line" smooth="no" name="13" />
   <point x="275" y="632" type="offcurve" name="14" />
   <point x="243" y="645" type="offcurve" name="14" />
   <point x="210" y="645" type="curve" smooth="yes" name="15" />
   <point x="144" y="645" type="offcurve" name="14" />
   <point x="104" y="592" type="offcurve" name="14" />
   <point x="104" y="522" type="curve" smooth="yes" name="15" />
   <point x="104" y="454" type="line" smooth="no" name="13" />
   <point x="42" y="454" type="line" smooth="no" name="13" />
  </contour>
 </outline>
</glyph>
<glyph name="g" format="1">
 <advance width="527" />
 <unicode hex="0067" />
 <outline>
  <contour>
   <point x="402" y="31" type="line" smooth="yes" name="15" />
   <point x="402" y="-109" type="offcurve" name="14" />
   <point x="341" y="-148" type="offcurve" name="14" />
   <point x="244" y="-148" type="curve" smooth="yes" name="15" />
   <point x="196" y="-148" type="offcurve" name="14" />
   <point x="154" y="-130" type="offcurve" name="14" />
   <point x="116" y="-103" type="curve" smooth="no" name="13" />
   <point x="97" y="-131" type="line" smooth="no" name="13" />
   <point x="132" y="-166" type="offcurve" name="14" />
   <point x="194" y="-191" type="offcurve" name="14" />
   <point x="255" y="-191" type="curve" smooth="yes" name="15" />
   <point x="376" y="-191" type="offcurve" name="14" />
   <point x="449" y="-119" type="offcurve" name="14" />
   <point x="449" y="31" type="curve" smooth="yes" name="15" />
   <point x="449" y="454" type="line" smooth="no" name="13" />
   <point x="412" y="454" type="line" smooth="no" name="13" />
   <point x="402" y="408" type="line" smooth="no" name="13" />
   <point x="383" y="431" type="offcurve" name="14" />
   <point x="335" y="466" type="offcurve" name="14" />
   <point x="270" y="466" type="curve" smooth="yes" name="15" />
   <point x="147" y="466" type="offcurve" name="14" />
   <point x="58" y="370" type="offcurve" name="14" />
   <point x="58" y="224" type="curve" smooth="yes" name="15" />
   <point x="58" y="87" type="offcurve" name="14" />
   <point x="143" y="-12" type="offcurve" name="14" />
   <point x="263" y="-12" type="curve" smooth="yes" name="15" />
   <point x="336" y="-12" type="offcurve" name="14" />
   <point x="380" y="20" type="offcurve" name="14" />
   <point x="402" y="44" type="curve" smooth="no" name="13" />
  </contour>
  <contour>
   <point x="402" y="99" type="line" smooth="no" name="13" />
   <point x="384" y="66" type="offcurve" name="14" />
   <point x="340" y="31" type="offcurve" name="14" />
   <point x="273" y="31" type="curve" smooth="yes" name="15" />
   <point x="181" y="31" type="offcurve" name="14" />
   <point x="111" y="104" type="offcurve" name="14" />
   <point x="111" y="228" type="curve" smooth="yes" name="15" />
   <point x="111" y="353" type="offcurve" name="14" />
   <point x="190" y="423" type="offcurve" name="14" />
   <point x="274" y="423" type="curve" smooth="yes" name="15" />
   <point x="333" y="423" type="offcurve" name="14" />
   <point x="382" y="391" type="offcurve" name="14" />
   <point x="402" y="352" type="curve" smooth="no" name="13" />
  </contour>
 </outline>
</glyph>
<glyph name="h" format="1">
 <advance width="521" />
 <unicode hex="0068" />
 <outline>
  <contour>
   <point x="78" y="620" type="line" smooth="no" name="13" />
   <point x="78" y="0" type="line" smooth="no" name="13" />
   <point x="125" y="0" type="line" smooth="no" name="13" />
   <point x="125" y="354" type="line" smooth="no" name="13" />
   <point x="144" y="381" type="offcurve" name="14" />
   <point x="198" y="423" type="offcurve" name="14" />
   <point x="262" y="423" type="curve" smooth="yes" name="15" />
   <point x="353" y="423" type="offcurve" name="14" />
   <point x="401" y="372" type="offcurve" name="14" />
   <point x="401" y="267" type="curve" smooth="yes" name="15" />
   <point x="401" y="0" type="line" smooth="no" name="13" />
   <point x="448" y="0" type="line" smooth="no" name="13" />
   <point x="448" y="272" type="line" smooth="yes" name="15" />
   <point x="448" y="411" type="offcurve" name="14" />
   <point x="373" y="466" type="offcurve" name="14" />
   <point x="273" y="466" type="curve" smooth="yes" name="15" />
   <point x="219" y="466" type="offcurve" name="14" />
   <point x="166" y="443" type="offcurve" name="14" />
   <point x="125" y="407" type="curve" smooth="no" name="13" />
   <point x="125" y="645" type="line" smooth="no" name="13" />
  </contour>
 </outline>
</glyph>
<glyph name="i" format="1">
 <advance width="218" />
 <unicode hex="0069" />
 <outline>
  <contour>
   <point x="132" y="454" type="line" smooth="no" name="13" />
   <point x="85" y="454" type="line" smooth="no" name="13" />
   <point x="85" y="0" type="line" smooth="no" name="13" />
   <point x="132" y="0" type="line" smooth="no" name="13" />
  </contour>
  <contour>
   <point x="73" y="609" type="curve" smooth="yes" name="15" />
   <point x="73" y="589" type="offcurve" name="14" />
   <point x="89" y="573" type="offcurve" name="14" />
   <point x="109" y="573" type="curve" smooth="yes" name="15" />
   <point x="129" y="573" type="offcurve" name="14" />
   <point x="145" y="589" type="offcurve" name="14" />
   <point x="145" y="609" type="curve" smooth="yes" name="15" />
   <point x="145" y="629" type="offcurve" name="14" />
   <point x="129" y="645" type="offcurve" name="14" />
   <point x="109" y="645" type="curve" smooth="yes" name="15" />
   <point x="89" y="645" type="offcurve" name="14" />
   <point x="73" y="629" type="offcurve" name="14" />
  </contour>
 </outline>
</glyph>
<glyph name="j" format="1">
 <advance width="219" />
 <unicode hex="006a" />
 <outline>
  <contour>
   <point x="129" y="454" type="line" smooth="no" name="13" />
   <point x="82" y="454" type="line" smooth="no" name="13" />
   <point x="82" y="-68" type="line" smooth="yes" name="15" />
   <point x="82" y="-125" type="offcurve" name="14" />
   <point x="59" y="-150" type="offcurve" name="14" />
   <point x="14" y="-150" type="curve" smooth="yes" name="15" />
   <point x="-12" y="-150" type="offcurve" name="14" />
   <point x="-38" y="-139" type="offcurve" name="14" />
   <point x="-47" y="-135" type="curve" smooth="no" name="13" />
   <point x="-64" y="-163" type="line" smooth="no" name="13" />
   <point x="-42" y="-178" type="offcurve" name="14" />
   <point x="-10" y="-191" type="offcurve" name="14" />
   <point x="23" y="-191" type="curve" smooth="yes" name="15" />
   <point x="89" y="-191" type="offcurve" name="14" />
   <point x="129" y="-138" type="offcurve" name="14" />
   <point x="129" y="-68" type="curve" smooth="yes" name="15" />
  </contour>
  <contour>
   <point x="69" y="609" type="curve" smooth="yes" name="15" />
   <point x="69" y="589" type="offcurve" name="14" />
   <point x="85" y="573" type="offcurve" name="14" />
   <point x="105" y="573" type="curve" smooth="yes" name="15" />
   <point x="125" y="573" type="offcurve" name="14" />
   <point x="141" y="589" type="offcurve" name="14" />
   <point x="141" y="609" type="curve" smooth="yes" name="15" />
   <point x="141" y="629" type="offcurve" name="14" />
   <point x="125" y="645" type="offcurve" name="14" />
   <point x="105" y="645" type="curve" smooth="yes" name="15" />
   <point x="85" y="645" type="offcurve" name="14" />
   <point x="69" y="629" type="offcurve" name="14" />
  </contour>
 </outline>
</glyph>
<glyph name="k" format="1">
 <advance width="436" />
 <unicode hex="006b" />
 <outline>
  <contour>
   <point x="368" y="454" type="line" smooth="no" name="13" />
   <point x="300" y="454" type="line" smooth="no" name="13" />
   <point x="125" y="287" type="line" smooth="no" name="13" />
   <point x="125" y="645" type="line" smooth="no" name="13" />
   <point x="78" y="619" type="line" smooth="no" name="13" />
   <point x="78" y="0" type="line" smooth="no" name="13" />
   <point x="125" y="0" type="line" smooth="no" name="13" />
   <point x="125" y="264" type="line" smooth="no" name="13" />
   <point x="349" y="0" type="line" smooth="no" name="13" />
   <point x="411" y="0" type="line" smooth="no" name="13" />
   <point x="173" y="278" type="line" smooth="no" name="13" />
  </contour>
 </outline>
</glyph>
<glyph name="m" format="1">
 <advance width="806" />
 <unicode hex="006d" />
 <outline>
  <contour>
   <point x="121" y="405" type="curve" smooth="no" name="13" />
   <point x="117" y="454" type="line" smooth="no" name="13" />
   <point x="78" y="454" type="line" smooth="no" name="13" />
   <point x="78" y="0" type="line" smooth="no" name="13" />
   <point x="125" y="0" type="line" smooth="no" name="13" />
   <point x="125" y="352" type="line" smooth="no" name="13" />
   <point x="146" y="379" type="offcurve" name="14" />
   <point x="197" y="423" type="offcurve" name="14" />
   <point x="260" y="423" type="curve" smooth="yes" name="15" />
   <point x="348" y="423" type="offcurve" name="14" />
   <point x="385" y="365" type="offcurve" name="14" />
   <point x="385" y="267" type="curve" smooth="yes" name="15" />
   <point x="385" y="0" type="line" smooth="no" name="13" />
   <point x="432" y="0" type="line" smooth="no" name="13" />
   <point x="432" y="272" type="line" smooth="yes" name="15" />
   <point x="432" y="308" type="offcurve" name="14" />
   <point x="426" y="339" type="offcurve" name="14" />
   <point x="417" y="363" type="curve" smooth="no" name="13" />
   <point x="444" y="388" type="offcurve" name="14" />
   <point x="489" y="423" type="offcurve" name="14" />
   <point x="552" y="423" type="curve" smooth="yes" name="15" />
   <point x="638" y="423" type="offcurve" name="14" />
   <point x="686" y="372" type="offcurve" name="14" />
   <point x="686" y="267" type="curve" smooth="yes" name="15" />
   <point x="686" y="0" type="line" smooth="no" name="13" />
   <point x="733" y="0" type="line" smooth="no" name="13" />
   <point x="733" y="272" type="line" smooth="yes" name="15" />
   <point x="733" y="404" type="offcurve" name="14" />
   <point x="660" y="466" type="offcurve" name="14" />
   <point x="564" y="466" type="curve" smooth="yes" name="15" />
   <point x="494" y="466" type="offcurve" name="14" />
   <point x="442" y="438" type="offcurve" name="14" />
   <point x="398" y="400" type="curve" smooth="no" name="13" />
   <point x="369" y="443" type="offcurve" name="14" />
   <point x="325" y="466" type="offcurve" name="14" />
   <point x="271" y="466" type="curve" smooth="yes" name="15" />
   <point x="207" y="466" type="offcurve" name="14" />
   <point x="160" y="436" type="offcurve" name="14" />
  </contour>
 </outline>
</glyph>
<glyph name="n" format="1">
 <advance width="521" />
 <unicode hex="006e" />
 <outline>
  <contour>
   <point x="121" y="403" type="curve" smooth="no" name="13" />
   <point x="117" y="454" type="line" smooth="no" name="13" />
   <point x="78" y="454" type="line" smooth="no" name="13" />
   <point x="78" y="0" type="line" smooth="no" name="13" />
   <point x="125" y="0" type="line" smooth="no" name="13" />
   <point x="125" y="354" type="line" smooth="no" name="13" />
   <point x="146" y="382" type="offcurve" name="14" />
   <point x="196" y="423" type="offcurve" name="14" />
   <point x="265" y="423" type="curve" smooth="yes" name="15" />
   <point x="354" y="423" type="offcurve" name="14" />
   <point x="401" y="372" type="offcurve" name="14" />
   <point x="401" y="267" type="curve" smooth="yes" name="15" />
   <point x="401" y="0" type="line" smooth="no" name="13" />
   <point x="448" y="0" type="line" smooth="no" name="13" />
   <point x="448" y="272" type="line" smooth="yes" name="15" />
   <point x="448" y="408" type="offcurve" name="14" />
   <point x="372" y="466" type="offcurve" name="14" />
   <point x="277" y="466" type="curve" smooth="yes" name="15" />
   <point x="207" y="466" type="offcurve" name="14" />
   <point x="158" y="437" type="offcurve" name="14" />
  </contour>
 </outline>
</glyph>
<glyph name="o" format="1">
 <advance width="528" />
 <unicode hex="006f" />
 <outline>
  <contour>
   <point x="264" y="466" type="curve" smooth="yes" name="15" />
   <point x="131" y="466" type="offcurve" name="14" />
   <point x="48" y="358" type="offcurve" name="14" />
   <point x="48" y="226" type="curve" smooth="yes" name="15" />
   <point x="48" y="96" type="offcurve" name="14" />
   <point x="131" y="-12" type="offcurve" name="14" />
   <point x="264" y="-12" type="curve" smooth="yes" name="15" />
   <point x="397" y="-12" type="offcurve" name="14" />
   <point x="480" y="96" type="offcurve" name="14" />
   <point x="480" y="226" type="curve" smooth="yes" name="15" />
   <point x="480" y="358" type="offcurve" name="14" />
   <point x="396" y="466" type="offcurve" name="14" />
  </contour>
  <contour>
   <point x="264" y="424" type="curve" smooth="yes" name="15" />
   <point x="365" y="424" type="offcurve" name="14" />
   <point x="427" y="336" type="offcurve" name="14" />
   <point x="427" y="226" type="curve" smooth="yes" name="15" />
   <point x="427" y="118" type="offcurve" name="14" />
   <point x="363" y="30" type="offcurve" name="14" />
   <point x="264" y="30" type="curve" smooth="yes" name="15" />
   <point x="165" y="30" type="offcurve" name="14" />
   <point x="101" y="118" type="offcurve" name="14" />
   <point x="101" y="226" type="curve" smooth="yes" name="15" />
   <point x="101" y="336" type="offcurve" name="14" />
   <point x="163" y="424" type="offcurve" name="14" />
  </contour>
 </outline>
</glyph>
<glyph name="p" format="1">
 <advance width="529" />
 <unicode hex="0070" />
 <outline>
  <contour>
   <point x="117" y="454" type="line" smooth="no" name="13" />
   <point x="78" y="454" type="line" smooth="no" name="13" />
   <point x="78" y="-185" type="line" smooth="no" name="13" />
   <point x="125" y="-185" type="line" smooth="no" name="13" />
   <point x="125" y="48" type="line" smooth="no" name="13" />
   <point x="155" y="16" type="offcurve" name="14" />
   <point x="204" y="-12" type="offcurve" name="14" />
   <point x="277" y="-12" type="curve" smooth="yes" name="15" />
   <point x="388" y="-12" type="offcurve" name="14" />
   <point x="481" y="79" type="offcurve" name="14" />
   <point x="481" y="236" type="curve" smooth="yes" name="15" />
   <point x="481" y="365" type="offcurve" name="14" />
   <point x="405" y="466" type="offcurve" name="14" />
   <point x="282" y="466" type="curve" smooth="yes" name="15" />
   <point x="184" y="466" type="offcurve" name="14" />
   <point x="136" y="415" type="offcurve" name="14" />
   <point x="125" y="402" type="curve" smooth="no" name="13" />
  </contour>
  <contour>
   <point x="125" y="348" type="line" smooth="no" name="13" />
   <point x="143" y="377" type="offcurve" name="14" />
   <point x="193" y="423" type="offcurve" name="14" />
   <point x="267" y="423" type="curve" smooth="yes" name="15" />
   <point x="364" y="423" type="offcurve" name="14" />
   <point x="428" y="352" type="offcurve" name="14" />
   <point x="428" y="226" type="curve" smooth="yes" name="15" />
   <point x="428" y="95" type="offcurve" name="14" />
   <point x="350" y="31" type="offcurve" name="14" />
   <point x="260" y="31" type="curve" smooth="yes" name="15" />
   <point x="189" y="31" type="offcurve" name="14" />
   <point x="141" y="75" type="offcurve" name="14" />
   <point x="125" y="100" type="curve" smooth="no" name="13" />
  </contour>
 </outline>
</glyph>
<glyph name="q" format="1">
 <advance width="527" />
 <unicode hex="0071" />
 <outline>
  <contour>
   <point x="402" y="-191" type="line" smooth="no" name="13" />
   <point x="449" y="-191" type="line" smooth="no" name="13" />
   <point x="449" y="454" type="line" smooth="no" name="13" />
   <point x="413" y="454" type="line" smooth="no" name="13" />
   <point x="402" y="408" type="line" smooth="no" name="13" />
   <point x="373" y="441" type="offcurve" name="14" />
   <point x="325" y="466" type="offcurve" name="14" />
   <point x="258" y="466" type="curve" smooth="yes" name="15" />
   <point x="143" y="466" type="offcurve" name="14" />
   <point x="48" y="378" type="offcurve" name="14" />
   <point x="48" y="221" type="curve" smooth="yes" name="15" />
   <point x="48" y="84" type="offcurve" name="14" />
   <point x="137" y="-12" type="offcurve" name="14" />
   <point x="247" y="-12" type="curve" smooth="yes" name="15" />
   <point x="306" y="-12" type="offcurve" name="14" />
   <point x="362" y="8" type="offcurve" name="14" />
   <point x="402" y="48" type="curve" smooth="no" name="13" />
  </contour>
  <contour>
   <point x="402" y="102" type="line" smooth="no" name="13" />
   <point x="388" y="76" type="offcurve" name="14" />
   <point x="339" y="31" type="offcurve" name="14" />
   <point x="258" y="31" type="curve" smooth="yes" name="15" />
   <point x="173" y="31" type="offcurve" name="14" />
   <point x="102" y="101" type="offcurve" name="14" />
   <point x="102" y="227" type="curve" smooth="yes" name="15" />
   <point x="102" y="357" type="offcurve" name="14" />
   <point x="183" y="423" type="offcurve" name="14" />
   <point x="265" y="423" type="curve" smooth="yes" name="15" />
   <point x="337" y="423" type="offcurve" name="14" />
   <point x="384" y="381" type="offcurve" name="14" />
   <point x="402" y="351" type="curve" smooth="no" name="13" />
  </contour>
 </outline>
</glyph>
<glyph name="r" format="1">
 <advance width="376" />
 <unicode hex="0072" />
 <outline>
  <contour>
   <point x="121" y="403" type="curve" smooth="no" name="13" />
   <point x="117" y="454" type="line" smooth="no" name="13" />
   <point x="78" y="454" type="line" smooth="no" name="13" />
   <point x="78" y="0" type="line" smooth="no" name="13" />
   <point x="125" y="0" type="line" smooth="no" name="13" />
   <point x="125" y="354" type="line" smooth="no" name="13" />
   <point x="154" y="389" type="offcurve" name="14" />
   <point x="198" y="422" type="offcurve" name="14" />
   <point x="243" y="422" type="curve" smooth="yes" name="15" />
   <point x="273" y="422" type="offcurve" name="14" />
   <point x="296" y="412" type="offcurve" name="14" />
   <point x="317" y="395" type="curve" smooth="no" name="13" />
   <point x="356" y="426" type="line" smooth="no" name="13" />
   <point x="331" y="455" type="offcurve" name="14" />
   <point x="293" y="466" type="offcurve" name="14" />
   <point x="254" y="466" type="curve" smooth="yes" name="15" />
   <point x="205" y="466" type="offcurve" name="14" />
   <point x="171" y="448" type="offcurve" name="14" />
  </contour>
 </outline>
</glyph>
<glyph name="s" format="1">
 <advance width="404" />
 <unicode hex="0073" />
 <outline>
  <contour>
   <point x="306" y="399" type="curve" smooth="no" name="13" />
   <point x="321" y="427" type="line" smooth="no" name="13" />
   <point x="289" y="448" type="offcurve" name="14" />
   <point x="243" y="466" type="offcurve" name="14" />
   <point x="191" y="466" type="curve" smooth="yes" name="15" />
   <point x="101" y="466" type="offcurve" name="14" />
   <point x="48" y="412" type="offcurve" name="14" />
   <point x="48" y="349" type="curve" smooth="yes" name="15" />
   <point x="48" y="271" type="offcurve" name="14" />
   <point x="117" y="235" type="offcurve" name="14" />
   <point x="188" y="213" type="curve" smooth="yes" name="15" />
   <point x="270" y="188" type="offcurve" name="14" />
   <point x="304" y="166" type="offcurve" name="14" />
   <point x="304" y="119" type="curve" smooth="yes" name="15" />
   <point x="304" y="67" type="offcurve" name="14" />
   <point x="267" y="31" type="offcurve" name="14" />
   <point x="186" y="31" type="curve" smooth="yes" name="15" />
   <point x="147" y="31" type="offcurve" name="14" />
   <point x="102" y="40" type="offcurve" name="14" />
   <point x="61" y="60" type="curve" smooth="no" name="13" />
   <point x="48" y="33" type="line" smooth="no" name="13" />
   <point x="81" y="10" type="offcurve" name="14" />
   <point x="132" y="-12" type="offcurve" name="14" />
   <point x="199" y="-12" type="curve" smooth="yes" name="15" />
   <point x="282" y="-12" type="offcurve" name="14" />
   <point x="356" y="34" type="offcurve" name="14" />
   <point x="356" y="117" type="curve" smooth="yes" name="15" />
   <point x="356" y="205" type="offcurve" name="14" />
   <point x="283" y="234" type="offcurve" name="14" />
   <point x="212" y="256" type="curve" smooth="yes" name="15" />
   <point x="136" y="280" type="offcurve" name="14" />
   <point x="101" y="298" type="offcurve" name="14" />
   <point x="101" y="351" type="curve" smooth="yes" name="15" />
   <point x="101" y="392" type="offcurve" name="14" />
   <point x="133" y="423" type="offcurve" name="14" />
   <point x="198" y="423" type="curve" smooth="yes" name="15" />
   <point x="238" y="423" type="offcurve" name="14" />
   <point x="276" y="414" type="offcurve" name="14" />
  </contour>
 </outline>
</glyph>
<glyph name="t" format="1">
 <advance width="347" />
 <unicode hex="0074" />
 <outline>
  <contour>
   <point x="159" y="414" type="line" smooth="no" name="13" />
   <point x="302" y="414" type="line" smooth="no" name="13" />
   <point x="302" y="454" type="line" smooth="no" name="13" />
   <point x="159" y="454" type="line" smooth="no" name="13" />
   <point x="159" y="582" type="line" smooth="no" name="13" />
   <point x="113" y="558" type="line" smooth="no" name="13" />
   <point x="113" y="454" type="line" smooth="no" name="13" />
   <point x="42" y="454" type="line" smooth="no" name="13" />
   <point x="42" y="414" type="line" smooth="no" name="13" />
   <point x="112" y="414" type="line" smooth="no" name="13" />
   <point x="112" y="111" type="line" smooth="yes" name="15" />
   <point x="112" y="41" type="offcurve" name="14" />
   <point x="152" y="-12" type="offcurve" name="14" />
   <point x="218" y="-12" type="curve" smooth="yes" name="15" />
   <point x="251" y="-12" type="offcurve" name="14" />
   <point x="283" y="1" type="offcurve" name="14" />
   <point x="305" y="16" type="curve" smooth="no" name="13" />
   <point x="288" y="44" type="line" smooth="no" name="13" />
   <point x="279" y="40" type="offcurve" name="14" />
   <point x="253" y="29" type="offcurve" name="14" />
   <point x="227" y="29" type="curve" smooth="yes" name="15" />
   <point x="182" y="29" type="offcurve" name="14" />
   <point x="159" y="54" type="offcurve" name="14" />
   <point x="159" y="111" type="curve" smooth="yes" name="15" />
  </contour>
 </outline>
</glyph>
<glyph name="u" format="1">
 <advance width="510" />
 <unicode hex="0075" />
 <outline>
  <contour>
   <point x="389" y="51" type="curve" smooth="no" name="13" />
   <point x="393" y="0" type="line" smooth="no" name="13" />
   <point x="432" y="0" type="line" smooth="no" name="13" />
   <point x="432" y="454" type="line" smooth="no" name="13" />
   <point x="385" y="454" type="line" smooth="no" name="13" />
   <point x="385" y="102" type="line" smooth="no" name="13" />
   <point x="364" y="74" type="offcurve" name="14" />
   <point x="314" y="31" type="offcurve" name="14" />
   <point x="245" y="31" type="curve" smooth="yes" name="15" />
   <point x="168" y="31" type="offcurve" name="14" />
   <point x="125" y="83" type="offcurve" name="14" />
   <point x="125" y="187" type="curve" smooth="yes" name="15" />
   <point x="125" y="454" type="line" smooth="no" name="13" />
   <point x="78" y="454" type="line" smooth="no" name="13" />
   <point x="78" y="182" type="line" smooth="yes" name="15" />
   <point x="78" y="61" type="offcurve" name="14" />
   <point x="147" y="-12" type="offcurve" name="14" />
   <point x="233" y="-12" type="curve" smooth="yes" name="15" />
   <point x="303" y="-12" type="offcurve" name="14" />
   <point x="352" y="17" type="offcurve" name="14" />
  </contour>
 </outline>
</glyph>
<glyph name="v" format="1">
 <advance width="425" />
 <unicode hex="0076" />
 <outline>
  <contour>
   <point x="241" y="0" type="line" smooth="no" name="13" />
   <point x="410" y="454" type="line" smooth="no" name="13" />
   <point x="357" y="454" type="line" smooth="no" name="13" />
   <point x="214" y="54" type="line" smooth="no" name="13" />
   <point x="68" y="454" type="line" smooth="no" name="13" />
   <point x="15" y="454" type="line" smooth="no" name="13" />
   <point x="184" y="0" type="line" smooth="no" name="13" />
  </contour>
 </outline>
</glyph>
<glyph name="w" format="1">
 <advance width="683" />
 <unicode hex="0077" />
 <outline>
  <contour>
   <point x="222" y="0" type="line" smooth="no" name="13" />
   <point x="345" y="401" type="line" smooth="no" name="13" />
   <point x="462" y="0" type="line" smooth="no" name="13" />
   <point x="521" y="0" type="line" smooth="no" name="13" />
   <point x="668" y="454" type="line" smooth="no" name="13" />
   <point x="615" y="454" type="line" smooth="no" name="13" />
   <point x="492" y="53" type="line" smooth="no" name="13" />
   <point x="376" y="454" type="line" smooth="no" name="13" />
   <point x="316" y="454" type="line" smooth="no" name="13" />
   <point x="192" y="53" type="line" smooth="no" name="13" />
   <point x="68" y="454" type="line" smooth="no" name="13" />
   <point x="15" y="454" type="line" smooth="no" name="13" />
   <point x="163" y="0" type="line" smooth="no" name="13" />
  </contour>
 </outline>
</glyph>
<glyph name="x" format="1">
 <advance width="408" />
 <unicode hex="0078" />
 <outline>
  <contour>
   <point x="385" y="454" type="line" smooth="no" name="13" />
   <point x="332" y="454" type="line" smooth="no" name="13" />
   <point x="206" y="273" type="line" smooth="no" name="13" />
   <point x="90" y="454" type="line" smooth="no" name="13" />
   <point x="37" y="454" type="line" smooth="no" name="13" />
   <point x="175" y="236" type="line" smooth="no" name="13" />
   <point x="15" y="0" type="line" smooth="no" name="13" />
   <point x="69" y="0" type="line" smooth="no" name="13" />
   <point x="206" y="203" type="line" smooth="no" name="13" />
   <point x="340" y="0" type="line" smooth="no" name="13" />
   <point x="393" y="0" type="line" smooth="no" name="13" />
   <point x="236" y="239" type="line" smooth="no" name="13" />
  </contour>
 </outline>
</glyph>
<glyph name="y" format="1">
 <advance width="442" />
 <unicode hex="0079" />
 <outline>
  <contour>
   <point x="427" y="454" type="line" smooth="no" name="13" />
   <point x="374" y="454" type="line" smooth="no" name="13" />
   <point x="226" y="44" type="line" smooth="no" name="13" />
   <point x="68" y="454" type="line" smooth="no" name="13" />
   <point x="15" y="454" type="line" smooth="no" name="13" />
   <point x="194" y="0" type="line" smooth="no" name="13" />
   <point x="210" y="0" type="line" smooth="no" name="13" />
   <point x="198" y="-30" type="line" smooth="yes" name="15" />
   <point x="172" y="-96" type="offcurve" name="14" />
   <point x="150" y="-150" type="offcurve" name="14" />
   <point x="97" y="-150" type="curve" smooth="yes" name="15" />
   <point x="73" y="-150" type="offcurve" name="14" />
   <point x="54" y="-143" type="offcurve" name="14" />
   <point x="35" y="-135" type="curve" smooth="no" name="13" />
   <point x="18" y="-163" type="line" smooth="no" name="13" />
   <point x="44" y="-181" type="offcurve" name="14" />
   <point x="76" y="-191" type="offcurve" name="14" />
   <point x="106" y="-191" type="curve" smooth="yes" name="15" />
   <point x="163" y="-191" type="offcurve" name="14" />
   <point x="197" y="-154" type="offcurve" name="14" />
   <point x="228" y="-71" type="curve" smooth="yes" name="15" />
  </contour>
 </outline>
</glyph>
<glyph name="z" format="1">
 <advance width="399" />
 <unicode hex="007a" />
 <outline>
  <contour>
   <point x="374" y="0" type="line" smooth="no" name="13" />
   <point x="374" y="40" type="line" smooth="no" name="13" />
   <point x="81" y="40" type="line" smooth="no" name="13" />
   <point x="368" y="410" type="line" smooth="no" name="13" />
   <point x="368" y="454" type="line" smooth="no" name="13" />
   <point x="42" y="454" type="line" smooth="no" name="13" />
   <point x="42" y="414" type="line" smooth="no" name="13" />
   <point x="312" y="414" type="line" smooth="no" name="13" />
   <point x="25" y="42" type="line" smooth="no" name="13" />
   <point x="25" y="0" type="line" smooth="no" name="13" />
  </contour>
 </outline>
</glyph>
<glyph name="braceleft" format="1">
 <advance width="363" />
 <unicode hex="007b" />
 <outline>
  <contour>
   <point x="48" y="232" type="line" smooth="no" name="13" />
   <point x="103" y="220" type="offcurve" name="14" />
   <point x="156" y="169" type="offcurve" name="14" />
   <point x="156" y="74" type="curve" smooth="yes" name="15" />
   <point x="156" y="27" type="line" smooth="yes" name="15" />
   <point x="156" y="-89" type="offcurve" name="14" />
   <point x="181" y="-140" type="offcurve" name="14" />
   <point x="296" y="-140" type="curve" smooth="yes" name="15" />
   <point x="306" y="-140" type="line" smooth="no" name="13" />
   <point x="306" y="-95" type="line" smooth="no" name="13" />
   <point x="296" y="-95" type="line" smooth="yes" name="15" />
   <point x="225" y="-95" type="offcurve" name="14" />
   <point x="204" y="-81" type="offcurve" name="14" />
   <point x="204" y="27" type="curve" smooth="yes" name="15" />
   <point x="204" y="74" type="line" smooth="yes" name="15" />
   <point x="204" y="195" type="offcurve" name="14" />
   <point x="141" y="232" type="offcurve" name="14" />
   <point x="91" y="255" type="curve" smooth="no" name="13" />
   <point x="141" y="278" type="offcurve" name="14" />
   <point x="204" y="318" type="offcurve" name="14" />
   <point x="204" y="435" type="curve" smooth="yes" name="15" />
   <point x="204" y="479" type="line" smooth="yes" name="15" />
   <point x="204" y="586" type="offcurve" name="14" />
   <point x="225" y="600" type="offcurve" name="14" />
   <point x="296" y="600" type="curve" smooth="yes" name="15" />
   <point x="306" y="600" type="line" smooth="no" name="13" />
   <point x="306" y="645" type="line" smooth="no" name="13" />
   <point x="296" y="645" type="line" smooth="yes" name="15" />
   <point x="181" y="645" type="offcurve" name="14" />
   <point x="156" y="594" type="offcurve" name="14" />
   <point x="156" y="479" type="curve" smooth="yes" name="15" />
   <point x="156" y="435" type="line" smooth="yes" name="15" />
   <point x="156" y="335" type="offcurve" name="14" />
   <point x="106" y="288" type="offcurve" name="14" />
   <point x="48" y="279" type="curve" smooth="no" name="13" />
  </contour>
 </outline>
</glyph>
<glyph name="bar" format="1">
 <advance width="223" />
 <unicode hex="007c" />
 <outline>
  <contour>
   <point x="133" y="662" type="line" smooth="no" name="13" />
   <point x="90" y="662" type="line" smooth="no" name="13" />
   <point x="90" y="-179" type="line" smooth="no" name="13" />
   <point x="133" y="-179" type="line" smooth="no" name="13" />
  </contour>
 </outline>
</glyph>
<glyph name="braceright" format="1">
 <advance width="363" />
 <unicode hex="007d" />
 <outline>
  <contour>
   <point x="315" y="279" type="line" smooth="no" name="13" />
   <point x="257" y="288" type="offcurve" name="14" />
   <point x="207" y="335" type="offcurve" name="14" />
   <point x="207" y="435" type="curve" smooth="yes" name="15" />
   <point x="207" y="479" type="line" smooth="yes" name="15" />
   <point x="207" y="594" type="offcurve" name="14" />
   <point x="182" y="645" type="offcurve" name="14" />
   <point x="67" y="645" type="curve" smooth="yes" name="15" />
   <point x="57" y="645" type="line" smooth="no" name="13" />
   <point x="57" y="600" type="line" smooth="no" name="13" />
   <point x="67" y="600" type="line" smooth="yes" name="15" />
   <point x="138" y="600" type="offcurve" name="14" />
   <point x="159" y="586" type="offcurve" name="14" />
   <point x="159" y="479" type="curve" smooth="yes" name="15" />
   <point x="159" y="435" type="line" smooth="yes" name="15" />
   <point x="159" y="318" type="offcurve" name="14" />
   <point x="222" y="278" type="offcurve" name="14" />
   <point x="272" y="255" type="curve" smooth="no" name="13" />
   <point x="222" y="232" type="offcurve" name="14" />
   <point x="159" y="195" type="offcurve" name="14" />
   <point x="159" y="74" type="curve" smooth="yes" name="15" />
   <point x="159" y="27" type="line" smooth="yes" name="15" />
   <point x="159" y="-81" type="offcurve" name="14" />
   <point x="138" y="-95" type="offcurve" name="14" />
   <point x="67" y="-95" type="curve" smooth="yes" name="15" />
   <point x="57" y="-95" type="line" smooth="no" name="13" />
   <point x="57" y="-140" type="line" smooth="no" name="13" />
   <point x="67" y="-140" type="line" smooth="yes" name="15" />
   <point x="182" y="-140" type="offcurve" name="14" />
   <point x="207" y="-89" type="offcurve" name="14" />
   <point x="207" y="27" type="curve" smooth="yes" name="15" />
   <point x="207" y="74" type="line" smooth="yes" name="15" />
   <point x="207" y="169" type="offcurve" name="14" />
   <point x="260" y="220" type="offcurve" name="14" />
   <point x="315" y="232" type="curve" smooth="no" name="13" />
  </contour>
 </outline>
</glyph>
<glyph name="asciitilde" format="1">
 <advance width="471" />
 <unicode hex="007e" />
 <outline>
  <contour>
   <point x="429" y="275" type="curve" smooth="no" name="13" />
   <point x="417" y="282" type="line" smooth="no" name="13" />
   <point x="401" y="250" type="offcurve" name="14" />
   <point x="378" y="235" type="offcurve" name="14" />
   <point x="341" y="235" type="curve" smooth="yes" name="15" />
   <point x="312" y="235" type="offcurve" name="14" />
   <point x="291" y="244" type="offcurve" name="14" />
   <point x="245" y="265" type="curve" smooth="yes" name="15" />
   <point x="203" y="284" type="offcurve" name="14" />
   <point x="166" y="300" type="offcurve" name="14" />
   <point x="133" y="300" type="curve" smooth="yes" name="15" />
   <point x="92" y="300" type="offcurve" name="14" />
   <point x="60" y="270" type="offcurve" name="14" />
   <point x="42" y="219" type="curve" smooth="no" name="13" />
   <point x="54" y="210" type="line" smooth="no" name="13" />
   <point x="70" y="235" type="offcurve" name="14" />
   <point x="96" y="259" type="offcurve" name="14" />
   <point x="134" y="259" type="curve" smooth="yes" name="15" />
   <point x="170" y="259" type="offcurve" name="14" />
   <point x="196" y="247" type="offcurve" name="14" />
   <point x="223" y="234" type="curve" smooth="yes" name="15" />
   <point x="227" y="232" type="offcurve" name="14" />
   <point x="231" y="230" type="offcurve" name="14" />
   <point x="236" y="228" type="curve" smooth="yes" name="15" />
   <point x="241" y="226" type="offcurve" name="14" />
   <point x="245" y="224" type="offcurve" name="14" />
   <point x="250" y="222" type="curve" smooth="yes" name="15" />
   <point x="282" y="208" type="offcurve" name="14" />
   <point x="313" y="194" type="offcurve" name="14" />
   <point x="349" y="194" type="curve" smooth="yes" name="15" />
   <point x="380" y="194" type="offcurve" name="14" />
   <point x="412" y="216" type="offcurve" name="14" />
  </contour>
 </outline>
</glyph>
<glyph name="exclamdown" format="1">
 <advance width="195" />
 <unicode hex="00a1" />
 <outline>
  <contour>
   <point x="73" y="316" type="line" smooth="no" name="13" />
   <point x="73" y="-177" type="line" smooth="no" name="13" />
   <point x="120" y="-177" type="line" smooth="no" name="13" />
   <point x="120" y="316" type="line" smooth="no" name="13" />
  </contour>
  <contour>
   <point x="98" y="461" type="curve" smooth="yes" name="15" />
   <point x="77" y="461" type="offcurve" name="14" />
   <point x="66" y="450" type="offcurve" name="14" />
   <point x="66" y="428" type="curve" smooth="yes" name="15" />
   <point x="66" y="407" type="offcurve" name="14" />
   <point x="77" y="396" type="offcurve" name="14" />
   <point x="98" y="396" type="curve" smooth="yes" name="15" />
   <point x="119" y="396" type="offcurve" name="14" />
   <point x="129" y="407" type="offcurve" name="14" />
   <point x="129" y="428" type="curve" smooth="yes" name="15" />
   <point x="129" y="450" type="offcurve" name="14" />
   <point x="119" y="461" type="offcurve" name="14" />
  </contour>
 </outline>
</glyph>
<glyph name="cent" format="1">
 <advance width="467" />
 <unicode hex="00a2" />
 <outline>
  <contour>
   <point x="291" y="-11" type="line" smooth="no" name="13" />
   <point x="355" y="-8" type="offcurve" name="14" />
   <point x="396" y="14" type="offcurve" name="14" />
   <point x="419" y="33" type="curve" smooth="no" name="13" />
   <point x="401" y="63" type="line" smooth="no" name="13" />
   <point x="378" y="49" type="offcurve" name="14" />
   <point x="340" y="31" type="offcurve" name="14" />
   <point x="291" y="31" type="curve" smooth="no" name="13" />
   <point x="291" y="423" type="line" smooth="no" name="13" />
   <point x="336" y="421" type="offcurve" name="14" />
   <point x="368" y="407" type="offcurve" name="14" />
   <point x="390" y="395" type="curve" smooth="no" name="13" />
   <point x="409" y="423" type="line" smooth="no" name="13" />
   <point x="387" y="440" type="offcurve" name="14" />
   <point x="350" y="461" type="offcurve" name="14" />
   <point x="291" y="465" type="curve" smooth="no" name="13" />
   <point x="291" y="512" type="line" smooth="no" name="13" />
   <point x="260" y="512" type="line" smooth="no" name="13" />
   <point x="260" y="466" type="line" smooth="no" name="13" />
   <point x="139" y="461" type="offcurve" name="14" />
   <point x="48" y="358" type="offcurve" name="14" />
   <point x="48" y="225" type="curve" smooth="yes" name="15" />
   <point x="48" y="89" type="offcurve" name="14" />
   <point x="134" y="-5" type="offcurve" name="14" />
   <point x="260" y="-12" type="curve" smooth="no" name="13" />
   <point x="260" y="-52" type="line" smooth="no" name="13" />
   <point x="291" y="-52" type="line" smooth="no" name="13" />
  </contour>
  <contour>
   <point x="260" y="421" type="curve" smooth="no" name="13" />
   <point x="260" y="33" type="line" smooth="no" name="13" />
   <point x="154" y="45" type="offcurve" name="14" />
   <point x="101" y="124" type="offcurve" name="14" />
   <point x="101" y="222" type="curve" smooth="yes" name="15" />
   <point x="101" y="332" type="offcurve" name="14" />
   <point x="160" y="411" type="offcurve" name="14" />
  </contour>
 </outline>
</glyph>
<glyph name="sterling" format="1">
 <advance width="465" />
 <unicode hex="00a3" />
 <outline>
  <contour>
   <point x="336" y="323" type="line" smooth="no" name="13" />
   <point x="336" y="367" type="line" smooth="no" name="13" />
   <point x="171" y="367" type="line" smooth="no" name="13" />
   <point x="171" y="438" type="line" smooth="yes" name="15" />
   <point x="171" y="530" type="offcurve" name="14" />
   <point x="199" y="595" type="offcurve" name="14" />
   <point x="290" y="595" type="curve" smooth="yes" name="15" />
   <point x="332" y="595" type="offcurve" name="14" />
   <point x="369" y="578" type="offcurve" name="14" />
   <point x="399" y="557" type="curve" smooth="no" name="13" />
   <point x="423" y="591" type="line" smooth="no" name="13" />
   <point x="386" y="624" type="offcurve" name="14" />
   <point x="329" y="645" type="offcurve" name="14" />
   <point x="282" y="645" type="curve" smooth="yes" name="15" />
   <point x="153" y="645" type="offcurve" name="14" />
   <point x="115" y="541" type="offcurve" name="14" />
   <point x="115" y="430" type="curve" smooth="yes" name="15" />
   <point x="115" y="367" type="line" smooth="no" name="13" />
   <point x="42" y="367" type="line" smooth="no" name="13" />
   <point x="42" y="323" type="line" smooth="no" name="13" />
   <point x="115" y="323" type="line" smooth="no" name="13" />
   <point x="115" y="49" type="line" smooth="no" name="13" />
   <point x="44" y="49" type="line" smooth="no" name="13" />
   <point x="44" y="0" type="line" smooth="no" name="13" />
   <point x="419" y="0" type="line" smooth="no" name="13" />
   <point x="419" y="49" type="line" smooth="no" name="13" />
   <point x="171" y="49" type="line" smooth="no" name="13" />
   <point x="171" y="323" type="line" smooth="no" name="13" />
  </contour>
 </outline>
</glyph>
<glyph name="currency" format="1">
 <advance width="476" />
 <unicode hex="00a4" />
 <outline>
  <contour>
   <point x="432" y="101" type="line" smooth="yes" name="15" />
   <point x="433" y="100" type="offcurve" name="14" />
   <point x="434" y="99" type="offcurve" name="14" />
   <point x="436" y="99" type="curve" smooth="yes" name="15" />
   <point x="445" y="99" type="offcurve" name="14" />
   <point x="461" y="120" type="offcurve" name="14" />
   <point x="461" y="130" type="curve" smooth="yes" name="15" />
   <point x="461" y="132" type="offcurve" name="14" />
   <point x="461" y="133" type="offcurve" name="14" />
   <point x="460" y="134" type="curve" smooth="yes" name="15" />
   <point x="377" y="214" type="line" smooth="no" name="13" />
   <point x="398" y="242" type="offcurve" name="14" />
   <point x="411" y="274" type="offcurve" name="14" />
   <point x="411" y="315" type="curve" smooth="yes" name="15" />
   <point x="411" y="357" type="offcurve" name="14" />
   <point x="397" y="392" type="offcurve" name="14" />
   <point x="375" y="420" type="curve" smooth="no" name="13" />
   <point x="458" y="502" type="line" smooth="no" name="13" />
   <point x="459" y="504" type="offcurve" name="14" />
   <point x="460" y="505" type="offcurve" name="14" />
   <point x="460" y="507" type="curve" smooth="yes" name="15" />
   <point x="460" y="517" type="offcurve" name="14" />
   <point x="442" y="532" type="offcurve" name="14" />
   <point x="433" y="532" type="curve" smooth="yes" name="15" />
   <point x="432" y="532" type="offcurve" name="14" />
   <point x="430" y="531" type="offcurve" name="14" />
   <point x="429" y="530" type="curve" smooth="yes" name="15" />
   <point x="345" y="447" type="line" smooth="no" name="13" />
   <point x="317" y="467" type="offcurve" name="14" />
   <point x="282" y="478" type="offcurve" name="14" />
   <point x="244" y="478" type="curve" smooth="yes" name="15" />
   <point x="205" y="478" type="offcurve" name="14" />
   <point x="170" y="467" type="offcurve" name="14" />
   <point x="142" y="447" type="curve" smooth="no" name="13" />
   <point x="57" y="531" type="line" smooth="yes" name="15" />
   <point x="56" y="532" type="offcurve" name="14" />
   <point x="55" y="532" type="offcurve" name="14" />
   <point x="55" y="532" type="curve" smooth="yes" name="15" />
   <point x="47" y="532" type="offcurve" name="14" />
   <point x="27" y="514" type="offcurve" name="14" />
   <point x="27" y="505" type="curve" smooth="yes" name="15" />
   <point x="27" y="503" type="offcurve" name="14" />
   <point x="27" y="502" type="offcurve" name="14" />
   <point x="28" y="501" type="curve" smooth="yes" name="15" />
   <point x="112" y="418" type="line" smooth="no" name="13" />
   <point x="90" y="390" type="offcurve" name="14" />
   <point x="76" y="356" type="offcurve" name="14" />
   <point x="76" y="315" type="curve" smooth="yes" name="15" />
   <point x="76" y="274" type="offcurve" name="14" />
   <point x="89" y="241" type="offcurve" name="14" />
   <point x="109" y="215" type="curve" smooth="no" name="13" />
   <point x="28" y="135" type="line" smooth="no" name="13" />
   <point x="28" y="135" type="offcurve" name="14" />
   <point x="28" y="134" type="offcurve" name="14" />
   <point x="28" y="134" type="curve" smooth="yes" name="15" />
   <point x="28" y="126" type="offcurve" name="14" />
   <point x="48" y="103" type="offcurve" name="14" />
   <point x="56" y="103" type="curve" smooth="yes" name="15" />
   <point x="57" y="103" type="offcurve" name="14" />
   <point x="58" y="104" type="offcurve" name="14" />
   <point x="59" y="104" type="curve" smooth="no" name="13" />
   <point x="140" y="184" type="line" smooth="no" name="13" />
   <point x="168" y="162" type="offcurve" name="14" />
   <point x="203" y="152" type="offcurve" name="14" />
   <point x="244" y="152" type="curve" smooth="yes" name="15" />
   <point x="285" y="152" type="offcurve" name="14" />
   <point x="319" y="162" type="offcurve" name="14" />
   <point x="347" y="184" type="curve" smooth="no" name="13" />
  </contour>
  <contour>
   <point x="245" y="191" type="curve" smooth="yes" name="15" />
   <point x="173" y="191" type="offcurve" name="14" />
   <point x="121" y="235" type="offcurve" name="14" />
   <point x="121" y="315" type="curve" smooth="yes" name="15" />
   <point x="121" y="394" type="offcurve" name="14" />
   <point x="173" y="441" type="offcurve" name="14" />
   <point x="245" y="441" type="curve" smooth="yes" name="15" />
   <point x="320" y="441" type="offcurve" name="14" />
   <point x="365" y="394" type="offcurve" name="14" />
   <point x="365" y="315" type="curve" smooth="yes" name="15" />
   <point x="365" y="235" type="offcurve" name="14" />
   <point x="320" y="191" type="offcurve" name="14" />
  </contour>
 </outline>
</glyph>
<glyph name="yen" format="1">
 <advance width="439" />
 <unicode hex="00a5" />
 <outline>
  <contour>
   <point x="189" y="0" type="line" smooth="no" name="13" />
   <point x="247" y="0" type="line" smooth="no" name="13" />
   <point x="247" y="187" type="line" smooth="no" name="13" />
   <point x="357" y="187" type="line" smooth="no" name="13" />
   <point x="357" y="231" type="line" smooth="no" name="13" />
   <point x="247" y="231" type="line" smooth="no" name="13" />
   <point x="247" y="271" type="line" smooth="no" name="13" />
   <point x="357" y="271" type="line" smooth="no" name="13" />
   <point x="357" y="316" type="line" smooth="no" name="13" />
   <point x="247" y="316" type="line" smooth="no" name="13" />
   <point x="407" y="632" type="line" smooth="no" name="13" />
   <point x="351" y="632" type="line" smooth="no" name="13" />
   <point x="220" y="374" type="line" smooth="no" name="13" />
   <point x="87" y="632" type="line" smooth="no" name="13" />
   <point x="31" y="632" type="line" smooth="no" name="13" />
   <point x="189" y="316" type="line" smooth="no" name="13" />
   <point x="82" y="316" type="line" smooth="no" name="13" />
   <point x="82" y="271" type="line" smooth="no" name="13" />
   <point x="189" y="271" type="line" smooth="no" name="13" />
   <point x="189" y="231" type="line" smooth="no" name="13" />
   <point x="82" y="231" type="line" smooth="no" name="13" />
   <point x="82" y="187" type="line" smooth="no" name="13" />
   <point x="189" y="187" type="line" smooth="no" name="13" />
  </contour>
 </outline>
</glyph>
<glyph name="brokenbar" format="1">
 <advance width="223" />
 <unicode hex="00a6" />
 <outline>
  <contour>
   <point x="90" y="215" type="line" smooth="no" name="13" />
   <point x="90" y="-192" type="line" smooth="no" name="13" />
   <point x="133" y="-192" type="line" smooth="no" name="13" />
   <point x="133" y="215" type="line" smooth="no" name="13" />
  </contour>
  <contour>
   <point x="133" y="676" type="line" smooth="no" name="13" />
   <point x="90" y="676" type="line" smooth="no" name="13" />
   <point x="90" y="305" type="line" smooth="no" name="13" />
   <point x="133" y="305" type="line" smooth="no" name="13" />
  </contour>
 </outline>
</glyph>
<glyph name="section" format="1">
 <advance width="435" />
 <unicode hex="00a7" />
 <outline>
  <contour>
   <point x="305" y="128" type="curve" smooth="no" name="13" />
   <point x="352" y="153" type="offcurve" name="14" />
   <point x="385" y="192" type="offcurve" name="14" />
   <point x="385" y="245" type="curve" smooth="yes" name="15" />
   <point x="385" y="338" type="offcurve" name="14" />
   <point x="320" y="373" type="offcurve" name="14" />
   <point x="251" y="399" type="curve" smooth="yes" name="15" />
   <point x="175" y="428" type="offcurve" name="14" />
   <point x="121" y="459" type="offcurve" name="14" />
   <point x="121" y="519" type="curve" smooth="yes" name="15" />
   <point x="121" y="573" type="offcurve" name="14" />
   <point x="166" y="604" type="offcurve" name="14" />
   <point x="230" y="604" type="curve" smooth="yes" name="15" />
   <point x="268" y="604" type="offcurve" name="14" />
   <point x="306" y="596" type="offcurve" name="14" />
   <point x="336" y="582" type="curve" smooth="no" name="13" />
   <point x="340" y="589" type="line" smooth="no" name="13" />
   <point x="352" y="606" type="line" smooth="no" name="13" />
   <point x="320" y="627" type="offcurve" name="14" />
   <point x="267" y="645" type="offcurve" name="14" />
   <point x="217" y="645" type="curve" smooth="yes" name="15" />
   <point x="129" y="645" type="offcurve" name="14" />
   <point x="71" y="595" type="offcurve" name="14" />
   <point x="71" y="513" type="curve" smooth="yes" name="15" />
   <point x="71" y="468" type="offcurve" name="14" />
   <point x="97" y="426" type="offcurve" name="14" />
   <point x="139" y="398" type="curve" smooth="no" name="13" />
   <point x="109" y="382" type="offcurve" name="14" />
   <point x="50" y="348" type="offcurve" name="14" />
   <point x="50" y="269" type="curve" smooth="yes" name="15" />
   <point x="50" y="177" type="offcurve" name="14" />
   <point x="129" y="141" type="offcurve" name="14" />
   <point x="206" y="115" type="curve" smooth="yes" name="15" />
   <point x="291" y="86" type="offcurve" name="14" />
   <point x="323" y="54" type="offcurve" name="14" />
   <point x="323" y="0" type="curve" smooth="yes" name="15" />
   <point x="323" y="-66" type="offcurve" name="14" />
   <point x="276" y="-96" type="offcurve" name="14" />
   <point x="193" y="-96" type="curve" smooth="yes" name="15" />
   <point x="175" y="-96" type="offcurve" name="14" />
   <point x="124" y="-92" type="offcurve" name="14" />
   <point x="80" y="-73" type="curve" smooth="no" name="13" />
   <point x="67" y="-97" type="line" smooth="no" name="13" />
   <point x="102" y="-120" type="offcurve" name="14" />
   <point x="153" y="-140" type="offcurve" name="14" />
   <point x="212" y="-140" type="curve" smooth="yes" name="15" />
   <point x="313" y="-140" type="offcurve" name="14" />
   <point x="373" y="-75" type="offcurve" name="14" />
   <point x="373" y="9" type="curve" smooth="yes" name="15" />
   <point x="373" y="66" type="offcurve" name="14" />
   <point x="344" y="106" type="offcurve" name="14" />
  </contour>
  <contour>
   <point x="161" y="384" type="curve" smooth="no" name="13" />
   <point x="182" y="372" type="offcurve" name="14" />
   <point x="203" y="364" type="offcurve" name="14" />
   <point x="230" y="354" type="curve" smooth="yes" name="15" />
   <point x="235" y="352" type="offcurve" name="14" />
   <point x="242" y="349" type="offcurve" name="14" />
   <point x="248" y="347" type="curve" smooth="yes" name="15" />
   <point x="301" y="327" type="offcurve" name="14" />
   <point x="340" y="291" type="offcurve" name="14" />
   <point x="340" y="236" type="curve" smooth="yes" name="15" />
   <point x="340" y="191" type="offcurve" name="14" />
   <point x="298" y="149" type="offcurve" name="14" />
   <point x="275" y="140" type="curve" smooth="no" name="13" />
   <point x="269" y="142" type="offcurve" name="14" />
   <point x="263" y="144" type="offcurve" name="14" />
   <point x="258" y="146" type="curve" smooth="yes" name="15" />
   <point x="248" y="150" type="offcurve" name="14" />
   <point x="239" y="153" type="offcurve" name="14" />
   <point x="227" y="157" type="curve" smooth="yes" name="15" />
   <point x="119" y="194" type="offcurve" name="14" />
   <point x="99" y="233" type="offcurve" name="14" />
   <point x="99" y="284" type="curve" smooth="yes" name="15" />
   <point x="99" y="326" type="offcurve" name="14" />
   <point x="123" y="359" type="offcurve" name="14" />
  </contour>
 </outline>
</glyph>
<glyph name="dieresis" format="1">
 <advance width="280" />
 <unicode hex="00a8" />
 <outline>
  <contour>
   <point x="34" y="609" type="curve" smooth="yes" name="15" />
   <point x="34" y="589" type="offcurve" name="14" />
   <point x="50" y="573" type="offcurve" name="14" />
   <point x="70" y="573" type="curve" smooth="yes" name="15" />
   <point x="90" y="573" type="offcurve" name="14" />
   <point x="106" y="589" type="offcurve" name="14" />
   <point x="106" y="609" type="curve" smooth="yes" name="15" />
   <point x="106" y="629" type="offcurve" name="14" />
   <point x="90" y="645" type="offcurve" name="14" />
   <point x="70" y="645" type="curve" smooth="yes" name="15" />
   <point x="50" y="645" type="offcurve" name="14" />
   <point x="34" y="629" type="offcurve" name="14" />
  </contour>
  <contour>
   <point x="174" y="609" type="curve" smooth="yes" name="15" />
   <point x="174" y="589" type="offcurve" name="14" />
   <point x="190" y="573" type="offcurve" name="14" />
   <point x="210" y="573" type="curve" smooth="yes" name="15" />
   <point x="230" y="573" type="offcurve" name="14" />
   <point x="246" y="589" type="offcurve" name="14" />
   <point x="246" y="609" type="curve" smooth="yes" name="15" />
   <point x="246" y="629" type="offcurve" name="14" />
   <point x="230" y="645" type="offcurve" name="14" />
   <point x="210" y="645" type="curve" smooth="yes" name="15" />
   <point x="190" y="645" type="offcurve" name="14" />
   <point x="174" y="629" type="offcurve" name="14" />
  </contour>
 </outline>
</glyph>
<glyph name="copyright" format="1">
 <advance width="698" />
 <unicode hex="00a9" />
 <outline>
  <contour>
   <point x="487" y="167" type="curve" smooth="no" name="13" />
   <point x="471" y="197" type="line" smooth="no" name="13" />
   <point x="448" y="181" type="offcurve" name="14" />
   <point x="411" y="167" type="offcurve" name="14" />
   <point x="371" y="167" type="curve" smooth="yes" name="15" />
   <point x="274" y="167" type="offcurve" name="14" />
   <point x="229" y="242" type="offcurve" name="14" />
   <point x="229" y="308" type="curve" smooth="yes" name="15" />
   <point x="229" y="386" type="offcurve" name="14" />
   <point x="270" y="461" type="offcurve" name="14" />
   <point x="364" y="461" type="curve" smooth="yes" name="15" />
   <point x="414" y="461" type="offcurve" name="14" />
   <point x="445" y="446" type="offcurve" name="14" />
   <point x="468" y="433" type="curve" smooth="no" name="13" />
   <point x="480" y="459" type="line" smooth="no" name="13" />
   <point x="456" y="478" type="offcurve" name="14" />
   <point x="421" y="502" type="offcurve" name="14" />
   <point x="358" y="502" type="curve" smooth="yes" name="15" />
   <point x="254" y="502" type="offcurve" name="14" />
   <point x="179" y="417" type="offcurve" name="14" />
   <point x="179" y="311" type="curve" smooth="yes" name="15" />
   <point x="179" y="210" type="offcurve" name="14" />
   <point x="252" y="124" type="offcurve" name="14" />
   <point x="355" y="124" type="curve" smooth="yes" name="15" />
   <point x="421" y="124" type="offcurve" name="14" />
   <point x="462" y="148" type="offcurve" name="14" />
  </contour>
  <contour>
   <point x="349" y="617" type="curve" smooth="yes" name="15" />
   <point x="184" y="617" type="offcurve" name="14" />
   <point x="48" y="481" type="offcurve" name="14" />
   <point x="48" y="315" type="curve" smooth="yes" name="15" />
   <point x="48" y="150" type="offcurve" name="14" />
   <point x="184" y="14" type="offcurve" name="14" />
   <point x="349" y="14" type="curve" smooth="yes" name="15" />
   <point x="514" y="14" type="offcurve" name="14" />
   <point x="650" y="150" type="offcurve" name="14" />
   <point x="650" y="315" type="curve" smooth="yes" name="15" />
   <point x="650" y="481" type="offcurve" name="14" />
   <point x="514" y="617" type="offcurve" name="14" />
  </contour>
  <contour>
   <point x="351" y="53" type="curve" smooth="yes" name="15" />
   <point x="204" y="53" type="offcurve" name="14" />
   <point x="90" y="169" type="offcurve" name="14" />
   <point x="90" y="315" type="curve" smooth="yes" name="15" />
   <point x="90" y="462" type="offcurve" name="14" />
   <point x="200" y="577" type="offcurve" name="14" />
   <point x="347" y="577" type="curve" smooth="yes" name="15" />
   <point x="494" y="577" type="offcurve" name="14" />
   <point x="608" y="462" type="offcurve" name="14" />
   <point x="608" y="315" type="curve" smooth="yes" name="15" />
   <point x="608" y="169" type="offcurve" name="14" />
   <point x="498" y="53" type="offcurve" name="14" />
  </contour>
 </outline>
</glyph>
<glyph name="ordfeminine" format="1">
 <advance width="268" />
 <unicode hex="00aa" />
 <outline>
  <contour>
   <point x="226" y="406" type="line" smooth="no" name="13" />
   <point x="226" y="544" type="line" smooth="yes" name="15" />
   <point x="226" y="611" type="offcurve" name="14" />
   <point x="191" y="645" type="offcurve" name="14" />
   <point x="133" y="645" type="curve" smooth="yes" name="15" />
   <point x="94" y="645" type="offcurve" name="14" />
   <point x="66" y="631" type="offcurve" name="14" />
   <point x="41" y="611" type="curve" smooth="no" name="13" />
   <point x="59" y="587" type="line" smooth="no" name="13" />
   <point x="81" y="603" type="offcurve" name="14" />
   <point x="104" y="612" type="offcurve" name="14" />
   <point x="124" y="612" type="curve" smooth="yes" name="15" />
   <point x="160" y="612" type="offcurve" name="14" />
   <point x="182" y="588" type="offcurve" name="14" />
   <point x="182" y="552" type="curve" smooth="yes" name="15" />
   <point x="182" y="550" type="line" smooth="no" name="13" />
   <point x="155" y="550" type="line" smooth="yes" name="15" />
   <point x="72" y="550" type="offcurve" name="14" />
   <point x="33" y="522" type="offcurve" name="14" />
   <point x="33" y="473" type="curve" smooth="yes" name="15" />
   <point x="33" y="424" type="offcurve" name="14" />
   <point x="72" y="400" type="offcurve" name="14" />
   <point x="109" y="400" type="curve" smooth="yes" name="15" />
   <point x="137" y="400" type="offcurve" name="14" />
   <point x="169" y="415" type="offcurve" name="14" />
   <point x="185" y="446" type="curve" smooth="no" name="13" />
   <point x="191" y="406" type="line" smooth="no" name="13" />
  </contour>
  <contour>
   <point x="181" y="524" type="line" smooth="no" name="13" />
   <point x="181" y="480" type="line" smooth="no" name="13" />
   <point x="174" y="456" type="offcurve" name="14" />
   <point x="151" y="435" type="offcurve" name="14" />
   <point x="123" y="435" type="curve" smooth="yes" name="15" />
   <point x="96" y="435" type="offcurve" name="14" />
   <point x="76" y="449" type="offcurve" name="14" />
   <point x="76" y="476" type="curve" smooth="yes" name="15" />
   <point x="76" y="508" type="offcurve" name="14" />
   <point x="103" y="524" type="offcurve" name="14" />
   <point x="157" y="524" type="curve" smooth="yes" name="15" />
  </contour>
 </outline>
</glyph>
<glyph name="guillemotleft" format="1">
 <advance width="478" />
 <unicode hex="00ab" />
 <outline>
  <contour>
   <point x="250" y="24" type="curve" smooth="no" name="13" />
   <point x="250" y="69" type="line" smooth="no" name="13" />
   <point x="184" y="103" type="offcurve" name="14" />
   <point x="132" y="168" type="offcurve" name="14" />
   <point x="101" y="237" type="curve" smooth="no" name="13" />
   <point x="132" y="307" type="offcurve" name="14" />
   <point x="184" y="372" type="offcurve" name="14" />
   <point x="250" y="406" type="curve" smooth="no" name="13" />
   <point x="250" y="451" type="line" smooth="no" name="13" />
   <point x="175" y="425" type="offcurve" name="14" />
   <point x="98" y="339" type="offcurve" name="14" />
   <point x="52" y="237" type="curve" smooth="no" name="13" />
   <point x="98" y="136" type="offcurve" name="14" />
   <point x="175" y="50" type="offcurve" name="14" />
  </contour>
  <contour>
   <point x="436" y="24" type="curve" smooth="no" name="13" />
   <point x="436" y="69" type="line" smooth="no" name="13" />
   <point x="371" y="103" type="offcurve" name="14" />
   <point x="319" y="168" type="offcurve" name="14" />
   <point x="287" y="237" type="curve" smooth="no" name="13" />
   <point x="319" y="307" type="offcurve" name="14" />
   <point x="371" y="372" type="offcurve" name="14" />
   <point x="436" y="406" type="curve" smooth="no" name="13" />
   <point x="436" y="451" type="line" smooth="no" name="13" />
   <point x="361" y="425" type="offcurve" name="14" />
   <point x="284" y="339" type="offcurve" name="14" />
   <point x="238" y="237" type="curve" smooth="no" name="13" />
   <point x="284" y="136" type="offcurve" name="14" />
   <point x="361" y="50" type="offcurve" name="14" />
  </contour>
 </outline>
</glyph>
<glyph name="registered" format="1">
 <advance width="414" />
 <unicode hex="00ae" />
 <outline>
  <contour>
   <point x="202" y="470" type="line" smooth="no" name="13" />
   <point x="234" y="410" type="line" smooth="no" name="13" />
   <point x="266" y="410" type="line" smooth="no" name="13" />
   <point x="230" y="474" type="line" smooth="no" name="13" />
   <point x="245" y="480" type="offcurve" name="14" />
   <point x="261" y="494" type="offcurve" name="14" />
   <point x="261" y="520" type="curve" smooth="yes" name="15" />
   <point x="261" y="551" type="offcurve" name="14" />
   <point x="241" y="567" type="offcurve" name="14" />
   <point x="202" y="567" type="curve" smooth="yes" name="15" />
   <point x="153" y="567" type="line" smooth="no" name="13" />
   <point x="153" y="410" type="line" smooth="no" name="13" />
   <point x="179" y="410" type="line" smooth="no" name="13" />
   <point x="179" y="470" type="line" smooth="no" name="13" />
  </contour>
  <contour>
   <point x="203" y="544" type="line" smooth="yes" name="15" />
   <point x="221" y="544" type="offcurve" name="14" />
   <point x="234" y="538" type="offcurve" name="14" />
   <point x="234" y="518" type="curve" smooth="yes" name="15" />
   <point x="234" y="500" type="offcurve" name="14" />
   <point x="224" y="495" type="offcurve" name="14" />
   <point x="203" y="495" type="curve" smooth="yes" name="15" />
   <point x="179" y="495" type="line" smooth="no" name="13" />
   <point x="179" y="544" type="line" smooth="no" name="13" />
  </contour>
  <contour>
   <point x="207" y="322" type="curve" smooth="yes" name="15" />
   <point x="296" y="322" type="offcurve" name="14" />
   <point x="369" y="395" type="offcurve" name="14" />
   <point x="369" y="484" type="curve" smooth="yes" name="15" />
   <point x="369" y="573" type="offcurve" name="14" />
   <point x="296" y="645" type="offcurve" name="14" />
   <point x="207" y="645" type="curve" smooth="yes" name="15" />
   <point x="118" y="645" type="offcurve" name="14" />
   <point x="45" y="573" type="offcurve" name="14" />
   <point x="45" y="484" type="curve" smooth="yes" name="15" />
   <point x="45" y="395" type="offcurve" name="14" />
   <point x="118" y="322" type="offcurve" name="14" />
  </contour>
  <contour>
   <point x="207" y="615" type="curve" smooth="yes" name="15" />
   <point x="280" y="615" type="offcurve" name="14" />
   <point x="338" y="556" type="offcurve" name="14" />
   <point x="338" y="484" type="curve" smooth="yes" name="15" />
   <point x="338" y="411" type="offcurve" name="14" />
   <point x="280" y="352" type="offcurve" name="14" />
   <point x="207" y="352" type="curve" smooth="yes" name="15" />
   <point x="134" y="352" type="offcurve" name="14" />
   <point x="76" y="411" type="offcurve" name="14" />
   <point x="76" y="484" type="curve" smooth="yes" name="15" />
   <point x="76" y="556" type="offcurve" name="14" />
   <point x="134" y="615" type="offcurve" name="14" />
  </contour>
 </outline>
</glyph>
<glyph name="macron" format="1">
 <advance width="216" />
 <unicode hex="00af" />
 <outline>
  <contour>
   <point x="200" y="594" type="line" smooth="no" name="13" />
   <point x="200" y="633" type="line" smooth="no" name="13" />
   <point x="16" y="633" type="line" smooth="no" name="13" />
   <point x="16" y="594" type="line" smooth="no" name="13" />
  </contour>
 </outline>
</glyph>
<glyph name="degree" format="1">
 <advance width="276" />
 <unicode hex="00b0" />
 <outline>
  <contour>
   <point x="25" y="539" type="curve" smooth="yes" name="15" />
   <point x="25" y="477" type="offcurve" name="14" />
   <point x="76" y="426" type="offcurve" name="14" />
   <point x="138" y="426" type="curve" smooth="yes" name="15" />
   <point x="200" y="426" type="offcurve" name="14" />
   <point x="251" y="477" type="offcurve" name="14" />
   <point x="251" y="539" type="curve" smooth="yes" name="15" />
   <point x="251" y="601" type="offcurve" name="14" />
   <point x="200" y="652" type="offcurve" name="14" />
   <point x="138" y="652" type="curve" smooth="yes" name="15" />
   <point x="76" y="652" type="offcurve" name="14" />
   <point x="25" y="601" type="offcurve" name="14" />
  </contour>
  <contour>
   <point x="56" y="540" type="curve" smooth="yes" name="15" />
   <point x="56" y="586" type="offcurve" name="14" />
   <point x="92" y="623" type="offcurve" name="14" />
   <point x="139" y="623" type="curve" smooth="yes" name="15" />
   <point x="185" y="623" type="offcurve" name="14" />
   <point x="221" y="586" type="offcurve" name="14" />
   <point x="221" y="540" type="curve" smooth="yes" name="15" />
   <point x="221" y="493" type="offcurve" name="14" />
   <point x="185" y="456" type="offcurve" name="14" />
   <point x="139" y="456" type="curve" smooth="yes" name="15" />
   <point x="92" y="456" type="offcurve" name="14" />
   <point x="56" y="493" type="offcurve" name="14" />
  </contour>
 </outline>
</glyph>
<glyph name="plusminus" format="1">
 <advance width="499" />
 <unicode hex="00b1" />
 <outline>
  <contour>
   <point x="227" y="260" type="line" smooth="no" name="13" />
   <point x="227" y="106" type="line" smooth="no" name="13" />
   <point x="270" y="106" type="line" smooth="no" name="13" />
   <point x="270" y="260" type="line" smooth="no" name="13" />
   <point x="457" y="260" type="line" smooth="no" name="13" />
   <point x="457" y="300" type="line" smooth="no" name="13" />
   <point x="270" y="300" type="line" smooth="no" name="13" />
   <point x="270" y="454" type="line" smooth="no" name="13" />
   <point x="227" y="454" type="line" smooth="no" name="13" />
   <point x="227" y="300" type="line" smooth="no" name="13" />
   <point x="42" y="300" type="line" smooth="no" name="13" />
   <point x="42" y="260" type="line" smooth="no" name="13" />
  </contour>
  <contour>
   <point x="457" y="0" type="line" smooth="no" name="13" />
   <point x="457" y="40" type="line" smooth="no" name="13" />
   <point x="42" y="40" type="line" smooth="no" name="13" />
   <point x="42" y="0" type="line" smooth="no" name="13" />
  </contour>
 </outline>
</glyph>
<glyph name="twosuperior" format="1">
 <advance width="331" />
 <unicode hex="00b2" />
 <outline>
  <contour>
   <point x="62" y="316" type="line" smooth="no" name="13" />
   <point x="272" y="316" type="line" smooth="no" name="13" />
   <point x="272" y="359" type="line" smooth="no" name="13" />
   <point x="127" y="359" type="line" smooth="no" name="13" />
   <point x="197" y="426" type="line" smooth="yes" name="15" />
   <point x="250" y="477" type="offcurve" name="14" />
   <point x="270" y="505" type="offcurve" name="14" />
   <point x="270" y="548" type="curve" smooth="yes" name="15" />
   <point x="270" y="588" type="offcurve" name="14" />
   <point x="245" y="645" type="offcurve" name="14" />
   <point x="164" y="645" type="curve" smooth="yes" name="15" />
   <point x="135" y="645" type="offcurve" name="14" />
   <point x="97" y="633" type="offcurve" name="14" />
   <point x="59" y="600" type="curve" smooth="no" name="13" />
   <point x="77" y="575" type="line" smooth="no" name="13" />
   <point x="109" y="593" type="offcurve" name="14" />
   <point x="130" y="602" type="offcurve" name="14" />
   <point x="159" y="602" type="curve" smooth="yes" name="15" />
   <point x="198" y="602" type="offcurve" name="14" />
   <point x="226" y="583" type="offcurve" name="14" />
   <point x="226" y="545" type="curve" smooth="yes" name="15" />
   <point x="226" y="513" type="offcurve" name="14" />
   <point x="205" y="490" type="offcurve" name="14" />
   <point x="160" y="449" type="curve" smooth="yes" name="15" />
   <point x="62" y="360" type="line" smooth="no" name="13" />
  </contour>
 </outline>
</glyph>
<glyph name="threesuperior" format="1">
 <advance width="347" />
 <unicode hex="00b3" />
 <outline>
  <contour>
   <point x="138" y="469" type="line" smooth="no" name="13" />
   <point x="168" y="469" type="line" smooth="yes" name="15" />
   <point x="218" y="469" type="offcurve" name="14" />
   <point x="242" y="450" type="offcurve" name="14" />
   <point x="242" y="410" type="curve" smooth="yes" name="15" />
   <point x="242" y="372" type="offcurve" name="14" />
   <point x="200" y="357" type="offcurve" name="14" />
   <point x="167" y="357" type="curve" smooth="yes" name="15" />
   <point x="143" y="357" type="offcurve" name="14" />
   <point x="116" y="364" type="offcurve" name="14" />
   <point x="92" y="378" type="curve" smooth="no" name="13" />
   <point x="73" y="355" type="line" smooth="no" name="13" />
   <point x="104" y="329" type="offcurve" name="14" />
   <point x="140" y="314" type="offcurve" name="14" />
   <point x="173" y="314" type="curve" smooth="yes" name="15" />
   <point x="258" y="314" type="offcurve" name="14" />
   <point x="288" y="370" type="offcurve" name="14" />
   <point x="288" y="411" type="curve" smooth="yes" name="15" />
   <point x="288" y="454" type="offcurve" name="14" />
   <point x="265" y="481" type="offcurve" name="14" />
   <point x="236" y="490" type="curve" smooth="no" name="13" />
   <point x="260" y="503" type="offcurve" name="14" />
   <point x="282" y="531" type="offcurve" name="14" />
   <point x="282" y="563" type="curve" smooth="yes" name="15" />
   <point x="282" y="599" type="offcurve" name="14" />
   <point x="258" y="645" type="offcurve" name="14" />
   <point x="180" y="645" type="curve" smooth="yes" name="15" />
   <point x="149" y="645" type="offcurve" name="14" />
   <point x="112" y="635" type="offcurve" name="14" />
   <point x="73" y="603" type="curve" smooth="no" name="13" />
   <point x="91" y="581" type="line" smooth="no" name="13" />
   <point x="124" y="598" type="offcurve" name="14" />
   <point x="143" y="602" type="offcurve" name="14" />
   <point x="171" y="602" type="curve" smooth="yes" name="15" />
   <point x="205" y="602" type="offcurve" name="14" />
   <point x="237" y="587" type="offcurve" name="14" />
   <point x="237" y="556" type="curve" smooth="yes" name="15" />
   <point x="237" y="526" type="offcurve" name="14" />
   <point x="216" y="511" type="offcurve" name="14" />
   <point x="168" y="511" type="curve" smooth="yes" name="15" />
   <point x="138" y="511" type="line" smooth="no" name="13" />
  </contour>
 </outline>
</glyph>
<glyph name="acute" format="1">
 <advance width="153" />
 <unicode hex="00b4" />
 <outline>
  <contour>
   <point x="128" y="655" type="line" smooth="no" name="13" />
   <point x="73" y="655" type="line" smooth="no" name="13" />
   <point x="25" y="553" type="line" smooth="no" name="13" />
   <point x="52" y="553" type="line" smooth="no" name="13" />
  </contour>
 </outline>
</glyph>
<glyph name="mu" format="1">
 <advance width="536" />
 <unicode hex="00b5" />
 <outline>
  <contour>
   <point x="127" y="31" type="line" smooth="no" name="13" />
   <point x="149" y="2" type="offcurve" name="14" />
   <point x="192" y="-12" type="offcurve" name="14" />
   <point x="229" y="-12" type="curve" smooth="yes" name="15" />
   <point x="283" y="-12" type="offcurve" name="14" />
   <point x="335" y="21" type="offcurve" name="14" />
   <point x="364" y="65" type="curve" smooth="no" name="13" />
   <point x="370" y="13" type="offcurve" name="14" />
   <point x="401" y="-13" type="offcurve" name="14" />
   <point x="446" y="-13" type="curve" smooth="yes" name="15" />
   <point x="477" y="-13" type="offcurve" name="14" />
   <point x="501" y="4" type="offcurve" name="14" />
   <point x="513" y="17" type="curve" smooth="no" name="13" />
   <point x="500" y="39" type="line" smooth="no" name="13" />
   <point x="491" y="35" type="offcurve" name="14" />
   <point x="480" y="31" type="offcurve" name="14" />
   <point x="462" y="31" type="curve" smooth="yes" name="15" />
   <point x="432" y="31" type="offcurve" name="14" />
   <point x="414" y="48" type="offcurve" name="14" />
   <point x="414" y="97" type="curve" smooth="yes" name="15" />
   <point x="414" y="454" type="line" smooth="no" name="13" />
   <point x="365" y="454" type="line" smooth="no" name="13" />
   <point x="365" y="115" type="line" smooth="no" name="13" />
   <point x="348" y="83" type="offcurve" name="14" />
   <point x="308" y="37" type="offcurve" name="14" />
   <point x="238" y="37" type="curve" smooth="yes" name="15" />
   <point x="175" y="37" type="offcurve" name="14" />
   <point x="127" y="74" type="offcurve" name="14" />
   <point x="127" y="170" type="curve" smooth="yes" name="15" />
   <point x="127" y="454" type="line" smooth="no" name="13" />
   <point x="78" y="454" type="line" smooth="no" name="13" />
   <point x="78" y="-178" type="line" smooth="no" name="13" />
   <point x="127" y="-178" type="line" smooth="no" name="13" />
  </contour>
 </outline>
</glyph>
<glyph name="paragraph" format="1">
 <advance width="414" />
 <unicode hex="00b6" />
 <outline>
  <contour>
   <point x="324" y="0" type="line" smooth="no" name="13" />
   <point x="324" y="633" type="line" smooth="no" name="13" />
   <point x="300" y="633" type="line" smooth="no" name="13" />
   <point x="300" y="0" type="line" smooth="no" name="13" />
  </contour>
  <contour>
   <point x="245" y="0" type="line" smooth="no" name="13" />
   <point x="269" y="0" type="line" smooth="no" name="13" />
   <point x="269" y="633" type="line" smooth="no" name="13" />
   <point x="200" y="633" type="line" smooth="yes" name="15" />
   <point x="118" y="633" type="offcurve" name="14" />
   <point x="46" y="584" type="offcurve" name="14" />
   <point x="46" y="498" type="curve" smooth="yes" name="15" />
   <point x="46" y="425" type="offcurve" name="14" />
   <point x="98" y="370" type="offcurve" name="14" />
   <point x="202" y="370" type="curve" smooth="yes" name="15" />
   <point x="245" y="370" type="line" smooth="no" name="13" />
  </contour>
 </outline>
</glyph>
<glyph name="periodcentered" format="1">
 <advance width="162" />
 <unicode hex="00b7" />
 <outline>
  <contour>
   <point x="39" y="350" type="curve" smooth="yes" name="15" />
   <point x="39" y="327" type="offcurve" name="14" />
   <point x="58" y="308" type="offcurve" name="14" />
   <point x="81" y="308" type="curve" smooth="yes" name="15" />
   <point x="104" y="308" type="offcurve" name="14" />
   <point x="123" y="327" type="offcurve" name="14" />
   <point x="123" y="350" type="curve" smooth="yes" name="15" />
   <point x="123" y="373" type="offcurve" name="14" />
   <point x="104" y="392" type="offcurve" name="14" />
   <point x="81" y="392" type="curve" smooth="yes" name="15" />
   <point x="58" y="392" type="offcurve" name="14" />
   <point x="39" y="373" type="offcurve" name="14" />
  </contour>
 </outline>
</glyph>
<glyph name="cedilla" format="1">
 <advance width="207" />
 <unicode hex="00b8" />
 <outline>
  <contour>
   <point x="52" y="-56" type="line" smooth="no" name="13" />
   <point x="70" y="-53" type="offcurve" name="14" />
   <point x="83" y="-53" type="offcurve" name="14" />
   <point x="88" y="-53" type="curve" smooth="yes" name="15" />
   <point x="114" y="-53" type="offcurve" name="14" />
   <point x="138" y="-62" type="offcurve" name="14" />
   <point x="138" y="-89" type="curve" smooth="yes" name="15" />
   <point x="138" y="-116" type="offcurve" name="14" />
   <point x="117" y="-126" type="offcurve" name="14" />
   <point x="88" y="-126" type="curve" smooth="yes" name="15" />
   <point x="66" y="-126" type="offcurve" name="14" />
   <point x="52" y="-121" type="offcurve" name="14" />
   <point x="36" y="-112" type="curve" smooth="no" name="13" />
   <point x="25" y="-145" type="line" smooth="no" name="13" />
   <point x="55" y="-158" type="offcurve" name="14" />
   <point x="74" y="-160" type="offcurve" name="14" />
   <point x="92" y="-160" type="curve" smooth="yes" name="15" />
   <point x="143" y="-160" type="offcurve" name="14" />
   <point x="182" y="-129" type="offcurve" name="14" />
   <point x="182" y="-86" type="curve" smooth="yes" name="15" />
   <point x="182" y="-56" type="offcurve" name="14" />
   <point x="161" y="-30" type="offcurve" name="14" />
   <point x="116" y="-30" type="curve" smooth="yes" name="15" />
   <point x="110" y="-30" type="offcurve" name="14" />
   <point x="100" y="-31" type="offcurve" name="14" />
   <point x="95" y="-32" type="curve" smooth="no" name="13" />
   <point x="107" y="10" type="line" smooth="no" name="13" />
   <point x="68" y="10" type="line" smooth="no" name="13" />
  </contour>
 </outline>
</glyph>
<glyph name="onesuperior" format="1">
 <advance width="253" />
 <unicode hex="00b9" />
 <outline>
  <contour>
   <point x="153" y="633" type="line" smooth="no" name="13" />
   <point x="112" y="633" type="line" smooth="no" name="13" />
   <point x="29" y="564" type="line" smooth="no" name="13" />
   <point x="59" y="533" type="line" smooth="no" name="13" />
   <point x="113" y="577" type="line" smooth="no" name="13" />
   <point x="113" y="318" type="line" smooth="no" name="13" />
   <point x="153" y="318" type="line" smooth="no" name="13" />
  </contour>
 </outline>
</glyph>
<glyph name="ordmasculine" format="1">
 <advance width="288" />
 <unicode hex="00ba" />
 <outline>
  <contour>
   <point x="145" y="645" type="curve" smooth="yes" name="15" />
   <point x="74" y="645" type="offcurve" name="14" />
   <point x="33" y="590" type="offcurve" name="14" />
   <point x="33" y="522" type="curve" smooth="yes" name="15" />
   <point x="33" y="453" type="offcurve" name="14" />
   <point x="80" y="400" type="offcurve" name="14" />
   <point x="145" y="400" type="curve" smooth="yes" name="15" />
   <point x="208" y="400" type="offcurve" name="14" />
   <point x="255" y="453" type="offcurve" name="14" />
   <point x="255" y="522" type="curve" smooth="yes" name="15" />
   <point x="255" y="590" type="offcurve" name="14" />
   <point x="214" y="645" type="offcurve" name="14" />
  </contour>
  <contour>
   <point x="145" y="616" type="curve" smooth="yes" name="15" />
   <point x="189" y="616" type="offcurve" name="14" />
   <point x="211" y="571" type="offcurve" name="14" />
   <point x="211" y="522" type="curve" smooth="yes" name="15" />
   <point x="211" y="468" type="offcurve" name="14" />
   <point x="188" y="429" type="offcurve" name="14" />
   <point x="146" y="429" type="curve" smooth="yes" name="15" />
   <point x="107" y="429" type="offcurve" name="14" />
   <point x="78" y="468" type="offcurve" name="14" />
   <point x="78" y="522" type="curve" smooth="yes" name="15" />
   <point x="78" y="571" type="offcurve" name="14" />
   <point x="99" y="616" type="offcurve" name="14" />
  </contour>
 </outline>
</glyph>
<glyph name="guillemotright" format="1">
 <advance width="478" />
 <unicode hex="00bb" />
 <outline>
  <contour>
   <point x="42" y="24" type="line" smooth="no" name="13" />
   <point x="117" y="50" type="offcurve" name="14" />
   <point x="194" y="136" type="offcurve" name="14" />
   <point x="240" y="237" type="curve" smooth="no" name="13" />
   <point x="194" y="339" type="offcurve" name="14" />
   <point x="117" y="425" type="offcurve" name="14" />
   <point x="42" y="451" type="curve" smooth="no" name="13" />
   <point x="42" y="406" type="line" smooth="no" name="13" />
   <point x="108" y="372" type="offcurve" name="14" />
   <point x="160" y="307" type="offcurve" name="14" />
   <point x="191" y="237" type="curve" smooth="no" name="13" />
   <point x="160" y="168" type="offcurve" name="14" />
   <point x="108" y="103" type="offcurve" name="14" />
   <point x="42" y="69" type="curve" smooth="no" name="13" />
  </contour>
  <contour>
   <point x="228" y="24" type="line" smooth="no" name="13" />
   <point x="303" y="50" type="offcurve" name="14" />
   <point x="381" y="136" type="offcurve" name="14" />
   <point x="426" y="237" type="curve" smooth="no" name="13" />
   <point x="381" y="339" type="offcurve" name="14" />
   <point x="303" y="425" type="offcurve" name="14" />
   <point x="228" y="451" type="curve" smooth="no" name="13" />
   <point x="228" y="406" type="line" smooth="no" name="13" />
   <point x="294" y="372" type="offcurve" name="14" />
   <point x="346" y="307" type="offcurve" name="14" />
   <point x="377" y="237" type="curve" smooth="no" name="13" />
   <point x="346" y="168" type="offcurve" name="14" />
   <point x="294" y="103" type="offcurve" name="14" />
   <point x="228" y="69" type="curve" smooth="no" name="13" />
  </contour>
 </outline>
</glyph>
<glyph name="onequarter" format="1">
 <advance width="778" />
 <unicode hex="00bc" />
 <outline>
  <contour>
   <point x="197" y="633" type="line" smooth="no" name="13" />
   <point x="156" y="633" type="line" smooth="no" name="13" />
   <point x="73" y="564" type="line" smooth="no" name="13" />
   <point x="103" y="533" type="line" smooth="no" name="13" />
   <point x="157" y="577" type="line" smooth="no" name="13" />
   <point x="157" y="318" type="line" smooth="no" name="13" />
   <point x="197" y="318" type="line" smooth="no" name="13" />
  </contour>
  <contour>
   <point x="453" y="110" type="line" smooth="no" name="13" />
   <point x="453" y="67" type="line" smooth="no" name="13" />
   <point x="624" y="67" type="line" smooth="no" name="13" />
   <point x="624" y="0" type="line" smooth="no" name="13" />
   <point x="665" y="0" type="line" smooth="no" name="13" />
   <point x="665" y="67" type="line" smooth="no" name="13" />
   <point x="726" y="67" type="line" smooth="no" name="13" />
   <point x="726" y="110" type="line" smooth="no" name="13" />
   <point x="665" y="110" type="line" smooth="no" name="13" />
   <point x="665" y="318" type="line" smooth="no" name="13" />
   <point x="624" y="318" type="line" smooth="no" name="13" />
  </contour>
  <contour>
   <point x="507" y="110" type="line" smooth="no" name="13" />
   <point x="624" y="255" type="line" smooth="no" name="13" />
   <point x="624" y="110" type="line" smooth="no" name="13" />
  </contour>
  <contour>
   <point x="580" y="633" type="line" smooth="no" name="13" />
   <point x="536" y="633" type="line" smooth="no" name="13" />
   <point x="152" y="-30" type="line" smooth="no" name="13" />
   <point x="197" y="-30" type="line" smooth="no" name="13" />
  </contour>
 </outline>
</glyph>
<glyph name="onehalf" format="1">
 <advance width="800" />
 <unicode hex="00bd" />
 <outline>
  <contour>
   <point x="197" y="633" type="line" smooth="no" name="13" />
   <point x="156" y="633" type="line" smooth="no" name="13" />
   <point x="73" y="564" type="line" smooth="no" name="13" />
   <point x="103" y="533" type="line" smooth="no" name="13" />
   <point x="157" y="577" type="line" smooth="no" name="13" />
   <point x="157" y="318" type="line" smooth="no" name="13" />
   <point x="197" y="318" type="line" smooth="no" name="13" />
  </contour>
  <contour>
   <point x="512" y="0" type="line" smooth="no" name="13" />
   <point x="722" y="0" type="line" smooth="no" name="13" />
   <point x="722" y="43" type="line" smooth="no" name="13" />
   <point x="577" y="43" type="line" smooth="no" name="13" />
   <point x="647" y="110" type="line" smooth="yes" name="15" />
   <point x="700" y="161" type="offcurve" name="14" />
   <point x="720" y="189" type="offcurve" name="14" />
   <point x="720" y="232" type="curve" smooth="yes" name="15" />
   <point x="720" y="272" type="offcurve" name="14" />
   <point x="695" y="329" type="offcurve" name="14" />
   <point x="614" y="329" type="curve" smooth="yes" name="15" />
   <point x="585" y="329" type="offcurve" name="14" />
   <point x="547" y="317" type="offcurve" name="14" />
   <point x="509" y="284" type="curve" smooth="no" name="13" />
   <point x="527" y="259" type="line" smooth="no" name="13" />
   <point x="559" y="277" type="offcurve" name="14" />
   <point x="580" y="286" type="offcurve" name="14" />
   <point x="609" y="286" type="curve" smooth="yes" name="15" />
   <point x="648" y="286" type="offcurve" name="14" />
   <point x="676" y="267" type="offcurve" name="14" />
   <point x="676" y="229" type="curve" smooth="yes" name="15" />
   <point x="676" y="197" type="offcurve" name="14" />
   <point x="655" y="174" type="offcurve" name="14" />
   <point x="610" y="133" type="curve" smooth="yes" name="15" />
   <point x="512" y="44" type="line" smooth="no" name="13" />
  </contour>
  <contour>
   <point x="576" y="633" type="line" smooth="no" name="13" />
   <point x="532" y="633" type="line" smooth="no" name="13" />
   <point x="148" y="-30" type="line" smooth="no" name="13" />
   <point x="193" y="-30" type="line" smooth="no" name="13" />
  </contour>
 </outline>
</glyph>
<glyph name="questiondown" format="1">
 <advance width="380" />
 <unicode hex="00bf" />
 <outline>
  <contour>
   <point x="207" y="304" type="line" smooth="no" name="13" />
   <point x="207" y="234" type="line" smooth="yes" name="15" />
   <point x="207" y="181" type="offcurve" name="14" />
   <point x="190" y="167" type="offcurve" name="14" />
   <point x="153" y="137" type="curve" smooth="yes" name="15" />
   <point x="147" y="132" type="offcurve" name="14" />
   <point x="141" y="127" type="offcurve" name="14" />
   <point x="135" y="122" type="curve" smooth="yes" name="15" />
   <point x="93" y="86" type="offcurve" name="14" />
   <point x="48" y="29" type="offcurve" name="14" />
   <point x="48" y="-43" type="curve" smooth="yes" name="15" />
   <point x="48" y="-129" type="offcurve" name="14" />
   <point x="103" y="-192" type="offcurve" name="14" />
   <point x="196" y="-192" type="curve" smooth="yes" name="15" />
   <point x="242" y="-192" type="offcurve" name="14" />
   <point x="289" y="-178" type="offcurve" name="14" />
   <point x="332" y="-147" type="curve" smooth="no" name="13" />
   <point x="317" y="-117" type="line" smooth="no" name="13" />
   <point x="285" y="-134" type="offcurve" name="14" />
   <point x="239" y="-143" type="offcurve" name="14" />
   <point x="208" y="-143" type="curve" smooth="yes" name="15" />
   <point x="149" y="-143" type="offcurve" name="14" />
   <point x="101" y="-109" type="offcurve" name="14" />
   <point x="101" y="-34" type="curve" smooth="yes" name="15" />
   <point x="101" y="14" type="offcurve" name="14" />
   <point x="121" y="56" type="offcurve" name="14" />
   <point x="196" y="117" type="curve" smooth="yes" name="15" />
   <point x="244" y="156" type="offcurve" name="14" />
   <point x="256" y="168" type="offcurve" name="14" />
   <point x="256" y="226" type="curve" smooth="yes" name="15" />
   <point x="256" y="304" type="line" smooth="no" name="13" />
  </contour>
  <contour>
   <point x="274" y="423" type="curve" smooth="yes" name="15" />
   <point x="274" y="446" type="offcurve" name="14" />
   <point x="255" y="465" type="offcurve" name="14" />
   <point x="232" y="465" type="curve" smooth="yes" name="15" />
   <point x="209" y="465" type="offcurve" name="14" />
   <point x="190" y="446" type="offcurve" name="14" />
   <point x="190" y="423" type="curve" smooth="yes" name="15" />
   <point x="190" y="400" type="offcurve" name="14" />
   <point x="209" y="381" type="offcurve" name="14" />
   <point x="232" y="381" type="curve" smooth="yes" name="15" />
   <point x="255" y="381" type="offcurve" name="14" />
   <point x="274" y="400" type="offcurve" name="14" />
  </contour>
 </outline>
</glyph>
<glyph name="Agrave" format="1">
 <advance width="576" />
 <unicode hex="00c0" />
 <outline>
  <contour>
   <point x="240" y="633" type="line" smooth="no" name="13" />
   <point x="15" y="0" type="line" smooth="no" name="13" />
   <point x="74" y="0" type="line" smooth="no" name="13" />
   <point x="128" y="152" type="line" smooth="no" name="13" />
   <point x="419" y="152" type="line" smooth="no" name="13" />
   <point x="474" y="0" type="line" smooth="no" name="13" />
   <point x="530" y="0" type="line" smooth="no" name="13" />
   <point x="306" y="633" type="line" smooth="no" name="13" />
  </contour>
  <contour>
   <point x="272" y="578" type="line" smooth="no" name="13" />
   <point x="403" y="199" type="line" smooth="no" name="13" />
   <point x="142" y="199" type="line" smooth="no" name="13" />
  </contour>
  <contour>
   <point x="237" y="721" type="line" smooth="no" name="13" />
   <point x="264" y="721" type="line" smooth="no" name="13" />
   <point x="216" y="823" type="line" smooth="no" name="13" />
   <point x="161" y="823" type="line" smooth="no" name="13" />
  </contour>
 </outline>
</glyph>
<glyph name="Aacute" format="1">
 <advance width="576" />
 <unicode hex="00c1" />
 <outline>
  <contour>
   <point x="240" y="633" type="line" smooth="no" name="13" />
   <point x="15" y="0" type="line" smooth="no" name="13" />
   <point x="74" y="0" type="line" smooth="no" name="13" />
   <point x="128" y="152" type="line" smooth="no" name="13" />
   <point x="419" y="152" type="line" smooth="no" name="13" />
   <point x="474" y="0" type="line" smooth="no" name="13" />
   <point x="530" y="0" type="line" smooth="no" name="13" />
   <point x="306" y="633" type="line" smooth="no" name="13" />
  </contour>
  <contour>
   <point x="272" y="578" type="line" smooth="no" name="13" />
   <point x="403" y="199" type="line" smooth="no" name="13" />
   <point x="142" y="199" type="line" smooth="no" name="13" />
  </contour>
  <contour>
   <point x="363" y="823" type="line" smooth="no" name="13" />
   <point x="308" y="823" type="line" smooth="no" name="13" />
   <point x="260" y="721" type="line" smooth="no" name="13" />
   <point x="287" y="721" type="line" smooth="no" name="13" />
  </contour>
 </outline>
</glyph>
<glyph name="Acircumflex" format="1">
 <advance width="576" />
 <unicode hex="00c2" />
 <outline>
  <contour>
   <point x="240" y="633" type="line" smooth="no" name="13" />
   <point x="15" y="0" type="line" smooth="no" name="13" />
   <point x="74" y="0" type="line" smooth="no" name="13" />
   <point x="128" y="152" type="line" smooth="no" name="13" />
   <point x="419" y="152" type="line" smooth="no" name="13" />
   <point x="474" y="0" type="line" smooth="no" name="13" />
   <point x="530" y="0" type="line" smooth="no" name="13" />
   <point x="306" y="633" type="line" smooth="no" name="13" />
  </contour>
  <contour>
   <point x="272" y="578" type="line" smooth="no" name="13" />
   <point x="403" y="199" type="line" smooth="no" name="13" />
   <point x="142" y="199" type="line" smooth="no" name="13" />
  </contour>
  <contour>
   <point x="254" y="823" type="line" smooth="no" name="13" />
   <point x="183" y="721" type="line" smooth="no" name="13" />
   <point x="225" y="721" type="line" smooth="no" name="13" />
   <point x="273" y="788" type="line" smooth="no" name="13" />
   <point x="318" y="721" type="line" smooth="no" name="13" />
   <point x="361" y="721" type="line" smooth="no" name="13" />
   <point x="291" y="823" type="line" smooth="no" name="13" />
  </contour>
 </outline>
</glyph>
<glyph name="Atilde" format="1">
 <advance width="576" />
 <unicode hex="00c3" />
 <outline>
  <contour>
   <point x="240" y="633" type="line" smooth="no" name="13" />
   <point x="15" y="0" type="line" smooth="no" name="13" />
   <point x="74" y="0" type="line" smooth="no" name="13" />
   <point x="128" y="152" type="line" smooth="no" name="13" />
   <point x="419" y="152" type="line" smooth="no" name="13" />
   <point x="474" y="0" type="line" smooth="no" name="13" />
   <point x="530" y="0" type="line" smooth="no" name="13" />
   <point x="306" y="633" type="line" smooth="no" name="13" />
  </contour>
  <contour>
   <point x="272" y="578" type="line" smooth="no" name="13" />
   <point x="403" y="199" type="line" smooth="no" name="13" />
   <point x="142" y="199" type="line" smooth="no" name="13" />
  </contour>
  <contour>
   <point x="414" y="792" type="curve" smooth="no" name="13" />
   <point x="393" y="806" type="line" smooth="no" name="13" />
   <point x="383" y="786" type="offcurve" name="14" />
   <point x="361" y="762" type="offcurve" name="14" />
   <point x="343" y="762" type="curve" smooth="yes" name="15" />
   <point x="325" y="762" type="offcurve" name="14" />
   <point x="304" y="775" type="offcurve" name="14" />
   <point x="292" y="783" type="curve" smooth="yes" name="15" />
   <point x="274" y="795" type="offcurve" name="14" />
   <point x="252" y="807" type="offcurve" name="14" />
   <point x="226" y="807" type="curve" smooth="yes" name="15" />
   <point x="195" y="807" type="offcurve" name="14" />
   <point x="164" y="786" type="offcurve" name="14" />
   <point x="146" y="740" type="curve" smooth="no" name="13" />
   <point x="167" y="727" type="line" smooth="no" name="13" />
   <point x="175" y="749" type="offcurve" name="14" />
   <point x="203" y="770" type="offcurve" name="14" />
   <point x="226" y="770" type="curve" smooth="yes" name="15" />
   <point x="242" y="770" type="offcurve" name="14" />
   <point x="261" y="759" type="offcurve" name="14" />
   <point x="274" y="751" type="curve" smooth="no" name="13" />
   <point x="278" y="749" type="offcurve" name="14" />
   <point x="280" y="747" type="offcurve" name="14" />
   <point x="283" y="746" type="curve" smooth="no" name="13" />
   <point x="284" y="745" type="offcurve" name="14" />
   <point x="286" y="744" type="offcurve" name="14" />
   <point x="288" y="744" type="curve" smooth="no" name="13" />
   <point x="301" y="736" type="offcurve" name="14" />
   <point x="321" y="725" type="offcurve" name="14" />
   <point x="339" y="725" type="curve" smooth="yes" name="15" />
   <point x="371" y="725" type="offcurve" name="14" />
   <point x="396" y="748" type="offcurve" name="14" />
  </contour>
 </outline>
</glyph>
<glyph name="Adieresis" format="1">
 <advance width="576" />
 <unicode hex="00c4" />
 <outline>
  <contour>
   <point x="240" y="633" type="line" smooth="no" name="13" />
   <point x="15" y="0" type="line" smooth="no" name="13" />
   <point x="74" y="0" type="line" smooth="no" name="13" />
   <point x="128" y="152" type="line" smooth="no" name="13" />
   <point x="419" y="152" type="line" smooth="no" name="13" />
   <point x="474" y="0" type="line" smooth="no" name="13" />
   <point x="530" y="0" type="line" smooth="no" name="13" />
   <point x="306" y="633" type="line" smooth="no" name="13" />
  </contour>
  <contour>
   <point x="272" y="578" type="line" smooth="no" name="13" />
   <point x="403" y="199" type="line" smooth="no" name="13" />
   <point x="142" y="199" type="line" smooth="no" name="13" />
  </contour>
  <contour>
   <point x="169" y="777" type="curve" smooth="yes" name="15" />
   <point x="169" y="757" type="offcurve" name="14" />
   <point x="185" y="741" type="offcurve" name="14" />
   <point x="205" y="741" type="curve" smooth="yes" name="15" />
   <point x="225" y="741" type="offcurve" name="14" />
   <point x="241" y="757" type="offcurve" name="14" />
   <point x="241" y="777" type="curve" smooth="yes" name="15" />
   <point x="241" y="797" type="offcurve" name="14" />
   <point x="225" y="813" type="offcurve" name="14" />
   <point x="205" y="813" type="curve" smooth="yes" name="15" />
   <point x="185" y="813" type="offcurve" name="14" />
   <point x="169" y="797" type="offcurve" name="14" />
  </contour>
  <contour>
   <point x="309" y="777" type="curve" smooth="yes" name="15" />
   <point x="309" y="757" type="offcurve" name="14" />
   <point x="325" y="741" type="offcurve" name="14" />
   <point x="345" y="741" type="curve" smooth="yes" name="15" />
   <point x="365" y="741" type="offcurve" name="14" />
   <point x="381" y="757" type="offcurve" name="14" />
   <point x="381" y="777" type="curve" smooth="yes" name="15" />
   <point x="381" y="797" type="offcurve" name="14" />
   <point x="365" y="813" type="offcurve" name="14" />
   <point x="345" y="813" type="curve" smooth="yes" name="15" />
   <point x="325" y="813" type="offcurve" name="14" />
   <point x="309" y="797" type="offcurve" name="14" />
  </contour>
 </outline>
</glyph>
<glyph name="Aring" format="1">
 <advance width="576" />
 <unicode hex="00c5" />
 <outline>
  <contour>
   <point x="240" y="633" type="line" smooth="no" name="13" />
   <point x="15" y="0" type="line" smooth="no" name="13" />
   <point x="74" y="0" type="line" smooth="no" name="13" />
   <point x="128" y="152" type="line" smooth="no" name="13" />
   <point x="419" y="152" type="line" smooth="no" name="13" />
   <point x="474" y="0" type="line" smooth="no" name="13" />
   <point x="530" y="0" type="line" smooth="no" name="13" />
   <point x="306" y="633" type="line" smooth="no" name="13" />
  </contour>
  <contour>
   <point x="272" y="578" type="line" smooth="no" name="13" />
   <point x="403" y="199" type="line" smooth="no" name="13" />
   <point x="142" y="199" type="line" smooth="no" name="13" />
  </contour>
  <contour>
   <point x="210" y="763" type="curve" smooth="yes" name="15" />
   <point x="210" y="728" type="offcurve" name="14" />
   <point x="238" y="700" type="offcurve" name="14" />
   <point x="273" y="700" type="curve" smooth="yes" name="15" />
   <point x="308" y="700" type="offcurve" name="14" />
   <point x="336" y="728" type="offcurve" name="14" />
   <point x="336" y="763" type="curve" smooth="yes" name="15" />
   <point x="336" y="798" type="offcurve" name="14" />
   <point x="308" y="826" type="offcurve" name="14" />
   <point x="273" y="826" type="curve" smooth="yes" name="15" />
   <point x="238" y="826" type="offcurve" name="14" />
   <point x="210" y="798" type="offcurve" name="14" />
  </contour>
  <contour>
   <point x="236" y="763" type="curve" smooth="yes" name="15" />
   <point x="236" y="783" type="offcurve" name="14" />
   <point x="252" y="799" type="offcurve" name="14" />
   <point x="272" y="799" type="curve" smooth="yes" name="15" />
   <point x="292" y="799" type="offcurve" name="14" />
   <point x="309" y="783" type="offcurve" name="14" />
   <point x="309" y="763" type="curve" smooth="yes" name="15" />
   <point x="309" y="743" type="offcurve" name="14" />
   <point x="292" y="727" type="offcurve" name="14" />
   <point x="272" y="727" type="curve" smooth="yes" name="15" />
   <point x="252" y="727" type="offcurve" name="14" />
   <point x="236" y="743" type="offcurve" name="14" />
  </contour>
 </outline>
</glyph>
<glyph name="AE" format="1">
 <advance width="757" />
 <unicode hex="00c6" />
 <outline>
  <contour>
   <point x="692" y="633" type="line" smooth="no" name="13" />
   <point x="293" y="633" type="line" smooth="no" name="13" />
   <point x="15" y="0" type="line" smooth="no" name="13" />
   <point x="73" y="0" type="line" smooth="no" name="13" />
   <point x="137" y="161" type="line" smooth="no" name="13" />
   <point x="334" y="161" type="line" smooth="no" name="13" />
   <point x="334" y="0" type="line" smooth="no" name="13" />
   <point x="705" y="0" type="line" smooth="no" name="13" />
   <point x="705" y="49" type="line" smooth="no" name="13" />
   <point x="389" y="49" type="line" smooth="no" name="13" />
   <point x="389" y="305" type="line" smooth="no" name="13" />
   <point x="644" y="305" type="line" smooth="no" name="13" />
   <point x="644" y="354" type="line" smooth="no" name="13" />
   <point x="389" y="354" type="line" smooth="no" name="13" />
   <point x="389" y="584" type="line" smooth="no" name="13" />
   <point x="692" y="584" type="line" smooth="no" name="13" />
  </contour>
  <contour>
   <point x="320" y="582" type="line" smooth="no" name="13" />
   <point x="334" y="582" type="line" smooth="no" name="13" />
   <point x="334" y="208" type="line" smooth="no" name="13" />
   <point x="158" y="208" type="line" smooth="no" name="13" />
  </contour>
 </outline>
</glyph>
<glyph name="Ccedilla" format="1">
 <advance width="566" />
 <unicode hex="00c7" />
 <outline>
  <contour>
   <point x="280" y="-56" type="line" smooth="no" name="13" />
   <point x="298" y="-53" type="offcurve" name="14" />
   <point x="311" y="-53" type="offcurve" name="14" />
   <point x="316" y="-53" type="curve" smooth="yes" name="15" />
   <point x="342" y="-53" type="offcurve" name="14" />
   <point x="366" y="-62" type="offcurve" name="14" />
   <point x="366" y="-89" type="curve" smooth="yes" name="15" />
   <point x="366" y="-116" type="offcurve" name="14" />
   <point x="345" y="-126" type="offcurve" name="14" />
   <point x="316" y="-126" type="curve" smooth="yes" name="15" />
   <point x="294" y="-126" type="offcurve" name="14" />
   <point x="280" y="-121" type="offcurve" name="14" />
   <point x="264" y="-112" type="curve" smooth="no" name="13" />
   <point x="253" y="-145" type="line" smooth="no" name="13" />
   <point x="283" y="-158" type="offcurve" name="14" />
   <point x="302" y="-160" type="offcurve" name="14" />
   <point x="320" y="-160" type="curve" smooth="yes" name="15" />
   <point x="371" y="-160" type="offcurve" name="14" />
   <point x="410" y="-129" type="offcurve" name="14" />
   <point x="410" y="-86" type="curve" smooth="yes" name="15" />
   <point x="410" y="-56" type="offcurve" name="14" />
   <point x="389" y="-30" type="offcurve" name="14" />
   <point x="344" y="-30" type="curve" smooth="yes" name="15" />
   <point x="338" y="-30" type="offcurve" name="14" />
   <point x="328" y="-31" type="offcurve" name="14" />
   <point x="323" y="-32" type="curve" smooth="no" name="13" />
   <point x="328" y="-12" type="line" smooth="no" name="13" />
   <point x="397" y="-10" type="offcurve" name="14" />
   <point x="457" y="20" type="offcurve" name="14" />
   <point x="492" y="51" type="curve" smooth="no" name="13" />
   <point x="469" y="84" type="line" smooth="no" name="13" />
   <point x="444" y="64" type="offcurve" name="14" />
   <point x="387" y="37" type="offcurve" name="14" />
   <point x="329" y="37" type="curve" smooth="yes" name="15" />
   <point x="205" y="37" type="offcurve" name="14" />
   <point x="108" y="131" type="offcurve" name="14" />
   <point x="108" y="310" type="curve" smooth="yes" name="15" />
   <point x="108" y="500" type="offcurve" name="14" />
   <point x="203" y="596" type="offcurve" name="14" />
   <point x="321" y="596" type="curve" smooth="yes" name="15" />
   <point x="383" y="596" type="offcurve" name="14" />
   <point x="425" y="578" type="offcurve" name="14" />
   <point x="460" y="557" type="curve" smooth="no" name="13" />
   <point x="484" y="588" type="line" smooth="no" name="13" />
   <point x="439" y="624" type="offcurve" name="14" />
   <point x="381" y="645" type="offcurve" name="14" />
   <point x="312" y="645" type="curve" smooth="yes" name="15" />
   <point x="144" y="645" type="offcurve" name="14" />
   <point x="48" y="484" type="offcurve" name="14" />
   <point x="48" y="310" type="curve" smooth="yes" name="15" />
   <point x="48" y="128" type="offcurve" name="14" />
   <point x="146" y="4" type="offcurve" name="14" />
   <point x="291" y="-10" type="curve" smooth="no" name="13" />
  </contour>
 </outline>
</glyph>
<glyph name="Egrave" format="1">
 <advance width="526" />
 <unicode hex="00c8" />
 <outline>
  <contour>
   <point x="82" y="633" type="line" smooth="no" name="13" />
   <point x="82" y="0" type="line" smooth="no" name="13" />
   <point x="453" y="0" type="line" smooth="no" name="13" />
   <point x="453" y="49" type="line" smooth="no" name="13" />
   <point x="137" y="49" type="line" smooth="no" name="13" />
   <point x="137" y="305" type="line" smooth="no" name="13" />
   <point x="392" y="305" type="line" smooth="no" name="13" />
   <point x="392" y="354" type="line" smooth="no" name="13" />
   <point x="137" y="354" type="line" smooth="no" name="13" />
   <point x="137" y="584" type="line" smooth="no" name="13" />
   <point x="440" y="584" type="line" smooth="no" name="13" />
   <point x="440" y="633" type="line" smooth="no" name="13" />
  </contour>
  <contour>
   <point x="252" y="722" type="line" smooth="no" name="13" />
   <point x="279" y="722" type="line" smooth="no" name="13" />
   <point x="231" y="824" type="line" smooth="no" name="13" />
   <point x="176" y="824" type="line" smooth="no" name="13" />
  </contour>
 </outline>
</glyph>
<glyph name="Eacute" format="1">
 <advance width="526" />
 <unicode hex="00c9" />
 <outline>
  <contour>
   <point x="82" y="633" type="line" smooth="no" name="13" />
   <point x="82" y="0" type="line" smooth="no" name="13" />
   <point x="453" y="0" type="line" smooth="no" name="13" />
   <point x="453" y="49" type="line" smooth="no" name="13" />
   <point x="137" y="49" type="line" smooth="no" name="13" />
   <point x="137" y="305" type="line" smooth="no" name="13" />
   <point x="392" y="305" type="line" smooth="no" name="13" />
   <point x="392" y="354" type="line" smooth="no" name="13" />
   <point x="137" y="354" type="line" smooth="no" name="13" />
   <point x="137" y="584" type="line" smooth="no" name="13" />
   <point x="440" y="584" type="line" smooth="no" name="13" />
   <point x="440" y="633" type="line" smooth="no" name="13" />
  </contour>
  <contour>
   <point x="328" y="819" type="line" smooth="no" name="13" />
   <point x="273" y="819" type="line" smooth="no" name="13" />
   <point x="225" y="717" type="line" smooth="no" name="13" />
   <point x="252" y="717" type="line" smooth="no" name="13" />
  </contour>
 </outline>
</glyph>
